0
SECTION
2
HEADER
9
$INSUNITS
70
4
9
$ACADVER
1
AC1014
9
$HANDSEED
5
FFFF
0
ENDSEC
0
SECTION
2
TABLES
0
TABLE
2
VPORT
5
8
100
AcDbSymbolTable
0
ENDTAB
0
TABLE
2
LTYPE
5
5
100
AcDbSymbolTable
0
LTYPE
5
14
100
AcDbSymbolTableRecord
100
AcDbLinetypeTableRecord
2
BYBLOCK
70
0
0
LTYPE
5
15
100
AcDbSymbolTableRecord
100
AcDbLinetypeTableRecord
2
BYLAYER
70
0
0
ENDTAB
0
TABLE
2
LAYER
5
2
100
AcDbSymbolTable
70
2
0
LAYER
5
50
100
AcDbSymbolTableRecord
100
AcDbLayerTableRecord
2
0
70
0
6
CONTINUOUS
0
ENDTAB
0
TABLE
2
STYLE
5
3
100
AcDbSymbolTable
70
1
0
STYLE
5
11
100
AcDbSymbolTableRecord
100
AcDbTextStyleTableRecord
2
STANDARD
70
0
0
ENDTAB
0
TABLE
2
VIEW
5
6
100
AcDbSymbolTable
70
0
0
ENDTAB
0
TABLE
2
UCS
5
7
100
AcDbSymbolTable
70
0
0
ENDTAB
0
TABLE
2
APPID
5
9
100
AcDbSymbolTable
70
2
0
APPID
5
12
100
AcDbSymbolTableRecord
100
AcDbRegAppTableRecord
2
ACAD
70
0
0
ENDTAB
0
TABLE
2
DIMSTYLE
5
A
100
AcDbSymbolTable
70
1
0
ENDTAB
0
TABLE
2
BLOCK_RECORD
5
1
100
AcDbSymbolTable
70
1
0
BLOCK_RECORD
5
1F
100
AcDbSymbolTableRecord
100
AcDbBlockTableRecord
2
*MODEL_SPACE
0
BLOCK_RECORD
5
1B
100
AcDbSymbolTableRecord
100
AcDbBlockTableRecord
2
*PAPER_SPACE
0
ENDTAB
0
ENDSEC
0
SECTION
2
BLOCKS
0
BLOCK
5
20
100
AcDbEntity
100
AcDbBlockBegin
2
*MODEL_SPACE
0
ENDBLK
5
21
100
AcDbEntity
100
AcDbBlockEnd
0
BLOCK
5
1C
100
AcDbEntity
100
AcDbBlockBegin
2
*PAPER_SPACE
0
ENDBLK
5
1D
100
AcDbEntity
100
AcDbBlockEnd
0
ENDSEC
0
SECTION
2
ENTITIES
0
LWPOLYLINE
5
100
100
AcDbEntity
8
0
100
AcDbPolyline
90
4
70
1
43
0.0
10
29.626126320009259
20
31.25143829899357
42
-0.99999999999999989
10
29.626126320009259
20
38.25143829899357
10
40.626126320009263
20
38.25143829899357
42
-0.99999999999999989
10
40.626126320009263
20
31.25143829899357
0
LWPOLYLINE
5
101
100
AcDbEntity
8
0
100
AcDbPolyline
90
4
70
1
43
0.0
10
-28.973873679990739
20
38.25143829899357
42
-0.99999999999999989
10
-28.973873679990739
20
31.25143829899357
10
-39.973873679990739
20
31.25143829899357
42
-0.99999999999999989
10
-39.973873679990739
20
38.25143829899357
0
CIRCLE
5
102
100
AcDbEntity
8
0
100
AcDbCircle
10
94.300377256354153
20
6.5475402877268582e-14
30
0
40
25
0
CIRCLE
5
103
100
AcDbEntity
8
0
100
AcDbCircle
10
117.3003772563541
20
22.999999999999957
30
0
40
2.9999999999999893
0
CIRCLE
5
104
100
AcDbEntity
8
0
100
AcDbCircle
10
71.30037725635421
20
22.999999999999932
30
0
40
2.9999999999999893
0
CIRCLE
5
105
100
AcDbEntity
8
0
100
AcDbCircle
10
71.30037725635421
20
-22.999999999999851
30
0
40
2.9999999999999893
0
CIRCLE
5
106
100
AcDbEntity
8
0
100
AcDbCircle
10
117.3003772563541
20
-22.999999999999826
30
0
40
2.9999999999999893
0
LWPOLYLINE
5
107
100
AcDbEntity
8
0
100
AcDbPolyline
90
20
70
1
43
0.0
10
-54.452962160581691
20
44.999999999999943
42
-0.41421356237309348
10
-49.452962160581713
20
49.999999999999936
10
125.54703783941829
20
50.000000000000398
42
-0.41421356237309764
10
130.54703783941829
20
45.000000000000412
10
130.54703783941829
20
-24.999999999999929
42
-0.41421356237309348
10
125.54703783941831
20
-29.999999999999932
10
90.547037839418465
20
-29.999999999999929
42
0.41421356237309503
10
85.547037839418465
20
-34.999999999999929
10
85.547037839418465
20
-69.999999999999716
42
-0.41421356237309398
10
80.547037839418479
20
-74.999999999999716
10
60.047037839418486
20
-74.999999999999773
10
60.047037839418415
20
-46.999999999999758
42
0.99999999999999989
10
51.047037839418422
20
-46.999999999999787
10
51.047037839418479
20
-74.999999999999801
10
-19.452962160581507
20
-74.999999999999986
10
-19.452962160581578
20
-46.999999999999972
42
0.99999999999999989
10
-29.452962160581578
20
-47
10
-29.452962160581507
20
-75.000000000000014
10
-49.452962160581684
20
-75.000000000000043
42
-0.41421356237309503
10
-54.452962160581691
20
-70.000000000000057
0
LWPOLYLINE
5
108
100
AcDbEntity
8
0
100
AcDbPolyline
90
4
70
1
43
0.0
10
-39.973873679990675
20
-38.250000000000213
10
-28.973873679990664
20
-38.250000000000234
42
0.99999999999999989
10
-28.973873679990646
20
-31.250000000000245
10
-39.973873679990646
20
-31.250000000000185
42
0.99999999999999989
0
LWPOLYLINE
5
109
100
AcDbEntity
8
0
100
AcDbPolyline
90
4
70
1
43
0.0
10
29.573229747867877
20
-38.250000000000014
10
40.573229747867884
20
-38.249999999999993
42
0.99999999999999989
10
40.573229747867863
20
-31.249999999999993
10
29.573229747867863
20
-31.250000000000007
42
0.99999999999999989
0
ENDSEC
0
SECTION
2
OBJECTS
0
DICTIONARY
5
C
100
AcDbDictionary
3
ACAD_GROUP
350
D
3
ACAD_MLINESTYLE
350
17
0
DICTIONARY
5
D
100
AcDbDictionary
0
DICTIONARY
5
1A
330
C
100
AcDbDictionary
0
DICTIONARY
5
17
100
AcDbDictionary
0
ENDSEC
0
EOF
