0
SECTION
2
HEADER
9
$INSUNITS
70
4
9
$ACADVER
1
AC1014
9
$HANDSEED
5
FFFF
0
ENDSEC
0
SECTION
2
TABLES
0
TABLE
2
VPORT
5
8
100
AcDbSymbolTable
0
ENDTAB
0
TABLE
2
LTYPE
5
5
100
AcDbSymbolTable
0
LTYPE
5
14
100
AcDbSymbolTableRecord
100
AcDbLinetypeTableRecord
2
BYBLOCK
70
0
0
LTYPE
5
15
100
AcDbSymbolTableRecord
100
AcDbLinetypeTableRecord
2
BYLAYER
70
0
0
ENDTAB
0
TABLE
2
LAYER
5
2
100
AcDbSymbolTable
70
2
0
LAYER
5
50
100
AcDbSymbolTableRecord
100
AcDbLayerTableRecord
2
0
70
0
6
CONTINUOUS
0
ENDTAB
0
TABLE
2
STYLE
5
3
100
AcDbSymbolTable
70
1
0
STYLE
5
11
100
AcDbSymbolTableRecord
100
AcDbTextStyleTableRecord
2
STANDARD
70
0
0
ENDTAB
0
TABLE
2
VIEW
5
6
100
AcDbSymbolTable
70
0
0
ENDTAB
0
TABLE
2
UCS
5
7
100
AcDbSymbolTable
70
0
0
ENDTAB
0
TABLE
2
APPID
5
9
100
AcDbSymbolTable
70
2
0
APPID
5
12
100
AcDbSymbolTableRecord
100
AcDbRegAppTableRecord
2
ACAD
70
0
0
ENDTAB
0
TABLE
2
DIMSTYLE
5
A
100
AcDbSymbolTable
70
1
0
ENDTAB
0
TABLE
2
BLOCK_RECORD
5
1
100
AcDbSymbolTable
70
1
0
BLOCK_RECORD
5
1F
100
AcDbSymbolTableRecord
100
AcDbBlockTableRecord
2
*MODEL_SPACE
0
BLOCK_RECORD
5
1B
100
AcDbSymbolTableRecord
100
AcDbBlockTableRecord
2
*PAPER_SPACE
0
ENDTAB
0
ENDSEC
0
SECTION
2
BLOCKS
0
BLOCK
5
20
100
AcDbEntity
100
AcDbBlockBegin
2
*MODEL_SPACE
0
ENDBLK
5
21
100
AcDbEntity
100
AcDbBlockEnd
0
BLOCK
5
1C
100
AcDbEntity
100
AcDbBlockBegin
2
*PAPER_SPACE
0
ENDBLK
5
1D
100
AcDbEntity
100
AcDbBlockEnd
0
ENDSEC
0
SECTION
2
ENTITIES
0
LWPOLYLINE
5
100
100
AcDbEntity
8
0
100
AcDbPolyline
90
6
70
1
43
0.0
10
120.76875026218239
20
-26.469900944956795
10
120.76875026218239
20
-19.469901554907967
42
0.99999999999999989
10
113.76875026218241
20
-19.469901554907967
10
113.76875026218241
20
-22.868779526722506
42
0.014448976383923029
10
113.76875026218241
20
-23.071022973142252
10
113.76875026218241
20
-26.469900944956795
42
0.99999999999999989
0
LWPOLYLINE
5
101
100
AcDbEntity
8
0
100
AcDbPolyline
90
6
70
1
43
0.0
10
120.76875026218239
20
18.530099055043205
10
120.76875026218239
20
25.530098445092033
42
0.99999999999999989
10
113.76875026218241
20
25.530098445092033
10
113.76875026218241
20
22.131220473277494
42
0.014448976383923029
10
113.76875026218241
20
21.928977026857748
10
113.76875026218241
20
18.530099055043205
42
0.99999999999999989
0
LWPOLYLINE
5
102
100
AcDbEntity
8
0
100
AcDbPolyline
90
6
70
1
43
0.0
10
75.768750262182394
20
-26.469900944956795
10
75.768750262182394
20
-19.469901554907967
42
0.99999999999999989
10
68.768750262182394
20
-19.469901554907967
10
68.768750262182394
20
-22.868779526722662
42
0.014448976383856702
10
68.768750262182394
20
-23.07102297314211
10
68.768750262182394
20
-26.469900944956795
42
0.99999999999999989
0
CIRCLE
5
103
100
AcDbEntity
8
0
100
AcDbCircle
10
72.267289156792032
20
-255.46990124993238
30
0
40
3.4000000000000075
0
CIRCLE
5
104
100
AcDbEntity
8
0
100
AcDbCircle
10
117.26728915679203
20
-255.46990124993238
30
0
40
3.3999999999999986
0
CIRCLE
5
105
100
AcDbEntity
8
0
100
AcDbCircle
10
72.267289156792032
20
-210.46990124993238
30
0
40
3.4000000000000075
0
CIRCLE
5
106
100
AcDbEntity
8
0
100
AcDbCircle
10
117.26728915679203
20
-210.46990124993238
30
0
40
3.3999999999999986
0
CIRCLE
5
107
100
AcDbEntity
8
0
100
AcDbCircle
10
72.267289156792032
20
-165.46990124993238
30
0
40
3.4000000000000075
0
CIRCLE
5
108
100
AcDbEntity
8
0
100
AcDbCircle
10
117.26728915679203
20
-165.46990124993238
30
0
40
3.3999999999999986
0
CIRCLE
5
109
100
AcDbEntity
8
0
100
AcDbCircle
10
117.26728915679203
20
-75.469901249932377
30
0
40
3.3999999999999986
0
LWPOLYLINE
5
110
100
AcDbEntity
8
0
100
AcDbPolyline
90
6
70
1
43
0.0
10
120.76875026218239
20
63.530099055043209
10
120.76875026218239
20
70.530098445092037
42
0.99999999999999989
10
113.76875026218241
20
70.530098445092037
10
113.76875026218241
20
67.131220473277494
42
0.014448976383923029
10
113.76875026218241
20
66.928977026857751
10
113.76875026218241
20
63.530099055043209
42
0.99999999999999989
0
LWPOLYLINE
5
111
100
AcDbEntity
8
0
100
AcDbPolyline
90
6
70
1
43
0.0
10
75.768750262182394
20
63.530099055043209
10
75.768750262182394
20
70.530098445092037
42
0.99999999999999989
10
68.768750262182394
20
70.530098445092037
10
68.768750262182394
20
67.131220473277338
42
0.014448976383855259
10
68.768750262182394
20
66.928977026857893
10
68.768750262182394
20
63.530099055043209
42
0.99999999999999989
0
CIRCLE
5
112
100
AcDbEntity
8
0
100
AcDbCircle
10
72.267289156792032
20
-120.46990124993238
30
0
40
3.4000000000000075
0
LWPOLYLINE
5
113
100
AcDbEntity
8
0
100
AcDbPolyline
90
6
70
1
43
0.0
10
120.76875026218239
20
108.53009905504321
10
120.76875026218239
20
115.53009844509204
42
0.99999999999999989
10
113.76875026218241
20
115.53009844509204
10
113.76875026218241
20
112.13122047327749
42
0.01444897638392399
10
113.76875026218241
20
111.92897702685775
10
113.76875026218241
20
108.53009905504321
42
0.99999999999999989
0
LWPOLYLINE
5
114
100
AcDbEntity
8
0
100
AcDbPolyline
90
6
70
1
43
0.0
10
75.768750262182394
20
18.530099055043205
10
75.768750262182394
20
25.530098445092033
42
0.99999999999999989
10
68.768750262182394
20
25.530098445092033
10
68.768750262182394
20
22.131220473277338
42
0.014448976383856702
10
68.768750262182394
20
21.92897702685789
10
68.768750262182394
20
18.530099055043205
42
0.99999999999999989
0
LWPOLYLINE
5
115
100
AcDbEntity
8
0
100
AcDbPolyline
90
6
70
1
43
0.0
10
68.768750262182394
20
115.53009844509199
42
-0.99999999999999989
10
75.76875026218238
20
115.53009844509204
10
75.76875026218238
20
108.53009905504324
42
-0.99999999999999989
10
68.768750262182394
20
108.53009905504321
10
68.768750262182394
20
111.92897702685786
42
-0.014448976383859639
10
68.768750262182394
20
112.13122047327732
0
CIRCLE
5
116
100
AcDbEntity
8
0
100
AcDbCircle
10
72.267289156792032
20
-75.469901249932377
30
0
40
3.4000000000000075
0
CIRCLE
5
117
100
AcDbEntity
8
0
100
AcDbCircle
10
117.26728915679203
20
-120.46990124993238
30
0
40
3.3999999999999986
0
LWPOLYLINE
5
118
100
AcDbEntity
8
0
100
AcDbPolyline
90
4
70
1
43
0.0
10
-20.981249737817503
20
-65.969901487135601
42
-0.99999999999999989
10
-13.9812497378175
20
-65.969901487135601
10
-13.9812497378175
20
-74.969901012729153
42
-0.99999999999999989
10
-20.981249737817503
20
-74.969901012729153
0
LWPOLYLINE
5
119
100
AcDbEntity
8
0
100
AcDbPolyline
90
4
70
1
43
0.0
10
-13.9812497378175
20
-119.96990101272912
42
-0.99999999999999989
10
-20.981249737817503
20
-119.96990101272915
10
-20.981249737817503
20
-110.96990148713559
42
-0.99999999999999989
10
-13.9812497378175
20
-110.96990148713562
0
LWPOLYLINE
5
120
100
AcDbEntity
8
0
100
AcDbPolyline
90
4
70
1
43
0.0
10
31.0187502621825
20
-74.969901012729153
42
-0.99999999999999989
10
24.018750262182497
20
-74.969901012729153
10
24.0187502621825
20
-65.969901487135601
42
-0.99999999999999989
10
31.018750262182493
20
-65.969901487135601
0
LWPOLYLINE
5
121
100
AcDbEntity
8
0
100
AcDbPolyline
90
4
70
1
43
0.0
10
31.0187502621825
20
-119.96990101272912
42
-0.99999999999999989
10
24.018750262182497
20
-119.96990101272915
10
24.0187502621825
20
-110.96990148713559
42
-0.99999999999999989
10
31.018750262182493
20
-110.96990148713562
0
LWPOLYLINE
5
122
100
AcDbEntity
8
0
100
AcDbPolyline
90
4
70
1
43
0.0
10
76.767289156792188
20
-376.71990124993243
10
85.267289156792202
20
-376.71990124993243
42
0.99999999999999989
10
85.267289156792202
20
-368.21990124993238
10
76.767289156792188
20
-368.21990124993238
42
0.99999999999999989
0
LWPOLYLINE
5
123
100
AcDbEntity
8
0
100
AcDbPolyline
90
4
70
1
43
0.0
10
-99.732710843207727
20
-368.21990124993238
42
-0.99999999999999989
10
-99.732710843207798
20
-376.71990124993243
10
-108.23271084320788
20
-376.71990124993243
42
-0.99999999999999989
10
-108.23271084320781
20
-368.21990124993238
0
LWPOLYLINE
5
124
100
AcDbEntity
8
0
100
AcDbPolyline
90
4
70
1
43
0.0
10
-108.23271084320781
20
-319.71990124993238
10
-99.732710843207798
20
-319.71990124993238
42
0.99999999999999989
10
-99.732710843207798
20
-311.21990124993238
10
-108.23271084320781
20
-311.21990124993238
42
0.99999999999999989
0
LWPOLYLINE
5
125
100
AcDbEntity
8
0
100
AcDbPolyline
90
4
70
1
43
0.0
10
85.267289156792231
20
-311.21990124993238
42
-0.99999999999999989
10
85.267289156792202
20
-319.71990124993238
10
76.767289156792145
20
-319.71990124993238
42
-0.99999999999999989
10
76.767289156792188
20
-311.21990124993238
0
LWPOLYLINE
5
126
100
AcDbEntity
8
0
100
AcDbPolyline
90
4
70
1
43
0.0
10
130.2672891567922
20
-368.21990124993238
10
121.76728915679219
20
-368.21990124993238
42
0.99999999999999989
10
121.76728915679219
20
-376.71990124993243
10
130.2672891567922
20
-376.71990124993243
42
0.99999999999999989
0
LWPOLYLINE
5
127
100
AcDbEntity
8
0
100
AcDbPolyline
90
4
70
1
43
0.0
10
-54.732710843207727
20
-368.21990124993238
42
-0.99999999999999989
10
-54.732710843207798
20
-376.71990124993243
10
-63.232710843207883
20
-376.71990124993243
42
-0.99999999999999989
10
-63.232710843207812
20
-368.21990124993238
0
LWPOLYLINE
5
128
100
AcDbEntity
8
0
100
AcDbPolyline
90
4
70
1
43
0.0
10
-54.732710843207769
20
-311.21990124993238
42
-0.99999999999999989
10
-54.732710843207798
20
-319.71990124993238
10
-63.232710843207855
20
-319.71990124993238
42
-0.99999999999999989
10
-63.232710843207812
20
-311.21990124993238
0
LWPOLYLINE
5
129
100
AcDbEntity
8
0
100
AcDbPolyline
90
4
70
1
43
0.0
10
130.26728915679223
20
-311.21990124993238
42
-0.99999999999999989
10
130.2672891567922
20
-319.71990124993238
10
121.76728915679215
20
-319.71990124993238
42
-0.99999999999999989
10
121.76728915679219
20
-311.21990124993238
0
CIRCLE
5
130
100
AcDbEntity
8
0
100
AcDbCircle
10
-16.482710843207876
20
-360.46990124993238
30
0
40
3.4250000000000114
0
CIRCLE
5
131
100
AcDbEntity
8
0
100
AcDbCircle
10
-16.482710843207876
20
-310.46990124993238
30
0
40
3.4250000000000114
0
CIRCLE
5
132
100
AcDbEntity
8
0
100
AcDbCircle
10
38.517289156792124
20
-360.46990124993238
30
0
40
3.4250000000000069
0
CIRCLE
5
133
100
AcDbEntity
8
0
100
AcDbCircle
10
38.517289156792124
20
-310.46990124993238
30
0
40
3.4250000000000069
0
LWPOLYLINE
5
134
100
AcDbEntity
8
0
100
AcDbPolyline
90
19
70
1
43
0.0
10
-117.98271084320783
20
-229.54414358254007
42
-0.11346350251857751
10
-109.95149074667049
20
-194.6085640223418
10
-39.982710843208039
20
-50.469901249932377
10
50.017289156791961
20
-50.469901249932377
10
50.017289156792017
20
134.53009875006762
10
136.01728915679203
20
134.53009875006759
42
-0.41421356237309764
10
140.01728915679203
20
130.53009875006757
10
140.01728915679232
20
-381.46990124993238
42
-0.41421356237309631
10
136.01728915679232
20
-385.46990124993238
10
74.086597108707807
20
-385.46990124993238
42
-0.33945425886337116
10
70.222893803551543
20
-382.50517743034243
10
66.988599046272341
20
-370.43462506952233
42
0.33945425886337705
10
63.124895741116063
20
-367.46990124993238
10
-41.090317427531858
20
-367.46990124993238
42
0.33945425886337216
10
-44.954020732688129
20
-370.43462506952221
10
-48.188315489967614
20
-382.50517743034254
42
-0.33945425886338049
10
-52.052018795123871
20
-385.46990124993238
10
-113.98271084320804
20
-385.46990124993238
42
-0.41421356237309631
10
-117.98271084320804
20
-381.46990124993238
0
LWPOLYLINE
5
135
100
AcDbEntity
8
0
100
AcDbPolyline
90
19
70
1
43
0.0
10
-117.98271084320783
20
-229.54414358254007
42
-0.11346350251857819
10
-109.95149074667047
20
-194.6085640223418
10
-39.982710843208046
20
-50.469901249932363
10
50.017289156791961
20
-50.469901249932377
10
50.017289156792017
20
134.53009875006762
10
136.01728915679203
20
134.53009875006759
42
-0.41421356237309631
10
140.01728915679203
20
130.53009875006757
10
140.01728915679229
20
-381.46990124993238
42
-0.41421356237309503
10
136.01728915679232
20
-385.46990124993238
10
74.086597108707807
20
-385.46990124993238
42
-0.33945425886337727
10
70.222893803551528
20
-382.50517743034243
10
66.988599046272356
20
-370.43462506952233
42
0.33945425886337083
10
63.124895741116063
20
-367.46990124993238
10
-41.090317427531858
20
-367.46990124993238
42
0.33945425886338121
10
-44.954020732688136
20
-370.43462506952221
10
-48.188315489967636
20
-382.50517743034254
42
-0.33945425886337094
10
-52.052018795123871
20
-385.46990124993238
10
-113.98271084320804
20
-385.46990124993238
42
-0.41421356237309503
10
-117.98271084320803
20
-381.46990124993238
0
LWPOLYLINE
5
136
100
AcDbEntity
8
0
100
AcDbPolyline
90
4
70
1
43
0.0
10
130.2672891567922
20
-311.21990124993238
42
-0.99999999999999989
10
130.2672891567922
20
-319.71990124993238
10
121.76728915679219
20
-319.71990124993232
42
-0.99999999999999989
10
121.76728915679219
20
-311.21990124993238
0
LWPOLYLINE
5
137
100
AcDbEntity
8
0
100
AcDbPolyline
90
4
70
1
43
0.0
10
-54.732710843207798
20
-311.21990124993238
42
-0.99999999999999989
10
-54.732710843207798
20
-319.71990124993238
10
-63.232710843207812
20
-319.71990124993232
42
-0.99999999999999989
10
-63.232710843207812
20
-311.21990124993238
0
LWPOLYLINE
5
138
100
AcDbEntity
8
0
100
AcDbPolyline
90
4
70
1
43
0.0
10
-54.732710843207798
20
-368.21990124993238
42
-0.99999999999999989
10
-54.732710843207798
20
-376.71990124993243
10
-63.232710843207812
20
-376.71990124993243
42
-0.99999999999999989
10
-63.232710843207812
20
-368.21990124993238
0
LWPOLYLINE
5
139
100
AcDbEntity
8
0
100
AcDbPolyline
90
4
70
1
43
0.0
10
121.76728915679219
20
-368.21990124993238
10
130.2672891567922
20
-368.21990124993238
42
-0.99999999999999989
10
130.2672891567922
20
-376.71990124993243
10
121.76728915679219
20
-376.71990124993243
42
-0.99999999999999989
0
LWPOLYLINE
5
140
100
AcDbEntity
8
0
100
AcDbPolyline
90
4
70
1
43
0.0
10
85.267289156792202
20
-311.21990124993238
42
-0.99999999999999989
10
85.267289156792202
20
-319.71990124993238
10
76.767289156792188
20
-319.71990124993232
42
-0.99999999999999989
10
76.767289156792188
20
-311.21990124993238
0
LWPOLYLINE
5
141
100
AcDbEntity
8
0
100
AcDbPolyline
90
4
70
1
43
0.0
10
-99.732710843207798
20
-319.71990124993232
10
-108.23271084320781
20
-319.71990124993232
42
-0.99999999999999989
10
-108.23271084320781
20
-311.21990124993238
10
-99.732710843207798
20
-311.21990124993238
42
-0.99999999999999989
0
LWPOLYLINE
5
142
100
AcDbEntity
8
0
100
AcDbPolyline
90
4
70
1
43
0.0
10
-99.732710843207798
20
-368.21990124993238
42
-0.99999999999999989
10
-99.732710843207798
20
-376.71990124993243
10
-108.23271084320781
20
-376.71990124993243
42
-0.99999999999999989
10
-108.23271084320781
20
-368.21990124993238
0
LWPOLYLINE
5
143
100
AcDbEntity
8
0
100
AcDbPolyline
90
4
70
1
43
0.0
10
85.267289156792202
20
-376.71990124993243
10
76.767289156792188
20
-376.71990124993243
42
-0.99999999999999989
10
76.767289156792188
20
-368.21990124993238
10
85.267289156792202
20
-368.21990124993238
42
-0.99999999999999989
0
LWPOLYLINE
5
144
100
AcDbEntity
8
0
100
AcDbPolyline
90
4
70
1
43
0.0
10
31.0187502621825
20
-119.96990101272912
42
-0.99999999999999989
10
24.018750262182497
20
-119.96990101272915
10
24.0187502621825
20
-110.96990148713559
42
-0.99999999999999989
10
31.018750262182493
20
-110.96990148713562
0
LWPOLYLINE
5
145
100
AcDbEntity
8
0
100
AcDbPolyline
90
4
70
1
43
0.0
10
31.0187502621825
20
-74.969901012729153
42
-0.99999999999999989
10
24.018750262182497
20
-74.969901012729153
10
24.0187502621825
20
-65.969901487135601
42
-0.99999999999999989
10
31.018750262182493
20
-65.969901487135601
0
LWPOLYLINE
5
146
100
AcDbEntity
8
0
100
AcDbPolyline
90
4
70
1
43
0.0
10
-13.9812497378175
20
-119.96990101272912
42
-0.99999999999999989
10
-20.981249737817503
20
-119.96990101272915
10
-20.981249737817503
20
-110.96990148713559
42
-0.99999999999999989
10
-13.9812497378175
20
-110.96990148713562
0
LWPOLYLINE
5
147
100
AcDbEntity
8
0
100
AcDbPolyline
90
4
70
1
43
0.0
10
-20.981249737817503
20
-65.969901487135601
42
-0.99999999999999989
10
-13.9812497378175
20
-65.969901487135601
10
-13.9812497378175
20
-74.969901012729153
42
-0.99999999999999989
10
-20.981249737817503
20
-74.969901012729153
0
CIRCLE
5
148
100
AcDbEntity
8
0
100
AcDbCircle
10
117.26728915679203
20
-120.46990124993238
30
0
40
3.3999999999999986
0
CIRCLE
5
149
100
AcDbEntity
8
0
100
AcDbCircle
10
72.267289156792032
20
-75.469901249932377
30
0
40
3.4000000000000075
0
LWPOLYLINE
5
150
100
AcDbEntity
8
0
100
AcDbPolyline
90
6
70
1
43
0.0
10
68.768750262182394
20
115.53009844509199
42
-0.99999999999999989
10
75.76875026218238
20
115.53009844509204
10
75.76875026218238
20
108.53009905504324
42
-0.99999999999999989
10
68.768750262182394
20
108.53009905504321
10
68.768750262182394
20
111.92897702685789
42
-0.014448976383856197
10
68.768750262182394
20
112.13122047327735
0
LWPOLYLINE
5
151
100
AcDbEntity
8
0
100
AcDbPolyline
90
6
70
1
43
0.0
10
75.76875026218238
20
18.530099055043205
10
75.76875026218238
20
25.530098445092033
42
0.99999999999999989
10
68.768750262182394
20
25.530098445092033
10
68.768750262182394
20
22.131220473277345
42
0.014448976383856222
10
68.768750262182394
20
21.928977026857901
10
68.768750262182394
20
18.530099055043205
42
0.99999999999999989
0
LWPOLYLINE
5
152
100
AcDbEntity
8
0
100
AcDbPolyline
90
6
70
1
43
0.0
10
120.76875026218239
20
108.53009905504321
10
120.76875026218239
20
115.53009844509204
42
0.99999999999999989
10
113.76875026218241
20
115.53009844509204
10
113.76875026218241
20
112.13122047327749
42
0.01444897638392399
10
113.76875026218241
20
111.92897702685775
10
113.76875026218241
20
108.53009905504321
42
0.99999999999999989
0
CIRCLE
5
153
100
AcDbEntity
8
0
100
AcDbCircle
10
72.267289156792032
20
-120.46990124993238
30
0
40
3.4000000000000075
0
LWPOLYLINE
5
154
100
AcDbEntity
8
0
100
AcDbPolyline
90
6
70
1
43
0.0
10
75.76875026218238
20
63.530099055043209
10
75.76875026218238
20
70.530098445092037
42
0.99999999999999989
10
68.768750262182394
20
70.530098445092037
10
68.768750262182394
20
67.131220473277352
42
0.014448976383856702
10
68.768750262182394
20
66.928977026857879
10
68.768750262182394
20
63.530099055043209
42
0.99999999999999989
0
LWPOLYLINE
5
155
100
AcDbEntity
8
0
100
AcDbPolyline
90
6
70
1
43
0.0
10
120.76875026218239
20
63.530099055043209
10
120.76875026218239
20
70.530098445092037
42
0.99999999999999989
10
113.76875026218241
20
70.530098445092051
10
113.76875026218241
20
67.131220473277494
42
0.014448976383923029
10
113.76875026218241
20
66.928977026857751
10
113.76875026218241
20
63.530099055043209
42
0.99999999999999989
0
CIRCLE
5
156
100
AcDbEntity
8
0
100
AcDbCircle
10
117.26728915679203
20
-75.469901249932377
30
0
40
3.3999999999999986
0
CIRCLE
5
157
100
AcDbEntity
8
0
100
AcDbCircle
10
117.26728915679203
20
-165.46990124993238
30
0
40
3.3999999999999986
0
CIRCLE
5
158
100
AcDbEntity
8
0
100
AcDbCircle
10
72.267289156792032
20
-165.46990124993238
30
0
40
3.4000000000000075
0
CIRCLE
5
159
100
AcDbEntity
8
0
100
AcDbCircle
10
117.26728915679203
20
-210.46990124993238
30
0
40
3.3999999999999986
0
CIRCLE
5
160
100
AcDbEntity
8
0
100
AcDbCircle
10
72.267289156792032
20
-210.46990124993238
30
0
40
3.4000000000000075
0
CIRCLE
5
161
100
AcDbEntity
8
0
100
AcDbCircle
10
117.26728915679203
20
-255.46990124993238
30
0
40
3.3999999999999986
0
CIRCLE
5
162
100
AcDbEntity
8
0
100
AcDbCircle
10
72.267289156792032
20
-255.46990124993238
30
0
40
3.4000000000000075
0
LWPOLYLINE
5
163
100
AcDbEntity
8
0
100
AcDbPolyline
90
6
70
1
43
0.0
10
75.76875026218238
20
-26.469900944956795
10
75.76875026218238
20
-19.469901554907967
42
0.99999999999999989
10
68.768750262182394
20
-19.469901554907967
10
68.768750262182394
20
-22.868779526722655
42
0.014448976383856222
10
68.768750262182394
20
-23.071022973142099
10
68.768750262182394
20
-26.469900944956795
42
0.99999999999999989
0
LWPOLYLINE
5
164
100
AcDbEntity
8
0
100
AcDbPolyline
90
6
70
1
43
0.0
10
120.76875026218239
20
18.530099055043205
10
120.76875026218239
20
25.530098445092033
42
0.99999999999999989
10
113.76875026218241
20
25.530098445092051
10
113.76875026218241
20
22.131220473277494
42
0.014448976383923029
10
113.76875026218241
20
21.928977026857744
10
113.76875026218241
20
18.530099055043205
42
0.99999999999999989
0
LWPOLYLINE
5
165
100
AcDbEntity
8
0
100
AcDbPolyline
90
6
70
1
43
0.0
10
120.76875026218239
20
-26.469900944956795
10
120.76875026218239
20
-19.469901554907967
42
0.99999999999999989
10
113.76875026218241
20
-19.469901554907949
10
113.76875026218241
20
-22.868779526722506
42
0.014448976383923029
10
113.76875026218241
20
-23.071022973142256
10
113.76875026218241
20
-26.469900944956795
42
0.99999999999999989
0
CIRCLE
5
166
100
AcDbEntity
8
0
100
AcDbCircle
10
-16.482710843207876
20
-360.46990124993238
30
0
40
3.4250000000000114
0
CIRCLE
5
167
100
AcDbEntity
8
0
100
AcDbCircle
10
-16.482710843207876
20
-310.46990124993238
30
0
40
3.4250000000000114
0
CIRCLE
5
168
100
AcDbEntity
8
0
100
AcDbCircle
10
38.517289156792124
20
-360.46990124993238
30
0
40
3.4250000000000069
0
CIRCLE
5
169
100
AcDbEntity
8
0
100
AcDbCircle
10
38.517289156792124
20
-310.46990124993238
30
0
40
3.4250000000000069
0
ENDSEC
0
SECTION
2
OBJECTS
0
DICTIONARY
5
C
100
AcDbDictionary
3
ACAD_GROUP
350
D
3
ACAD_MLINESTYLE
350
17
0
DICTIONARY
5
D
100
AcDbDictionary
0
DICTIONARY
5
1A
330
C
100
AcDbDictionary
0
DICTIONARY
5
17
100
AcDbDictionary
0
ENDSEC
0
EOF
