0
SECTION
2
HEADER
9
$INSUNITS
70
4
9
$ACADVER
1
AC1014
9
$HANDSEED
5
FFFF
0
ENDSEC
0
SECTION
2
TABLES
0
TABLE
2
VPORT
5
8
100
AcDbSymbolTable
0
ENDTAB
0
TABLE
2
LTYPE
5
5
100
AcDbSymbolTable
0
LTYPE
5
14
100
AcDbSymbolTableRecord
100
AcDbLinetypeTableRecord
2
BYBLOCK
70
0
0
LTYPE
5
15
100
AcDbSymbolTableRecord
100
AcDbLinetypeTableRecord
2
BYLAYER
70
0
0
ENDTAB
0
TABLE
2
LAYER
5
2
100
AcDbSymbolTable
70
2
0
LAYER
5
50
100
AcDbSymbolTableRecord
100
AcDbLayerTableRecord
2
0
70
0
6
CONTINUOUS
0
ENDTAB
0
TABLE
2
STYLE
5
3
100
AcDbSymbolTable
70
1
0
STYLE
5
11
100
AcDbSymbolTableRecord
100
AcDbTextStyleTableRecord
2
STANDARD
70
0
0
ENDTAB
0
TABLE
2
VIEW
5
6
100
AcDbSymbolTable
70
0
0
ENDTAB
0
TABLE
2
UCS
5
7
100
AcDbSymbolTable
70
0
0
ENDTAB
0
TABLE
2
APPID
5
9
100
AcDbSymbolTable
70
2
0
APPID
5
12
100
AcDbSymbolTableRecord
100
AcDbRegAppTableRecord
2
ACAD
70
0
0
ENDTAB
0
TABLE
2
DIMSTYLE
5
A
100
AcDbSymbolTable
70
1
0
ENDTAB
0
TABLE
2
BLOCK_RECORD
5
1
100
AcDbSymbolTable
70
1
0
BLOCK_RECORD
5
1F
100
AcDbSymbolTableRecord
100
AcDbBlockTableRecord
2
*MODEL_SPACE
0
BLOCK_RECORD
5
1B
100
AcDbSymbolTableRecord
100
AcDbBlockTableRecord
2
*PAPER_SPACE
0
ENDTAB
0
ENDSEC
0
SECTION
2
BLOCKS
0
BLOCK
5
20
100
AcDbEntity
100
AcDbBlockBegin
2
*MODEL_SPACE
0
ENDBLK
5
21
100
AcDbEntity
100
AcDbBlockEnd
0
BLOCK
5
1C
100
AcDbEntity
100
AcDbBlockBegin
2
*PAPER_SPACE
0
ENDBLK
5
1D
100
AcDbEntity
100
AcDbBlockEnd
0
ENDSEC
0
SECTION
2
ENTITIES
0
CIRCLE
5
100
100
AcDbEntity
8
0
100
AcDbCircle
10
-157.26622885268296
20
31.820237457980205
30
0
40
3.499999999999996
0
CIRCLE
5
101
100
AcDbEntity
8
0
100
AcDbCircle
10
-157.26622885268299
20
-37.779762542019796
30
0
40
3.499999999999996
0
LWPOLYLINE
5
102
100
AcDbEntity
8
0
100
AcDbPolyline
90
22
70
1
43
0.0
10
-79.541228852683005
20
-40.904762542019753
42
-0.41421356237309453
10
-84.54122885268302
20
-45.904762542019753
10
-160.39122885268299
20
-45.904762542019746
42
-0.41421356237309453
10
-165.39122885268299
20
-40.904762542019753
10
-165.39122885268299
20
34.945237457980213
42
-0.41421356237309453
10
-160.39122885268299
20
39.945237457980213
10
-84.54122885268302
20
39.945237457980213
42
-0.41421356237309453
10
-79.541228852683005
20
34.945237457980213
10
-79.541228852682991
20
33.901344538576026
42
-0.34489336628383216
10
-81.821352767194611
20
30.98899524263949
42
-0.0094939868532692446
10
-83.636452185090235
20
30.576741217815481
42
-0.53491568012209689
10
-84.228955817589849
20
31.160575360977859
42
1.3783274026025654
10
-90.830775945049538
20
30.32503121796033
42
-0.53491568012213619
10
-91.25914389410201
20
29.611992816840555
42
-0.097256715346822745
10
-109.9474188430486
20
32.368920544379321
42
1.4150119790142852
10
-109.94741884304662
20
-38.328445628424411
42
-0.097256715346899628
10
-91.259143894102124
20
-35.571517900880167
42
-0.53491568012205715
10
-90.83077594504968
20
-36.28455630200019
42
1.378327402602431
10
-84.228955817589778
20
-37.120100445017755
42
-0.53491568012209345
10
-83.636452185090334
20
-36.536266301855413
42
-0.0094939868532772399
10
-81.821352767194725
20
-36.948520326679414
42
-0.34489336628383854
10
-79.541228852683005
20
-39.860869622615958
0
LWPOLYLINE
5
103
100
AcDbEntity
8
0
100
AcDbPolyline
90
22
70
1
43
0.0
10
-79.54122885268302
20
-40.904762542019753
42
-0.41421356237309503
10
-84.54122885268302
20
-45.904762542019753
10
-160.39122885268299
20
-45.904762542019753
42
-0.41421356237309503
10
-165.39122885268299
20
-40.904762542019753
10
-165.39122885268299
20
34.945237457980213
42
-0.41421356237309503
10
-160.39122885268299
20
39.945237457980213
10
-84.54122885268302
20
39.945237457980213
42
-0.41421356237309503
10
-79.54122885268302
20
34.945237457980213
10
-79.541228852683005
20
33.901344538576026
42
-0.34489336628383699
10
-81.821352767194611
20
30.988995242639511
42
-0.0094939868532729083
10
-83.636452185090235
20
30.576741217815506
42
-0.53491568012211865
10
-84.228955817589821
20
31.160575360977852
42
1.3783274026025629
10
-90.83077594504951
20
30.32503121796033
42
-0.53491568012211521
10
-91.259143894101896
20
29.611992816837574
42
-0.09725671534685805
10
-109.94741884304867
20
32.368920544379037
42
1.4150119790142861
10
-109.9474188430486
20
-38.32844562841882
42
-0.097256715346818026
10
-91.259143894102138
20
-35.571517900880153
42
-0.53491568012208457
10
-90.830775945049652
20
-36.28455630200019
42
1.3783274026024355
10
-84.228955817589792
20
-37.120100445017748
42
-0.53491568012208945
10
-83.63645218509042
20
-36.536266301855406
42
-0.0094939868532692446
10
-81.821352767194725
20
-36.948520326679414
42
-0.3448933662838341
10
-79.541228852683005
20
-39.860869622615965
0
CIRCLE
5
104
100
AcDbEntity
8
0
100
AcDbCircle
10
-157.26622885268299
20
-37.779762542019796
30
0
40
3.4999999999999964
0
CIRCLE
5
105
100
AcDbEntity
8
0
100
AcDbCircle
10
-157.26622885268296
20
31.820237457980205
30
0
40
3.4999999999999964
0
ENDSEC
0
SECTION
2
OBJECTS
0
DICTIONARY
5
C
100
AcDbDictionary
3
ACAD_GROUP
350
D
3
ACAD_MLINESTYLE
350
17
0
DICTIONARY
5
D
100
AcDbDictionary
0
DICTIONARY
5
1A
330
C
100
AcDbDictionary
0
DICTIONARY
5
17
100
AcDbDictionary
0
ENDSEC
0
EOF
