0
SECTION
2
HEADER
9
$INSUNITS
70
4
9
$ACADVER
1
AC1014
9
$HANDSEED
5
FFFF
0
ENDSEC
0
SECTION
2
TABLES
0
TABLE
2
VPORT
5
8
100
AcDbSymbolTable
0
ENDTAB
0
TABLE
2
LTYPE
5
5
100
AcDbSymbolTable
0
LTYPE
5
14
100
AcDbSymbolTableRecord
100
AcDbLinetypeTableRecord
2
BYBLOCK
70
0
0
LTYPE
5
15
100
AcDbSymbolTableRecord
100
AcDbLinetypeTableRecord
2
BYLAYER
70
0
0
ENDTAB
0
TABLE
2
LAYER
5
2
100
AcDbSymbolTable
70
2
0
LAYER
5
50
100
AcDbSymbolTableRecord
100
AcDbLayerTableRecord
2
0
70
0
6
CONTINUOUS
0
ENDTAB
0
TABLE
2
STYLE
5
3
100
AcDbSymbolTable
70
1
0
STYLE
5
11
100
AcDbSymbolTableRecord
100
AcDbTextStyleTableRecord
2
STANDARD
70
0
0
ENDTAB
0
TABLE
2
VIEW
5
6
100
AcDbSymbolTable
70
0
0
ENDTAB
0
TABLE
2
UCS
5
7
100
AcDbSymbolTable
70
0
0
ENDTAB
0
TABLE
2
APPID
5
9
100
AcDbSymbolTable
70
2
0
APPID
5
12
100
AcDbSymbolTableRecord
100
AcDbRegAppTableRecord
2
ACAD
70
0
0
ENDTAB
0
TABLE
2
DIMSTYLE
5
A
100
AcDbSymbolTable
70
1
0
ENDTAB
0
TABLE
2
BLOCK_RECORD
5
1
100
AcDbSymbolTable
70
1
0
BLOCK_RECORD
5
1F
100
AcDbSymbolTableRecord
100
AcDbBlockTableRecord
2
*MODEL_SPACE
0
BLOCK_RECORD
5
1B
100
AcDbSymbolTableRecord
100
AcDbBlockTableRecord
2
*PAPER_SPACE
0
ENDTAB
0
ENDSEC
0
SECTION
2
BLOCKS
0
BLOCK
5
20
100
AcDbEntity
100
AcDbBlockBegin
2
*MODEL_SPACE
0
ENDBLK
5
21
100
AcDbEntity
100
AcDbBlockEnd
0
BLOCK
5
1C
100
AcDbEntity
100
AcDbBlockBegin
2
*PAPER_SPACE
0
ENDBLK
5
1D
100
AcDbEntity
100
AcDbBlockEnd
0
ENDSEC
0
SECTION
2
ENTITIES
0
LWPOLYLINE
5
100
100
AcDbEntity
8
0
100
AcDbPolyline
90
4
70
1
43
0.0
10
23.797037839418593
20
-96.999999999999858
10
23.797037839418632
20
-111.99999999999986
42
0.99999999999999989
10
32.297037839418628
20
-111.99999999999983
10
32.297037839418586
20
-96.999999999999829
42
0.99999999999999989
0
LWPOLYLINE
5
101
100
AcDbEntity
8
0
100
AcDbPolyline
90
4
70
1
43
0.0
10
-31.202962160581428
20
-97.000000000000014
42
-0.99999999999999989
10
-22.702962160581414
20
-96.999999999999972
10
-22.702962160581354
20
-111.99999999999997
42
-0.99999999999999989
10
-31.202962160581368
20
-112.00000000000001
0
LWPOLYLINE
5
102
100
AcDbEntity
8
0
100
AcDbPolyline
90
4
70
1
43
0.0
10
23.797037839418458
20
-46.999999999999858
10
23.797037839418497
20
-61.999999999999858
42
0.99999999999999989
10
32.297037839418493
20
-61.999999999999829
10
32.297037839418451
20
-46.999999999999844
42
0.99999999999999989
0
LWPOLYLINE
5
103
100
AcDbEntity
8
0
100
AcDbPolyline
90
4
70
1
43
0.0
10
-31.202962160581542
20
-47
10
-31.202962160581503
20
-62
42
0.99999999999999989
10
-22.702962160581507
20
-61.999999999999986
10
-22.702962160581546
20
-46.999999999999986
42
0.99999999999999989
0
LWPOLYLINE
5
104
100
AcDbEntity
8
0
100
AcDbPolyline
90
4
70
1
43
0.0
10
29.626126320009259
20
31.25143829899357
42
-0.99999999999999989
10
29.626126320009259
20
38.25143829899357
10
40.626126320009263
20
38.25143829899357
42
-0.99999999999999989
10
40.626126320009263
20
31.25143829899357
0
LWPOLYLINE
5
105
100
AcDbEntity
8
0
100
AcDbPolyline
90
4
70
1
43
0.0
10
-28.973873679990739
20
38.25143829899357
42
-0.99999999999999989
10
-28.973873679990739
20
31.25143829899357
10
-39.973873679990739
20
31.25143829899357
42
-0.99999999999999989
10
-39.973873679990739
20
38.25143829899357
0
CIRCLE
5
106
100
AcDbEntity
8
0
100
AcDbCircle
10
94.300377256354153
20
6.5475402877268582e-14
30
0
40
25
0
CIRCLE
5
107
100
AcDbEntity
8
0
100
AcDbCircle
10
117.3003772563541
20
22.999999999999957
30
0
40
2.9999999999999893
0
CIRCLE
5
108
100
AcDbEntity
8
0
100
AcDbCircle
10
71.30037725635421
20
22.999999999999932
30
0
40
2.9999999999999893
0
CIRCLE
5
109
100
AcDbEntity
8
0
100
AcDbCircle
10
71.30037725635421
20
-22.999999999999851
30
0
40
2.9999999999999893
0
CIRCLE
5
110
100
AcDbEntity
8
0
100
AcDbCircle
10
117.3003772563541
20
-22.999999999999826
30
0
40
2.9999999999999893
0
LWPOLYLINE
5
111
100
AcDbEntity
8
0
100
AcDbPolyline
90
12
70
1
43
0.0
10
-54.452962160581691
20
44.999999999999943
42
-0.41421356237309348
10
-49.452962160581713
20
49.999999999999936
10
125.54703783941829
20
50.000000000000398
42
-0.41421356237309764
10
130.54703783941829
20
45.000000000000412
10
130.54703783941829
20
-24.999999999999929
42
-0.41421356237309348
10
125.54703783941831
20
-29.999999999999932
10
60.547037839418472
20
-29.999999999999936
42
0.41421356237309553
10
55.547037839418472
20
-34.999999999999943
10
55.547037839418635
20
-114.99999999999979
42
-0.41421356237309503
10
50.547037839418635
20
-119.99999999999979
10
-49.452962160581684
20
-120.00000000000007
42
-0.41421356237309814
10
-54.452962160581691
20
-115.00000000000006
0
LWPOLYLINE
5
112
100
AcDbEntity
8
0
100
AcDbPolyline
90
4
70
1
43
0.0
10
-39.973873679990675
20
-38.250000000000213
10
-28.973873679990664
20
-38.250000000000234
42
0.99999999999999989
10
-28.973873679990646
20
-31.250000000000245
10
-39.973873679990646
20
-31.250000000000185
42
0.99999999999999989
0
LWPOLYLINE
5
113
100
AcDbEntity
8
0
100
AcDbPolyline
90
4
70
1
43
0.0
10
29.573229747867877
20
-38.250000000000014
10
40.573229747867884
20
-38.249999999999993
42
0.99999999999999989
10
40.573229747867863
20
-31.249999999999993
10
29.573229747867863
20
-31.250000000000007
42
0.99999999999999989
0
LWPOLYLINE
5
114
100
AcDbEntity
8
0
100
AcDbPolyline
90
12
70
1
43
0.0
10
-54.452962160581691
20
44.999999999999943
42
-0.41421356237309348
10
-49.452962160581713
20
49.999999999999936
10
125.54703783941829
20
50.000000000000412
42
-0.41421356237309609
10
130.54703783941829
20
45.000000000000412
10
130.54703783941829
20
-24.999999999999929
42
-0.41421356237309503
10
125.54703783941831
20
-29.999999999999929
10
60.547037839418472
20
-29.999999999999936
42
0.41421356237309609
10
55.547037839418479
20
-34.999999999999943
10
55.547037839418635
20
-114.99999999999977
42
-0.41421356237309609
10
50.547037839418635
20
-119.99999999999979
10
-49.452962160581691
20
-119.99999999999974
42
-0.41421356237309503
10
-54.452962160581379
20
-115.00000000000007
0
LWPOLYLINE
5
115
100
AcDbEntity
8
0
100
AcDbPolyline
90
4
70
1
43
0.0
10
40.573229747867884
20
-38.249999999999986
10
29.573229747867874
20
-38.250000000000014
42
-0.99999999999999989
10
29.573229747867863
20
-31.250000000000007
10
40.573229747867863
20
-31.249999999999996
42
-0.99999999999999989
0
LWPOLYLINE
5
116
100
AcDbEntity
8
0
100
AcDbPolyline
90
4
70
1
43
0.0
10
-28.973873679990664
20
-38.250000000000249
10
-39.97387367999066
20
-38.250000000000213
42
-0.99999999999999989
10
-39.973873679990646
20
-31.250000000000185
10
-28.973873679990646
20
-31.250000000000234
42
-0.99999999999999989
0
LWPOLYLINE
5
117
100
AcDbEntity
8
0
100
AcDbPolyline
90
4
70
1
43
0.0
10
23.797037839418593
20
-96.999999999999872
42
-0.99999999999999989
10
32.297037839418586
20
-96.999999999999829
10
32.297037839418628
20
-111.99999999999983
42
-0.99999999999999989
10
23.797037839418632
20
-111.99999999999987
0
LWPOLYLINE
5
118
100
AcDbEntity
8
0
100
AcDbPolyline
90
4
70
1
43
0.0
10
-22.702962160581414
20
-96.999999999999972
10
-22.702962160581372
20
-111.99999999999997
42
-0.99999999999999989
10
-31.202962160581368
20
-112.00000000000001
10
-31.202962160581407
20
-97.000000000000014
42
-0.99999999999999989
0
LWPOLYLINE
5
119
100
AcDbEntity
8
0
100
AcDbPolyline
90
4
70
1
43
0.0
10
23.797037839418458
20
-46.999999999999858
42
-0.99999999999999989
10
32.297037839418451
20
-46.999999999999844
10
32.297037839418493
20
-61.999999999999844
42
-0.99999999999999989
10
23.797037839418497
20
-61.999999999999858
0
LWPOLYLINE
5
120
100
AcDbEntity
8
0
100
AcDbPolyline
90
4
70
1
43
0.0
10
-31.202962160581542
20
-47
42
-0.99999999999999989
10
-22.702962160581546
20
-46.999999999999986
10
-22.702962160581507
20
-61.999999999999986
42
-0.99999999999999989
10
-31.202962160581503
20
-62
0
CIRCLE
5
121
100
AcDbEntity
8
0
100
AcDbCircle
10
117.3003772563541
20
-22.999999999999826
30
0
40
2.9999999999999893
0
CIRCLE
5
122
100
AcDbEntity
8
0
100
AcDbCircle
10
71.30037725635421
20
-22.999999999999851
30
0
40
2.9999999999999893
0
CIRCLE
5
123
100
AcDbEntity
8
0
100
AcDbCircle
10
71.30037725635421
20
22.999999999999932
30
0
40
2.9999999999999893
0
CIRCLE
5
124
100
AcDbEntity
8
0
100
AcDbCircle
10
117.3003772563541
20
22.999999999999957
30
0
40
2.9999999999999893
0
CIRCLE
5
125
100
AcDbEntity
8
0
100
AcDbCircle
10
94.300377256354153
20
6.5475402877268582e-14
30
0
40
25
0
LWPOLYLINE
5
126
100
AcDbEntity
8
0
100
AcDbPolyline
90
4
70
1
43
0.0
10
-28.973873679990739
20
31.25143829899357
10
-39.973873679990739
20
31.25143829899357
42
-0.99999999999999989
10
-39.973873679990739
20
38.25143829899357
10
-28.973873679990739
20
38.25143829899357
42
-0.99999999999999989
0
LWPOLYLINE
5
127
100
AcDbEntity
8
0
100
AcDbPolyline
90
4
70
1
43
0.0
10
29.626126320009259
20
38.25143829899357
10
40.626126320009263
20
38.25143829899357
42
-0.99999999999999989
10
40.626126320009263
20
31.25143829899357
10
29.626126320009259
20
31.25143829899357
42
-0.99999999999999989
0
ENDSEC
0
SECTION
2
OBJECTS
0
DICTIONARY
5
C
100
AcDbDictionary
3
ACAD_GROUP
350
D
3
ACAD_MLINESTYLE
350
17
0
DICTIONARY
5
D
100
AcDbDictionary
0
DICTIONARY
5
1A
330
C
100
AcDbDictionary
0
DICTIONARY
5
17
100
AcDbDictionary
0
ENDSEC
0
EOF
