                                                                        S      1
,,15HSPİNDLE FLANSI,15HSPİNDLE FLANSI,7Hunknown,7Hunknown,32,38,7,99, G      1
15,,1.,2,2HMM,1,0.08,15H20181125.005522,0.01,10000.,9Hlimitness,7HunknowG      2
n,11,0,15H20180906.124303;                                              G      3
     186       1                                                00000000D      1
     186            -455       1       0                               0D      2
     514       2                                                00010000D      3
     514                       3       1                               0D      4
     510       5                                                00010000D      5
     510            -455       1       1                               0D      6
     510       6                                                00010000D      7
     510            -455       1       1                               0D      8
     510       7                                                00010000D      9
     510            -455       1       1                               0D     10
     510       8                                                00010000D     11
     510            -455       1       1                               0D     12
     510       9                                                00010000D     13
     510            -455       1       1                               0D     14
     510      10                                                00010000D     15
     510            -455       1       1                               0D     16
     510      11                                                00010000D     17
     510            -455       1       1                               0D     18
     510      12                                                00010000D     19
     510            -455       1       1                               0D     20
     510      13                                                00010000D     21
     510            -455       1       1                               0D     22
     510      14                                                00010000D     23
     510            -455       1       1                               0D     24
     510      15                                                00010000D     25
     510            -455       1       1                               0D     26
     510      16                                                00010000D     27
     510            -455       1       1                               0D     28
     510      17                                                00010000D     29
     510            -455       1       1                               0D     30
     510      18                                                00010000D     31
     510            -455       1       1                               0D     32
     510      19                                                00010000D     33
     510            -455       1       1                               0D     34
     510      20                                                00010000D     35
     510            -455       1       1                               0D     36
     510      21                                                00010000D     37
     510            -455       1       1                               0D     38
     510      22                                                00010000D     39
     510            -455       1       1                               0D     40
     510      23                                                00010000D     41
     510            -455       1       1                               0D     42
     510      24                                                00010000D     43
     510            -455       1       1                               0D     44
     510      25                                                00010000D     45
     510            -455       1       1                               0D     46
     510      26                                                00010000D     47
     510            -455       1       1                               0D     48
     510      27                                                00010000D     49
     510            -455       1       1                               0D     50
     510      28                                                00010000D     51
     510            -455       1       1                               0D     52
     510      29                                                00010000D     53
     510            -455       1       1                               0D     54
     510      30                                                00010000D     55
     510            -455       1       1                               0D     56
     510      31                                                00010000D     57
     510            -455       1       1                               0D     58
     510      32                                                00010000D     59
     510            -455       1       1                               0D     60
     510      33                                                00010000D     61
     510            -455       1       1                               0D     62
     510      34                                                00010000D     63
     510            -455       1       1                               0D     64
     510      35                                                00010000D     65
     510            -455       1       1                               0D     66
     510      36                                                00010000D     67
     510            -455       1       1                               0D     68
     510      37                                                00010000D     69
     510            -455       2       1                               0D     70
     510      39                                                00010000D     71
     510            -455       2       1                               0D     72
     508      41                                                00010000D     73
     508                       1       1                               0D     74
     508      42                                                00010000D     75
     508                       1       1                               0D     76
     508      43                                                00010000D     77
     508                       1       1                               0D     78
     508      44                                                00010000D     79
     508                       1       1                               0D     80
     508      45                                                00010000D     81
     508                       1       1                               0D     82
     508      46                                                00010000D     83
     508                       1       1                               0D     84
     508      47                                                00010000D     85
     508                       1       1                               0D     86
     508      48                                                00010000D     87
     508                       1       1                               0D     88
     508      49                                                00010000D     89
     508                       1       1                               0D     90
     508      50                                                00010000D     91
     508                       1       1                               0D     92
     508      51                                                00010000D     93
     508                       1       1                               0D     94
     508      52                                                00010000D     95
     508                       1       1                               0D     96
     508      53                                                00010000D     97
     508                       1       1                               0D     98
     508      54                                                00010000D     99
     508                       1       1                               0D    100
     508      55                                                00010000D    101
     508                       1       1                               0D    102
     508      56                                                00010000D    103
     508                       1       1                               0D    104
     508      57                                                00010000D    105
     508                       1       1                               0D    106
     508      58                                                00010000D    107
     508                       1       1                               0D    108
     508      59                                                00010000D    109
     508                       1       1                               0D    110
     508      60                                                00010000D    111
     508                       1       1                               0D    112
     508      61                                                00010000D    113
     508                       1       1                               0D    114
     508      62                                                00010000D    115
     508                       1       1                               0D    116
     508      63                                                00010000D    117
     508                       1       1                               0D    118
     508      64                                                00010000D    119
     508                       1       1                               0D    120
     508      65                                                00010000D    121
     508                       1       1                               0D    122
     508      66                                                00010000D    123
     508                       1       1                               0D    124
     508      67                                                00010000D    125
     508                       1       1                               0D    126
     508      68                                                00010000D    127
     508                       1       1                               0D    128
     508      69                                                00010000D    129
     508                       1       1                               0D    130
     508      70                                                00010000D    131
     508                       1       1                               0D    132
     508      71                                                00010000D    133
     508                       1       1                               0D    134
     508      72                                                00010000D    135
     508                       1       1                               0D    136
     508      73                                                00010000D    137
     508                       2       1                               0D    138
     508      75                                                00010000D    139
     508                       1       1                               0D    140
     508      76                                                00010000D    141
     508                       1       1                               0D    142
     508      77                                                00010000D    143
     508                       1       1                               0D    144
     508      78                                                00010000D    145
     508                       1       1                               0D    146
     508      79                                                00010000D    147
     508                       1       1                               0D    148
     508      80                                                00010000D    149
     508                       1       1                               0D    150
     508      81                                                00010000D    151
     508                       1       1                               0D    152
     508      82                                                00010000D    153
     508                       1       1                               0D    154
     508      83                                                00010000D    155
     508                       1       1                               0D    156
     508      84                                                00010000D    157
     508                       1       1                               0D    158
     508      85                                                00010000D    159
     508                       1       1                               0D    160
     508      86                                                00010000D    161
     508                       1       1                               0D    162
     508      87                                                00010000D    163
     508                       2       1                               0D    164
     508      89                                                00010000D    165
     508                       1       1                               0D    166
     508      90                                                00010000D    167
     508                       1       1                               0D    168
     508      91                                                00010000D    169
     508                       1       1                               0D    170
     508      92                                                00010000D    171
     508                       1       1                               0D    172
     508      93                                                00010000D    173
     508                       1       1                               0D    174
     508      94                                                00010000D    175
     508                       1       1                               0D    176
     508      95                                                00010000D    177
     508                       1       1                               0D    178
     508      96                                                00010000D    179
     508                       1       1                               0D    180
     508      97                                                00010000D    181
     508                       1       1                               0D    182
     508      98                                                00010000D    183
     508                       1       1                               0D    184
     508      99                                                00010000D    185
     508                       1       1                               0D    186
     508     100                                                00010000D    187
     508                       1       1                               0D    188
     126     101                                                00010000D    189
     126       0               8       0                               0D    190
     126     109                                                00010000D    191
     126       0               2       0                               0D    192
     126     111                                                00010000D    193
     126       0               8       0                               0D    194
     126     119                                                00010000D    195
     126       0               3       0                               0D    196
     126     122                                                00010000D    197
     126       0               2       0                               0D    198
     126     124                                                00010000D    199
     126       0               3       0                               0D    200
     126     127                                                00010000D    201
     126       0               2       0                               0D    202
     126     129                                                00010000D    203
     126       0               5       0                               0D    204
     126     134                                                00010000D    205
     126       0               5       0                               0D    206
     126     139                                                00010000D    207
     126       0               2       0                               0D    208
     126     141                                                00010000D    209
     126       0               2       0                               0D    210
     126     143                                                00010000D    211
     126       0               2       0                               0D    212
     126     145                                                00010000D    213
     126       0               2       0                               0D    214
     126     147                                                00010000D    215
     126       0               5       0                               0D    216
     126     152                                                00010000D    217
     126       0               5       0                               0D    218
     126     157                                                00010000D    219
     126       0               3       0                               0D    220
     126     160                                                00010000D    221
     126       0               2       0                               0D    222
     126     162                                                00010000D    223
     126       0               3       0                               0D    224
     126     165                                                00010000D    225
     126       0               2       0                               0D    226
     126     167                                                00010000D    227
     126       0               5       0                               0D    228
     126     172                                                00010000D    229
     126       0               5       0                               0D    230
     126     177                                                00010000D    231
     126       0               2       0                               0D    232
     126     179                                                00010000D    233
     126       0               2       0                               0D    234
     126     181                                                00010000D    235
     126       0               2       0                               0D    236
     126     183                                                00010000D    237
     126       0               2       0                               0D    238
     126     185                                                00010000D    239
     126       0               5       0                               0D    240
     126     190                                                00010000D    241
     126       0               5       0                               0D    242
     126     195                                                00010000D    243
     126       0               8       0                               0D    244
     126     203                                                00010000D    245
     126       0               2       0                               0D    246
     126     205                                                00010000D    247
     126       0               8       0                               0D    248
     126     213                                                00010000D    249
     126       0               8       0                               0D    250
     126     221                                                00010000D    251
     126       0               2       0                               0D    252
     126     223                                                00010000D    253
     126       0               8       0                               0D    254
     126     231                                                00010000D    255
     126       0               3       0                               0D    256
     126     234                                                00010000D    257
     126       0               2       0                               0D    258
     126     236                                                00010000D    259
     126       0               3       0                               0D    260
     126     239                                                00010000D    261
     126       0               2       0                               0D    262
     126     241                                                00010000D    263
     126       0               5       0                               0D    264
     126     246                                                00010000D    265
     126       0               5       0                               0D    266
     126     251                                                00010000D    267
     126       0               2       0                               0D    268
     126     253                                                00010000D    269
     126       0               2       0                               0D    270
     126     255                                                00010000D    271
     126       0               2       0                               0D    272
     126     257                                                00010000D    273
     126       0               2       0                               0D    274
     126     259                                                00010000D    275
     126       0               5       0                               0D    276
     126     264                                                00010000D    277
     126       0               5       0                               0D    278
     126     269                                                00010000D    279
     126       0               8       0                               0D    280
     126     277                                                00010000D    281
     126       0               2       0                               0D    282
     126     279                                                00010000D    283
     126       0               8       0                               0D    284
     126     287                                                00010000D    285
     126       0               8       0                               0D    286
     126     295                                                00010000D    287
     126       0               2       0                               0D    288
     126     297                                                00010000D    289
     126       0               8       0                               0D    290
     126     305                                                00010000D    291
     126       0               8       0                               0D    292
     126     313                                                00010000D    293
     126       0               2       0                               0D    294
     126     315                                                00010000D    295
     126       0               8       0                               0D    296
     126     323                                                00010000D    297
     126       0               8       0                               0D    298
     126     331                                                00010000D    299
     126       0               2       0                               0D    300
     126     333                                                00010000D    301
     126       0               8       0                               0D    302
     126     341                                                00010000D    303
     126       0               8       0                               0D    304
     126     349                                                00010000D    305
     126       0               2       0                               0D    306
     126     351                                                00010000D    307
     126       0               8       0                               0D    308
     126     359                                                00010000D    309
     126       0               3       0                               0D    310
     126     362                                                00010000D    311
     126       0               2       0                               0D    312
     126     364                                                00010000D    313
     126       0               3       0                               0D    314
     126     367                                                00010000D    315
     126       0               2       0                               0D    316
     126     369                                                00010000D    317
     126       0               5       0                               0D    318
     126     374                                                00010000D    319
     126       0               5       0                               0D    320
     126     379                                                00010000D    321
     126       0               2       0                               0D    322
     126     381                                                00010000D    323
     126       0               2       0                               0D    324
     126     383                                                00010000D    325
     126       0               2       0                               0D    326
     126     385                                                00010000D    327
     126       0               2       0                               0D    328
     126     387                                                00010000D    329
     126       0               5       0                               0D    330
     126     392                                                00010000D    331
     126       0               5       0                               0D    332
     126     397                                                00010000D    333
     126       0               2       0                               0D    334
     126     399                                                00010000D    335
     126       0               2       0                               0D    336
     126     401                                                00010000D    337
     126       0               2       0                               0D    338
     126     403                                                00010000D    339
     126       0               2       0                               0D    340
     126     405                                                00010000D    341
     126       0               3       0                               0D    342
     126     408                                                00010000D    343
     126       0               3       0                               0D    344
     126     411                                                00010000D    345
     126       0               2       0                               0D    346
     126     413                                                00010000D    347
     126       0               2       0                               0D    348
     126     415                                                00010000D    349
     126       0               2       0                               0D    350
     126     417                                                00010000D    351
     126       0               2       0                               0D    352
     126     419                                                00010000D    353
     126       0               3       0                               0D    354
     126     422                                                00010000D    355
     126       0               3       0                               0D    356
     126     425                                                00010000D    357
     126       0               2       0                               0D    358
     126     427                                                00010000D    359
     126       0               2       0                               0D    360
     126     429                                                00010000D    361
     126       0               2       0                               0D    362
     126     431                                                00010000D    363
     126       0               2       0                               0D    364
     126     433                                                00010000D    365
     126       0               3       0                               0D    366
     126     436                                                00010000D    367
     126       0               3       0                               0D    368
     126     439                                                00010000D    369
     126       0               2       0                               0D    370
     126     441                                                00010000D    371
     126       0               2       0                               0D    372
     126     443                                                00010000D    373
     126       0               2       0                               0D    374
     126     445                                                00010000D    375
     126       0               2       0                               0D    376
     126     447                                                00010000D    377
     126       0               3       0                               0D    378
     126     450                                                00010000D    379
     126       0               3       0                               0D    380
     128     453                                                00010000D    381
     128       0    -455      13       0                               0D    382
     128     466                                                00010000D    383
     128       0    -455       3       0                               0D    384
     128     469                                                00010000D    385
     128       0    -455       8       0                               0D    386
     128     477                                                00010000D    387
     128       0    -455       3       0                               0D    388
     128     480                                                00010000D    389
     128       0    -455       8       0                               0D    390
     128     488                                                00010000D    391
     128       0    -455       3       0                               0D    392
     128     491                                                00010000D    393
     128       0    -455       8       0                               0D    394
     128     499                                                00010000D    395
     128       0    -455       3       0                               0D    396
     128     502                                                00010000D    397
     128       0    -455       8       0                               0D    398
     128     510                                                00010000D    399
     128       0    -455      13       0                               0D    400
     128     523                                                00010000D    401
     128       0    -455      12       0                               0D    402
     128     535                                                00010000D    403
     128       0    -455       3       0                               0D    404
     128     538                                                00010000D    405
     128       0    -455       7       0                               0D    406
     128     545                                                00010000D    407
     128       0    -455       3       0                               0D    408
     128     548                                                00010000D    409
     128       0    -455       7       0                               0D    410
     128     555                                                00010000D    411
     128       0    -455      12       0                               0D    412
     128     567                                                00010000D    413
     128       0    -455      13       0                               0D    414
     128     580                                                00010000D    415
     128       0    -455      13       0                               0D    416
     128     593                                                00010000D    417
     128       0    -455      13       0                               0D    418
     128     606                                                00010000D    419
     128       0    -455      13       0                               0D    420
     128     619                                                00010000D    421
     128       0    -455       3       0                               0D    422
     128     622                                                00010000D    423
     128       0    -455       8       0                               0D    424
     128     630                                                00010000D    425
     128       0    -455       3       0                               0D    426
     128     633                                                00010000D    427
     128       0    -455       8       0                               0D    428
     128     641                                                00010000D    429
     128       0    -455       4       0                               0D    430
     128     645                                                00010000D    431
     128       0    -455       4       0                               0D    432
     128     649                                                00010000D    433
     128       0    -455       4       0                               0D    434
     128     653                                                00010000D    435
     128       0    -455       5       0                               0D    436
     128     658                                                00010000D    437
     128       0    -455       3       0                               0D    438
     128     661                                                00010000D    439
     128       0    -455       5       0                               0D    440
     128     666                                                00010000D    441
     128       0    -455       3       0                               0D    442
     128     669                                                00010000D    443
     128       0    -455       4       0                               0D    444
     128     673                                                00010000D    445
     128       0    -455       3       0                               0D    446
     128     676                                                00010000D    447
     128       0    -455       3       0                               0D    448
     502     679                                                00010000D    449
     502                      15       1                               0D    450
     504     694                                                00010001D    451
     504                      28       1                               0D    452
     406     722                                                00000000D    453
     406                       1      15                               0D    454
     314     723                                                00000200D    455
     314                       2       0                               0D    456
186,3,1,0,0,1,453;                                                     1P      1
514,34,5,1,7,1,9,1,11,1,13,1,15,1,17,1,19,1,21,1,23,1,25,1,27,1,       3P      2
29,1,31,1,33,1,35,1,37,1,39,1,41,1,43,1,45,1,47,1,49,1,51,1,53,        3P      3
1,55,1,57,1,59,1,61,1,63,1,65,1,67,1,69,1,71,1;                        3P      4
510,381,1,1,73;                                                        5P      5
510,383,1,1,75;                                                        7P      6
510,385,1,1,77;                                                        9P      7
510,387,1,1,79;                                                       11P      8
510,389,1,1,81;                                                       13P      9
510,391,1,1,83;                                                       15P     10
510,393,1,1,85;                                                       17P     11
510,395,1,1,87;                                                       19P     12
510,397,1,1,89;                                                       21P     13
510,399,1,1,91;                                                       23P     14
510,401,1,1,93;                                                       25P     15
510,403,1,1,95;                                                       27P     16
510,405,1,1,97;                                                       29P     17
510,407,1,1,99;                                                       31P     18
510,409,1,1,101;                                                      33P     19
510,411,1,1,103;                                                      35P     20
510,413,1,1,105;                                                      37P     21
510,415,1,1,107;                                                      39P     22
510,417,1,1,109;                                                      41P     23
510,419,1,1,111;                                                      43P     24
510,421,1,1,113;                                                      45P     25
510,423,1,1,115;                                                      47P     26
510,425,1,1,117;                                                      49P     27
510,427,1,1,119;                                                      51P     28
510,429,1,1,121;                                                      53P     29
510,431,1,1,123;                                                      55P     30
510,433,1,1,125;                                                      57P     31
510,435,1,1,127;                                                      59P     32
510,437,1,1,129;                                                      61P     33
510,439,1,1,131;                                                      63P     34
510,441,1,1,133;                                                      65P     35
510,443,1,1,135;                                                      67P     36
510,445,13,1,137,139,141,143,145,147,149,151,153,155,157,159,         69P     37
161;                                                                  69P     38
510,447,13,1,163,165,167,169,171,173,175,177,179,181,183,185,         71P     39
187;                                                                  71P     40
508,4,0,451,1,0,0,0,451,2,1,0,0,451,3,1,0,0,451,2,0,0;                73P     41
508,4,0,451,4,1,0,0,451,5,1,0,0,451,6,0,0,0,451,7,0,0;                75P     42
508,4,0,451,8,1,0,0,451,7,1,0,0,451,9,0,0,0,451,10,0,0;               77P     43
508,4,0,451,11,1,0,0,451,10,1,0,0,451,12,0,0,0,451,13,0,0;            79P     44
508,4,0,451,14,1,0,0,451,13,1,0,0,451,15,0,0,0,451,5,0,0;             81P     45
508,4,0,451,16,1,0,0,451,17,1,0,0,451,18,0,0,0,451,19,0,0;            83P     46
508,4,0,451,20,1,0,0,451,19,1,0,0,451,21,0,0,0,451,22,0,0;            85P     47
508,4,0,451,23,1,0,0,451,22,1,0,0,451,24,0,0,0,451,25,0,0;            87P     48
508,4,0,451,26,1,0,0,451,25,1,0,0,451,27,0,0,0,451,17,0,0;            89P     49
508,4,0,451,28,0,0,0,451,29,1,0,0,451,30,1,0,0,451,29,0,0;            91P     50
508,4,0,451,31,0,0,0,451,32,1,0,0,451,33,1,0,0,451,32,0,0;            93P     51
508,4,0,451,34,1,0,0,451,35,1,0,0,451,36,0,0,0,451,37,0,0;            95P     52
508,4,0,451,38,1,0,0,451,37,1,0,0,451,39,0,0,0,451,40,0,0;            97P     53
508,4,0,451,41,1,0,0,451,40,1,0,0,451,42,0,0,0,451,43,0,0;            99P     54
508,4,0,451,44,1,0,0,451,43,1,0,0,451,45,0,0,0,451,35,0,0;           101P     55
508,4,0,451,46,0,0,0,451,47,1,0,0,451,48,1,0,0,451,47,0,0;           103P     56
508,4,0,451,49,0,0,0,451,50,1,0,0,451,51,1,0,0,451,50,0,0;           105P     57
508,4,0,451,52,0,0,0,451,53,1,0,0,451,54,1,0,0,451,53,0,0;           107P     58
508,4,0,451,55,0,0,0,451,56,1,0,0,451,57,1,0,0,451,56,0,0;           109P     59
508,4,0,451,58,0,0,0,451,59,1,0,0,451,60,1,0,0,451,59,0,0;           111P     60
508,4,0,451,61,1,0,0,451,62,1,0,0,451,63,0,0,0,451,64,0,0;           113P     61
508,4,0,451,65,1,0,0,451,64,1,0,0,451,66,0,0,0,451,67,0,0;           115P     62
508,4,0,451,68,1,0,0,451,67,1,0,0,451,69,0,0,0,451,70,0,0;           117P     63
508,4,0,451,71,1,0,0,451,70,1,0,0,451,72,0,0,0,451,62,0,0;           119P     64
508,4,0,451,73,0,0,0,451,74,1,0,0,451,75,0,0,0,451,76,0,0;           121P     65
508,4,0,451,77,1,0,0,451,76,1,0,0,451,78,0,0,0,451,79,0,0;           123P     66
508,4,0,451,80,0,0,0,451,79,1,0,0,451,81,0,0,0,451,82,0,0;           125P     67
508,4,0,451,83,1,0,0,451,82,1,0,0,451,84,0,0,0,451,85,0,0;           127P     68
508,4,0,451,86,0,0,0,451,85,1,0,0,451,87,0,0,0,451,88,0,0;           129P     69
508,4,0,451,89,1,0,0,451,88,1,0,0,451,90,0,0,0,451,91,0,0;           131P     70
508,4,0,451,92,0,0,0,451,91,1,0,0,451,93,0,0,0,451,94,0,0;           133P     71
508,4,0,451,95,1,0,0,451,94,1,0,0,451,96,0,0,0,451,74,0,0;           135P     72
508,8,0,451,96,1,0,0,451,93,1,0,0,451,90,1,0,0,451,87,1,0,0,451,     137P     73
84,1,0,0,451,81,1,0,0,451,78,1,0,0,451,75,1,0;                       137P     74
508,4,0,451,72,1,0,0,451,69,1,0,0,451,66,1,0,0,451,63,1,0;           139P     75
508,1,0,451,58,1,0;                                                  141P     76
508,1,0,451,55,1,0;                                                  143P     77
508,1,0,451,52,1,0;                                                  145P     78
508,1,0,451,49,1,0;                                                  147P     79
508,1,0,451,46,1,0;                                                  149P     80
508,4,0,451,45,1,0,0,451,42,1,0,0,451,39,1,0,0,451,36,1,0;           151P     81
508,1,0,451,31,1,0;                                                  153P     82
508,1,0,451,28,1,0;                                                  155P     83
508,4,0,451,27,1,0,0,451,24,1,0,0,451,21,1,0,0,451,18,1,0;           157P     84
508,4,0,451,15,1,0,0,451,12,1,0,0,451,9,1,0,0,451,6,1,0;             159P     85
508,1,0,451,1,1,0;                                                   161P     86
508,8,0,451,95,0,0,0,451,73,1,0,0,451,77,0,0,0,451,80,1,0,0,451,     163P     87
83,0,0,0,451,86,1,0,0,451,89,0,0,0,451,92,1,0;                       163P     88
508,4,0,451,71,0,0,0,451,61,0,0,0,451,65,0,0,0,451,68,0,0;           165P     89
508,1,0,451,60,0,0;                                                  167P     90
508,1,0,451,57,0,0;                                                  169P     91
508,1,0,451,54,0,0;                                                  171P     92
508,1,0,451,51,0,0;                                                  173P     93
508,1,0,451,48,0,0;                                                  175P     94
508,4,0,451,44,0,0,0,451,34,0,0,0,451,38,0,0,0,451,41,0,0;           177P     95
508,1,0,451,33,0,0;                                                  179P     96
508,1,0,451,30,0,0;                                                  181P     97
508,4,0,451,26,0,0,0,451,16,0,0,0,451,20,0,0,0,451,23,0,0;           183P     98
508,4,0,451,14,0,0,0,451,4,0,0,0,451,8,0,0,0,451,11,0,0;             185P     99
508,1,0,451,3,0,0;                                                   187P    100
126,8,2,0,1,0,0,-3.14159265358979,-3.14159265358979,                 189P    101
-3.14159265358979,-1.5707963267949,-1.5707963267949,0.,0.,           189P    102
1.5707963267949,1.5707963267949,3.14159265358979,                    189P    103
3.14159265358979,3.14159265358979,1.,0.707106781186547,1.,           189P    104
0.707106781186547,1.,0.707106781186547,1.,0.707106781186547,1.,      189P    105
15.75,8.,-45.,15.75,8.,-49.25,20.,8.,-49.25,24.25,8.,-49.25,         189P    106
24.25,8.,-45.,24.25,8.,-40.75,20.,8.,-40.75,15.75,8.,-40.75,         189P    107
15.75,8.,-45.,-3.14159265358979,3.14159265358979,0.,0.,0.;           189P    108
126,1,1,0,0,1,0,-1.88235294117647,-1.88235294117647,0.,0.,1.,1.,     191P    109
15.75,8.,-45.,15.75,0.,-45.,-1.88235294117647,0.,0.,0.,0.;           191P    110
126,8,2,0,1,0,0,-3.14159265358979,-3.14159265358979,                 193P    111
-3.14159265358979,-1.5707963267949,-1.5707963267949,0.,0.,           193P    112
1.5707963267949,1.5707963267949,3.14159265358979,                    193P    113
3.14159265358979,3.14159265358979,1.,0.707106781186547,1.,           193P    114
0.707106781186547,1.,0.707106781186547,1.,0.707106781186547,1.,      193P    115
15.75,0.,-45.,15.75,0.,-49.25,20.,0.,-49.25,24.25,0.,-49.25,         193P    116
24.25,0.,-45.,24.25,0.,-40.75,20.,0.,-40.75,15.75,0.,-40.75,         193P    117
15.75,0.,-45.,-3.14159265358979,3.14159265358979,0.,0.,0.;           193P    118
126,1,1,0,0,1,0,-3.,-3.,-8.88178419700125D-16,                       195P    119
-8.88178419700125D-16,1.,1.,-69.25,0.,-20.,-69.25,0.,-50.,-3.,       195P    120
-8.88178419700125D-16,0.,0.,0.;                                      195P    121
126,1,1,0,0,1,0,0.,0.,0.8,0.8,1.,1.,-69.25,0.,-50.,-69.25,8.,        197P    122
-50.,0.,0.8,0.,0.,0.;                                                197P    123
126,1,1,0,0,1,0,-3.,-3.,-8.88178419700125D-16,                       199P    124
-8.88178419700125D-16,1.,1.,-69.25,8.,-20.,-69.25,8.,-50.,-3.,       199P    125
-8.88178419700125D-16,0.,0.,0.;                                      199P    126
126,1,1,0,0,1,0,0.,0.,0.8,0.8,1.,1.,-69.25,0.,-20.,-69.25,8.,        201P    127
-20.,0.,0.8,0.,0.,0.;                                                201P    128
126,4,2,0,0,0,0,-3.14159265358979,-3.14159265358979,                 203P    129
-3.14159265358979,-1.5707963267949,-1.5707963267949,0.,0.,0.,1.,     203P    130
0.70710678118655,1.,0.70710678118655,1.,-60.75,0.,-20.,-60.75,       203P    131
0.,-15.75,-65.,0.,-15.75,-69.25,0.,-15.75,-69.25,0.,-20.,            203P    132
-3.14159265358979,0.,0.,0.,0.;                                       203P    133
126,4,2,0,0,0,0,-3.14159265358979,-3.14159265358979,                 205P    134
-3.14159265358979,-1.5707963267949,-1.5707963267949,0.,0.,0.,1.,     205P    135
0.70710678118655,1.,0.70710678118655,1.,-60.75,8.,-20.,-60.75,       205P    136
8.,-15.75,-65.,8.,-15.75,-69.25,8.,-15.75,-69.25,8.,-20.,            205P    137
-3.14159265358979,0.,0.,0.,0.;                                       205P    138
126,1,1,0,0,1,0,0.,0.,0.8,0.8,1.,1.,-60.75,0.,-20.,-60.75,8.,        207P    139
-20.,0.,0.8,0.,0.,0.;                                                207P    140
126,1,1,0,0,1,0,-3.,-3.,0.,0.,1.,1.,-60.75,0.,-50.,-60.75,0.,        209P    141
-20.,-3.,0.,0.,0.,0.;                                                209P    142
126,1,1,0,0,1,0,-3.,-3.,0.,0.,1.,1.,-60.75,8.,-50.,-60.75,8.,        211P    143
-20.,-3.,0.,0.,0.,0.;                                                211P    144
126,1,1,0,0,1,0,0.,0.,0.8,0.8,1.,1.,-60.75,0.,-50.,-60.75,8.,        213P    145
-50.,0.,0.8,0.,0.,0.;                                                213P    146
126,4,2,0,0,0,0,-3.14159265358979,-3.14159265358979,                 215P    147
-3.14159265358979,-1.5707963267949,-1.5707963267949,0.,0.,0.,1.,     215P    148
0.707106781186547,1.,0.707106781186547,1.,-69.25,0.,-50.,-69.25,     215P    149
0.,-54.25,-65.,0.,-54.25,-60.75,0.,-54.25,-60.75,0.,-50.,            215P    150
-3.14159265358979,0.,0.,0.,0.;                                       215P    151
126,4,2,0,0,0,0,-3.14159265358979,-3.14159265358979,                 217P    152
-3.14159265358979,-1.5707963267949,-1.5707963267949,0.,0.,0.,1.,     217P    153
0.707106781186547,1.,0.707106781186547,1.,-69.25,8.,-50.,-69.25,     217P    154
8.,-54.25,-65.,8.,-54.25,-60.75,8.,-54.25,-60.75,8.,-50.,            217P    155
-3.14159265358979,0.,0.,0.,0.;                                       217P    156
126,1,1,0,0,1,0,-3.,-3.,-8.88178419700125D-16,                       219P    157
-8.88178419700125D-16,1.,1.,60.75,0.,-20.,60.75,0.,-50.,-3.,         219P    158
-8.88178419700125D-16,0.,0.,0.;                                      219P    159
126,1,1,0,0,1,0,0.,0.,0.8,0.8,1.,1.,60.75,0.,-50.,60.75,8.,-50.,     221P    160
0.,0.8,0.,0.,0.;                                                     221P    161
126,1,1,0,0,1,0,-3.,-3.,-8.88178419700125D-16,                       223P    162
-8.88178419700125D-16,1.,1.,60.75,8.,-20.,60.75,8.,-50.,-3.,         223P    163
-8.88178419700125D-16,0.,0.,0.;                                      223P    164
126,1,1,0,0,1,0,0.,0.,0.8,0.8,1.,1.,60.75,0.,-20.,60.75,8.,-20.,     225P    165
0.,0.8,0.,0.,0.;                                                     225P    166
126,4,2,0,0,0,0,-3.14159265358979,-3.14159265358979,                 227P    167
-3.14159265358979,-1.5707963267949,-1.5707963267949,0.,0.,0.,1.,     227P    168
0.70710678118655,1.,0.70710678118655,1.,69.25,0.,-20.,69.25,0.,      227P    169
-15.75,65.,0.,-15.75,60.75,0.,-15.75,60.75,0.,-20.,                  227P    170
-3.14159265358979,0.,0.,0.,0.;                                       227P    171
126,4,2,0,0,0,0,-3.14159265358979,-3.14159265358979,                 229P    172
-3.14159265358979,-1.5707963267949,-1.5707963267949,0.,0.,0.,1.,     229P    173
0.70710678118655,1.,0.70710678118655,1.,69.25,8.,-20.,69.25,8.,      229P    174
-15.75,65.,8.,-15.75,60.75,8.,-15.75,60.75,8.,-20.,                  229P    175
-3.14159265358979,0.,0.,0.,0.;                                       229P    176
126,1,1,0,0,1,0,0.,0.,0.8,0.8,1.,1.,69.25,0.,-20.,69.25,8.,-20.,     231P    177
0.,0.8,0.,0.,0.;                                                     231P    178
126,1,1,0,0,1,0,-3.,-3.,0.,0.,1.,1.,69.25,0.,-50.,69.25,0.,-20.,     233P    179
-3.,0.,0.,0.,0.;                                                     233P    180
126,1,1,0,0,1,0,-3.,-3.,0.,0.,1.,1.,69.25,8.,-50.,69.25,8.,-20.,     235P    181
-3.,0.,0.,0.,0.;                                                     235P    182
126,1,1,0,0,1,0,0.,0.,0.8,0.8,1.,1.,69.25,0.,-50.,69.25,8.,-50.,     237P    183
0.,0.8,0.,0.,0.;                                                     237P    184
126,4,2,0,0,0,0,-3.14159265358979,-3.14159265358979,                 239P    185
-3.14159265358979,-1.5707963267949,-1.5707963267949,0.,0.,0.,1.,     239P    186
0.707106781186547,1.,0.707106781186547,1.,60.75,0.,-50.,60.75,       239P    187
0.,-54.25,65.,0.,-54.25,69.25,0.,-54.25,69.25,0.,-50.,               239P    188
-3.14159265358979,0.,0.,0.,0.;                                       239P    189
126,4,2,0,0,0,0,-3.14159265358979,-3.14159265358979,                 241P    190
-3.14159265358979,-1.5707963267949,-1.5707963267949,0.,0.,0.,1.,     241P    191
0.707106781186547,1.,0.707106781186547,1.,60.75,8.,-50.,60.75,       241P    192
8.,-54.25,65.,8.,-54.25,69.25,8.,-54.25,69.25,8.,-50.,               241P    193
-3.14159265358979,0.,0.,0.,0.;                                       241P    194
126,8,2,0,1,0,0,-3.14159265358979,-3.14159265358979,                 243P    195
-3.14159265358979,-1.5707963267949,-1.5707963267949,0.,0.,           243P    196
1.5707963267949,1.5707963267949,3.14159265358979,                    243P    197
3.14159265358979,3.14159265358979,1.,0.707106781186547,1.,           243P    198
0.707106781186547,1.,0.707106781186547,1.,0.707106781186547,1.,      243P    199
-24.25,8.,45.,-24.25,8.,40.75,-20.,8.,40.75,-15.75,8.,40.75,         243P    200
-15.75,8.,45.,-15.75,8.,49.25,-20.,8.,49.25,-24.25,8.,49.25,         243P    201
-24.25,8.,45.,-3.14159265358979,3.14159265358979,0.,0.,0.;           243P    202
126,1,1,0,0,1,0,-1.88235294117647,-1.88235294117647,0.,0.,1.,1.,     245P    203
-24.25,8.,45.,-24.25,0.,45.,-1.88235294117647,0.,0.,0.,0.;           245P    204
126,8,2,0,1,0,0,-3.14159265358979,-3.14159265358979,                 247P    205
-3.14159265358979,-1.5707963267949,-1.5707963267949,0.,0.,           247P    206
1.5707963267949,1.5707963267949,3.14159265358979,                    247P    207
3.14159265358979,3.14159265358979,1.,0.707106781186547,1.,           247P    208
0.707106781186547,1.,0.707106781186547,1.,0.707106781186547,1.,      247P    209
-24.25,0.,45.,-24.25,0.,40.75,-20.,0.,40.75,-15.75,0.,40.75,         247P    210
-15.75,0.,45.,-15.75,0.,49.25,-20.,0.,49.25,-24.25,0.,49.25,         247P    211
-24.25,0.,45.,-3.14159265358979,3.14159265358979,0.,0.,0.;           247P    212
126,8,2,0,1,0,0,-3.14159265358979,-3.14159265358979,                 249P    213
-3.14159265358979,-1.5707963267949,-1.5707963267949,0.,0.,           249P    214
1.5707963267949,1.5707963267949,3.14159265358979,                    249P    215
3.14159265358979,3.14159265358979,1.,0.707106781186549,1.,           249P    216
0.707106781186549,1.,0.707106781186549,1.,0.707106781186549,1.,      249P    217
15.75,8.,15.,15.75,8.,10.75,20.,8.,10.75,24.25,8.,10.75,24.25,       249P    218
8.,15.,24.25,8.,19.25,20.,8.,19.25,15.75,8.,19.25,15.75,8.,15.,      249P    219
-3.14159265358979,3.14159265358979,0.,0.,0.;                         249P    220
126,1,1,0,0,1,0,-1.88235294117647,-1.88235294117647,0.,0.,1.,1.,     251P    221
15.75,8.,15.,15.75,0.,15.,-1.88235294117647,0.,0.,0.,0.;             251P    222
126,8,2,0,1,0,0,-3.14159265358979,-3.14159265358979,                 253P    223
-3.14159265358979,-1.5707963267949,-1.5707963267949,0.,0.,           253P    224
1.5707963267949,1.5707963267949,3.14159265358979,                    253P    225
3.14159265358979,3.14159265358979,1.,0.707106781186549,1.,           253P    226
0.707106781186549,1.,0.707106781186549,1.,0.707106781186549,1.,      253P    227
15.75,0.,15.,15.75,0.,10.75,20.,0.,10.75,24.25,0.,10.75,24.25,       253P    228
0.,15.,24.25,0.,19.25,20.,0.,19.25,15.75,0.,19.25,15.75,0.,15.,      253P    229
-3.14159265358979,3.14159265358979,0.,0.,0.;                         253P    230
126,1,1,0,0,1,0,-3.,-3.,-4.44089209850063D-16,                       255P    231
-4.44089209850063D-16,1.,1.,60.75,0.,50.,60.75,0.,20.,-3.,           255P    232
-4.44089209850063D-16,0.,0.,0.;                                      255P    233
126,1,1,0,0,1,0,0.,0.,0.8,0.8,1.,1.,60.75,0.,20.,60.75,8.,20.,       257P    234
0.,0.8,0.,0.,0.;                                                     257P    235
126,1,1,0,0,1,0,-3.,-3.,-4.44089209850063D-16,                       259P    236
-4.44089209850063D-16,1.,1.,60.75,8.,50.,60.75,8.,20.,-3.,           259P    237
-4.44089209850063D-16,0.,0.,0.;                                      259P    238
126,1,1,0,0,1,0,0.,0.,0.8,0.8,1.,1.,60.75,0.,50.,60.75,8.,50.,       261P    239
0.,0.8,0.,0.,0.;                                                     261P    240
126,4,2,0,0,0,0,-3.14159265358979,-3.14159265358979,                 263P    241
-3.14159265358979,-1.5707963267949,-1.5707963267949,0.,0.,0.,1.,     263P    242
0.707106781186553,1.,0.707106781186553,1.,69.25,0.,50.,69.25,0.,     263P    243
54.25,65.,0.,54.25,60.75,0.,54.25,60.75,0.,50.,                      263P    244
-3.14159265358979,0.,0.,0.,0.;                                       263P    245
126,4,2,0,0,0,0,-3.14159265358979,-3.14159265358979,                 265P    246
-3.14159265358979,-1.5707963267949,-1.5707963267949,0.,0.,0.,1.,     265P    247
0.707106781186553,1.,0.707106781186553,1.,69.25,8.,50.,69.25,8.,     265P    248
54.25,65.,8.,54.25,60.75,8.,54.25,60.75,8.,50.,                      265P    249
-3.14159265358979,0.,0.,0.,0.;                                       265P    250
126,1,1,0,0,1,0,0.,0.,0.8,0.8,1.,1.,69.25,0.,50.,69.25,8.,50.,       267P    251
0.,0.8,0.,0.,0.;                                                     267P    252
126,1,1,0,0,1,0,-3.,-3.,0.,0.,1.,1.,69.25,0.,20.,69.25,0.,50.,       269P    253
-3.,0.,0.,0.,0.;                                                     269P    254
126,1,1,0,0,1,0,-3.,-3.,0.,0.,1.,1.,69.25,8.,20.,69.25,8.,50.,       271P    255
-3.,0.,0.,0.,0.;                                                     271P    256
126,1,1,0,0,1,0,0.,0.,0.8,0.8,1.,1.,69.25,0.,20.,69.25,8.,20.,       273P    257
0.,0.8,0.,0.,0.;                                                     273P    258
126,4,2,0,0,0,0,-3.14159265358979,-3.14159265358979,                 275P    259
-3.14159265358979,-1.5707963267949,-1.5707963267949,0.,0.,0.,1.,     275P    260
0.707106781186551,1.,0.707106781186548,1.,60.75,0.,20.,60.75,0.,     275P    261
15.75,65.,0.,15.75,69.25,0.,15.75,69.25,0.,20.,                      275P    262
-3.14159265358979,0.,0.,0.,0.;                                       275P    263
126,4,2,0,0,0,0,-3.14159265358979,-3.14159265358979,                 277P    264
-3.14159265358979,-1.5707963267949,-1.5707963267949,0.,0.,0.,1.,     277P    265
0.707106781186551,1.,0.707106781186548,1.,60.75,8.,20.,60.75,8.,     277P    266
15.75,65.,8.,15.75,69.25,8.,15.75,69.25,8.,20.,                      277P    267
-3.14159265358979,0.,0.,0.,0.;                                       277P    268
126,8,2,0,1,0,0,-3.14159265358979,-3.14159265358979,                 279P    269
-3.14159265358979,-1.5707963267949,-1.5707963267949,0.,0.,           279P    270
1.5707963267949,1.5707963267949,3.14159265358979,                    279P    271
3.14159265358979,3.14159265358979,1.,0.707106781186547,1.,           279P    272
0.707106781186547,1.,0.707106781186547,1.,0.707106781186547,1.,      279P    273
15.75,8.,45.,15.75,8.,40.75,20.,8.,40.75,24.25,8.,40.75,24.25,       279P    274
8.,45.,24.25,8.,49.25,20.,8.,49.25,15.75,8.,49.25,15.75,8.,45.,      279P    275
-3.14159265358979,3.14159265358979,0.,0.,0.;                         279P    276
126,1,1,0,0,1,0,-1.88235294117647,-1.88235294117647,0.,0.,1.,1.,     281P    277
15.75,8.,45.,15.75,0.,45.,-1.88235294117647,0.,0.,0.,0.;             281P    278
126,8,2,0,1,0,0,-3.14159265358979,-3.14159265358979,                 283P    279
-3.14159265358979,-1.5707963267949,-1.5707963267949,0.,0.,           283P    280
1.5707963267949,1.5707963267949,3.14159265358979,                    283P    281
3.14159265358979,3.14159265358979,1.,0.707106781186547,1.,           283P    282
0.707106781186547,1.,0.707106781186547,1.,0.707106781186547,1.,      283P    283
15.75,0.,45.,15.75,0.,40.75,20.,0.,40.75,24.25,0.,40.75,24.25,       283P    284
0.,45.,24.25,0.,49.25,20.,0.,49.25,15.75,0.,49.25,15.75,0.,45.,      283P    285
-3.14159265358979,3.14159265358979,0.,0.,0.;                         283P    286
126,8,2,0,1,0,0,-3.14159265358979,-3.14159265358979,                 285P    287
-3.14159265358979,-1.5707963267949,-1.5707963267949,0.,0.,           285P    288
1.5707963267949,1.5707963267949,3.14159265358979,                    285P    289
3.14159265358979,3.14159265358979,1.,0.707106781186549,1.,           285P    290
0.707106781186549,1.,0.707106781186549,1.,0.707106781186549,1.,      285P    291
-24.25,8.,-15.,-24.25,8.,-19.25,-20.,8.,-19.25,-15.75,8.,-19.25,     285P    292
-15.75,8.,-15.,-15.75,8.,-10.75,-20.,8.,-10.75,-24.25,8.,-10.75,     285P    293
-24.25,8.,-15.,-3.14159265358979,3.14159265358979,0.,0.,0.;          285P    294
126,1,1,0,0,1,0,-1.88235294117647,-1.88235294117647,0.,0.,1.,1.,     287P    295
-24.25,8.,-15.,-24.25,0.,-15.,-1.88235294117647,0.,0.,0.,0.;         287P    296
126,8,2,0,1,0,0,-3.14159265358979,-3.14159265358979,                 289P    297
-3.14159265358979,-1.5707963267949,-1.5707963267949,0.,0.,           289P    298
1.5707963267949,1.5707963267949,3.14159265358979,                    289P    299
3.14159265358979,3.14159265358979,1.,0.707106781186549,1.,           289P    300
0.707106781186549,1.,0.707106781186549,1.,0.707106781186549,1.,      289P    301
-24.25,0.,-15.,-24.25,0.,-19.25,-20.,0.,-19.25,-15.75,0.,-19.25,     289P    302
-15.75,0.,-15.,-15.75,0.,-10.75,-20.,0.,-10.75,-24.25,0.,-10.75,     289P    303
-24.25,0.,-15.,-3.14159265358979,3.14159265358979,0.,0.,0.;          289P    304
126,8,2,0,1,0,0,-3.14159265358979,-3.14159265358979,                 291P    305
-3.14159265358979,-1.5707963267949,-1.5707963267949,0.,0.,           291P    306
1.5707963267949,1.5707963267949,3.14159265358979,                    291P    307
3.14159265358979,3.14159265358979,1.,0.707106781186549,1.,           291P    308
0.707106781186549,1.,0.707106781186549,1.,0.707106781186549,1.,      291P    309
15.75,8.,-15.,15.75,8.,-19.25,20.,8.,-19.25,24.25,8.,-19.25,         291P    310
24.25,8.,-15.,24.25,8.,-10.75,20.,8.,-10.75,15.75,8.,-10.75,         291P    311
15.75,8.,-15.,-3.14159265358979,3.14159265358979,0.,0.,0.;           291P    312
126,1,1,0,0,1,0,-1.88235294117647,-1.88235294117647,0.,0.,1.,1.,     293P    313
15.75,8.,-15.,15.75,0.,-15.,-1.88235294117647,0.,0.,0.,0.;           293P    314
126,8,2,0,1,0,0,-3.14159265358979,-3.14159265358979,                 295P    315
-3.14159265358979,-1.5707963267949,-1.5707963267949,0.,0.,           295P    316
1.5707963267949,1.5707963267949,3.14159265358979,                    295P    317
3.14159265358979,3.14159265358979,1.,0.707106781186549,1.,           295P    318
0.707106781186549,1.,0.707106781186549,1.,0.707106781186549,1.,      295P    319
15.75,0.,-15.,15.75,0.,-19.25,20.,0.,-19.25,24.25,0.,-19.25,         295P    320
24.25,0.,-15.,24.25,0.,-10.75,20.,0.,-10.75,15.75,0.,-10.75,         295P    321
15.75,0.,-15.,-3.14159265358979,3.14159265358979,0.,0.,0.;           295P    322
126,8,2,0,1,0,0,-3.14159265358979,-3.14159265358979,                 297P    323
-3.14159265358979,-1.5707963267949,-1.5707963267949,0.,0.,           297P    324
1.5707963267949,1.5707963267949,3.14159265358979,                    297P    325
3.14159265358979,3.14159265358979,1.,0.707106781186547,1.,           297P    326
0.707106781186547,1.,0.707106781186547,1.,0.707106781186547,1.,      297P    327
-24.25,8.,-45.,-24.25,8.,-49.25,-20.,8.,-49.25,-15.75,8.,-49.25,     297P    328
-15.75,8.,-45.,-15.75,8.,-40.75,-20.,8.,-40.75,-24.25,8.,-40.75,     297P    329
-24.25,8.,-45.,-3.14159265358979,3.14159265358979,0.,0.,0.;          297P    330
126,1,1,0,0,1,0,-1.88235294117647,-1.88235294117647,0.,0.,1.,1.,     299P    331
-24.25,8.,-45.,-24.25,0.,-45.,-1.88235294117647,0.,0.,0.,0.;         299P    332
126,8,2,0,1,0,0,-3.14159265358979,-3.14159265358979,                 301P    333
-3.14159265358979,-1.5707963267949,-1.5707963267949,0.,0.,           301P    334
1.5707963267949,1.5707963267949,3.14159265358979,                    301P    335
3.14159265358979,3.14159265358979,1.,0.707106781186547,1.,           301P    336
0.707106781186547,1.,0.707106781186547,1.,0.707106781186547,1.,      301P    337
-24.25,0.,-45.,-24.25,0.,-49.25,-20.,0.,-49.25,-15.75,0.,-49.25,     301P    338
-15.75,0.,-45.,-15.75,0.,-40.75,-20.,0.,-40.75,-24.25,0.,-40.75,     301P    339
-24.25,0.,-45.,-3.14159265358979,3.14159265358979,0.,0.,0.;          301P    340
126,8,2,0,1,0,0,-3.14159265358979,-3.14159265358979,                 303P    341
-3.14159265358979,-1.5707963267949,-1.5707963267949,0.,0.,           303P    342
1.5707963267949,1.5707963267949,3.14159265358979,                    303P    343
3.14159265358979,3.14159265358979,1.,0.707106781186549,1.,           303P    344
0.707106781186549,1.,0.707106781186549,1.,0.707106781186549,1.,      303P    345
-24.25,8.,15.,-24.25,8.,10.75,-20.,8.,10.75,-15.75,8.,10.75,         303P    346
-15.75,8.,15.,-15.75,8.,19.25,-20.,8.,19.25,-24.25,8.,19.25,         303P    347
-24.25,8.,15.,-3.14159265358979,3.14159265358979,0.,0.,0.;           303P    348
126,1,1,0,0,1,0,-1.88235294117647,-1.88235294117647,0.,0.,1.,1.,     305P    349
-24.25,8.,15.,-24.25,0.,15.,-1.88235294117647,0.,0.,0.,0.;           305P    350
126,8,2,0,1,0,0,-3.14159265358979,-3.14159265358979,                 307P    351
-3.14159265358979,-1.5707963267949,-1.5707963267949,0.,0.,           307P    352
1.5707963267949,1.5707963267949,3.14159265358979,                    307P    353
3.14159265358979,3.14159265358979,1.,0.707106781186549,1.,           307P    354
0.707106781186549,1.,0.707106781186549,1.,0.707106781186549,1.,      307P    355
-24.25,0.,15.,-24.25,0.,10.75,-20.,0.,10.75,-15.75,0.,10.75,         307P    356
-15.75,0.,15.,-15.75,0.,19.25,-20.,0.,19.25,-24.25,0.,19.25,         307P    357
-24.25,0.,15.,-3.14159265358979,3.14159265358979,0.,0.,0.;           307P    358
126,1,1,0,0,1,0,-3.,-3.,-4.44089209850063D-16,                       309P    359
-4.44089209850063D-16,1.,1.,-69.25,0.,50.,-69.25,0.,20.,-3.,         309P    360
-4.44089209850063D-16,0.,0.,0.;                                      309P    361
126,1,1,0,0,1,0,0.,0.,0.8,0.8,1.,1.,-69.25,0.,20.,-69.25,8.,20.,     311P    362
0.,0.8,0.,0.,0.;                                                     311P    363
126,1,1,0,0,1,0,-3.,-3.,-4.44089209850063D-16,                       313P    364
-4.44089209850063D-16,1.,1.,-69.25,8.,50.,-69.25,8.,20.,-3.,         313P    365
-4.44089209850063D-16,0.,0.,0.;                                      313P    366
126,1,1,0,0,1,0,0.,0.,0.8,0.8,1.,1.,-69.25,0.,50.,-69.25,8.,50.,     315P    367
0.,0.8,0.,0.,0.;                                                     315P    368
126,4,2,0,0,0,0,-3.14159265358979,-3.14159265358979,                 317P    369
-3.14159265358979,-1.5707963267949,-1.5707963267949,0.,0.,0.,1.,     317P    370
0.707106781186553,1.,0.707106781186553,1.,-60.75,0.,50.,-60.75,      317P    371
0.,54.25,-65.,0.,54.25,-69.25,0.,54.25,-69.25,0.,50.,                317P    372
-3.14159265358979,0.,0.,0.,0.;                                       317P    373
126,4,2,0,0,0,0,-3.14159265358979,-3.14159265358979,                 319P    374
-3.14159265358979,-1.5707963267949,-1.5707963267949,0.,0.,0.,1.,     319P    375
0.707106781186553,1.,0.707106781186553,1.,-60.75,8.,50.,-60.75,      319P    376
8.,54.25,-65.,8.,54.25,-69.25,8.,54.25,-69.25,8.,50.,                319P    377
-3.14159265358979,0.,0.,0.,0.;                                       319P    378
126,1,1,0,0,1,0,0.,0.,0.8,0.8,1.,1.,-60.75,0.,50.,-60.75,8.,50.,     321P    379
0.,0.8,0.,0.,0.;                                                     321P    380
126,1,1,0,0,1,0,-3.,-3.,0.,0.,1.,1.,-60.75,0.,20.,-60.75,0.,50.,     323P    381
-3.,0.,0.,0.,0.;                                                     323P    382
126,1,1,0,0,1,0,-3.,-3.,0.,0.,1.,1.,-60.75,8.,20.,-60.75,8.,50.,     325P    383
-3.,0.,0.,0.,0.;                                                     325P    384
126,1,1,0,0,1,0,0.,0.,0.8,0.8,1.,1.,-60.75,0.,20.,-60.75,8.,20.,     327P    385
0.,0.8,0.,0.,0.;                                                     327P    386
126,4,2,0,0,0,0,-3.14159265358979,-3.14159265358979,                 329P    387
-3.14159265358979,-1.5707963267949,-1.5707963267949,0.,0.,0.,1.,     329P    388
0.707106781186551,1.,0.707106781186548,1.,-69.25,0.,20.,-69.25,      329P    389
0.,15.75,-65.,0.,15.75,-60.75,0.,15.75,-60.75,0.,20.,                329P    390
-3.14159265358979,0.,0.,0.,0.;                                       329P    391
126,4,2,0,0,0,0,-3.14159265358979,-3.14159265358979,                 331P    392
-3.14159265358979,-1.5707963267949,-1.5707963267949,0.,0.,0.,1.,     331P    393
0.707106781186551,1.,0.707106781186548,1.,-69.25,8.,20.,-69.25,      331P    394
8.,15.75,-65.,8.,15.75,-60.75,8.,15.75,-60.75,8.,20.,                331P    395
-3.14159265358979,0.,0.,0.,0.;                                       331P    396
126,1,1,0,0,1,0,0.,0.,11.,11.,1.,1.,80.,0.,-55.,80.,0.,55.,0.,       333P    397
11.,0.,0.,0.;                                                        333P    398
126,1,1,0,0,1,0,0.,0.,0.8,0.8,1.,1.,80.,0.,-55.,80.,8.,-55.,0.,      335P    399
0.8,0.,0.,0.;                                                        335P    400
126,1,1,0,0,1,0,-11.,-11.,0.,0.,1.,1.,80.,8.,55.,80.,8.,-55.,        337P    401
-11.,0.,0.,0.,0.;                                                    337P    402
126,1,1,0,0,1,0,0.,0.,0.8,0.8,1.,1.,80.,0.,55.,80.,8.,55.,0.,        339P    403
0.8,0.,0.,0.;                                                        339P    404
126,2,2,0,0,0,0,0.,0.,0.,1.5707963267949,1.5707963267949,            341P    405
1.5707963267949,1.,0.707106781186547,1.,75.,0.,60.,80.,0.,60.,       341P    406
80.,0.,55.,0.,1.5707963267949,0.,0.,0.;                              341P    407
126,2,2,0,0,0,0,0.,0.,0.,1.5707963267949,1.5707963267949,            343P    408
1.5707963267949,1.,0.707106781186547,1.,75.,8.,60.,80.,8.,60.,       343P    409
80.,8.,55.,0.,1.5707963267949,0.,0.,0.;                              343P    410
126,1,1,0,0,1,0,0.,0.,0.8,0.8,1.,1.,75.,0.,60.,75.,8.,60.,0.,        345P    411
0.8,0.,0.,0.;                                                        345P    412
126,1,1,0,0,1,0,0.,0.,15.,15.,1.,1.,75.,0.,60.,-75.,0.,60.,0.,       347P    413
15.,0.,0.,0.;                                                        347P    414
126,1,1,0,0,1,0,-15.,-15.,0.,0.,1.,1.,-75.,8.,60.,75.,8.,60.,        349P    415
-15.,0.,0.,0.,0.;                                                    349P    416
126,1,1,0,0,1,0,0.,0.,0.8,0.8,1.,1.,-75.,0.,60.,-75.,8.,60.,0.,      351P    417
0.8,0.,0.,0.;                                                        351P    418
126,2,2,0,0,0,0,0.,0.,0.,1.5707963267949,1.5707963267949,            353P    419
1.5707963267949,1.,0.707106781186545,1.,-80.,0.,55.,-80.,0.,60.,     353P    420
-75.,0.,60.,0.,1.5707963267949,0.,0.,0.;                             353P    421
126,2,2,0,0,0,0,0.,0.,0.,1.5707963267949,1.5707963267949,            355P    422
1.5707963267949,1.,0.707106781186545,1.,-80.,8.,55.,-80.,8.,60.,     355P    423
-75.,8.,60.,0.,1.5707963267949,0.,0.,0.;                             355P    424
126,1,1,0,0,1,0,0.,0.,0.8,0.8,1.,1.,-80.,0.,55.,-80.,8.,55.,0.,      357P    425
0.8,0.,0.,0.;                                                        357P    426
126,1,1,0,0,1,0,0.,0.,11.,11.,1.,1.,-80.,0.,55.,-80.,0.,-55.,0.,     359P    427
11.,0.,0.,0.;                                                        359P    428
126,1,1,0,0,1,0,-11.,-11.,0.,0.,1.,1.,-80.,8.,-55.,-80.,8.,55.,      361P    429
-11.,0.,0.,0.,0.;                                                    361P    430
126,1,1,0,0,1,0,0.,0.,0.8,0.8,1.,1.,-80.,0.,-55.,-80.,8.,-55.,       363P    431
0.,0.8,0.,0.,0.;                                                     363P    432
126,2,2,0,0,0,0,0.,0.,0.,1.5707963267949,1.5707963267949,            365P    433
1.5707963267949,1.,0.707106781186556,1.,-75.,0.,-60.,-80.,0.,        365P    434
-60.,-80.,0.,-55.,0.,1.5707963267949,0.,0.,0.;                       365P    435
126,2,2,0,0,0,0,0.,0.,0.,1.5707963267949,1.5707963267949,            367P    436
1.5707963267949,1.,0.707106781186556,1.,-75.,8.,-60.,-80.,8.,        367P    437
-60.,-80.,8.,-55.,0.,1.5707963267949,0.,0.,0.;                       367P    438
126,1,1,0,0,1,0,0.,0.,0.8,0.8,1.,1.,-75.,0.,-60.,-75.,8.,-60.,       369P    439
0.,0.8,0.,0.,0.;                                                     369P    440
126,1,1,0,0,1,0,0.,0.,15.,15.,1.,1.,-75.,0.,-60.,75.,0.,-60.,0.,     371P    441
15.,0.,0.,0.;                                                        371P    442
126,1,1,0,0,1,0,-15.,-15.,0.,0.,1.,1.,75.,8.,-60.,-75.,8.,-60.,      373P    443
-15.,0.,0.,0.,0.;                                                    373P    444
126,1,1,0,0,1,0,0.,0.,0.8,0.8,1.,1.,75.,0.,-60.,75.,8.,-60.,0.,      375P    445
0.8,0.,0.,0.;                                                        375P    446
126,2,2,0,0,0,0,0.,0.,0.,1.5707963267949,1.5707963267949,            377P    447
1.5707963267949,1.,0.707106781186542,1.,80.,0.,-55.,80.,0.,-60.,     377P    448
75.,0.,-60.,0.,1.5707963267949,0.,0.,0.;                             377P    449
126,2,2,0,0,0,0,0.,0.,0.,1.5707963267949,1.5707963267949,            379P    450
1.5707963267949,1.,0.707106781186542,1.,80.,8.,-55.,80.,8.,-60.,     379P    451
75.,8.,-60.,0.,1.5707963267949,0.,0.,0.;                             379P    452
128,1,8,1,2,0,1,0,0,1,0.,0.,1.88235294117647,1.88235294117647,       381P    453
-3.14159265358979,-3.14159265358979,-3.14159265358979,               381P    454
-1.5707963267949,-1.5707963267949,0.,0.,1.5707963267949,             381P    455
1.5707963267949,3.14159265358979,3.14159265358979,                   381P    456
3.14159265358979,1.,1.,0.707106781186548,0.707106781186548,1.,       381P    457
1.,0.707106781186548,0.707106781186548,1.,1.,0.707106781186548,      381P    458
0.707106781186548,1.,1.,0.707106781186548,0.707106781186548,1.,      381P    459
1.,15.75,0.,-45.,15.75,8.,-45.,15.75,0.,-40.75,15.75,8.,-40.75,      381P    460
20.,0.,-40.75,20.,8.,-40.75,24.25,0.,-40.75,24.25,8.,-40.75,         381P    461
24.25,0.,-45.,24.25,8.,-45.,24.25,0.,-49.25,24.25,8.,-49.25,20.,     381P    462
0.,-49.25,20.,8.,-49.25,15.75,0.,-49.25,15.75,8.,-49.25,15.75,       381P    463
0.,-45.,15.75,8.,-45.,0.,1.88235294117647,-3.14159265358979,         381P    464
3.14159265358979;                                                    381P    465
128,1,1,1,1,0,0,1,0,0,-0.001,-0.001,3.001,3.001,-0.001,-0.001,       383P    466
0.801,0.801,1.,1.,1.,1.,-69.25,-0.01,-19.99,-69.25,-0.01,-50.01,     383P    467
-69.25,8.01,-19.99,-69.25,8.01,-50.01,-0.001,3.001,-0.001,0.801;     383P    468
128,1,4,1,2,0,0,0,0,0,0.,0.,1.88235294117647,1.88235294117647,       385P    469
0.,0.,0.,1.5707963267949,1.5707963267949,3.14159265358979,           385P    470
3.14159265358979,3.14159265358979,1.,1.,0.707106781186548,           385P    471
0.707106781186548,1.,1.,0.707106781186548,0.707106781186548,1.,      385P    472
1.,-69.25,0.,-20.,-69.25,8.,-20.,-69.25,0.,-15.75,-69.25,8.,         385P    473
-15.75,-65.,0.,-15.75,-65.,8.,-15.75,-60.75,0.,-15.75,-60.75,8.,     385P    474
-15.75,-60.75,0.,-20.,-60.75,8.,-20.,0.,1.88235294117647,0.,         385P    475
3.14159265358979;                                                    385P    476
128,1,1,1,1,0,0,1,0,0,-0.001,-0.001,3.001,3.001,-0.001,-0.001,       387P    477
0.801,0.801,1.,1.,1.,1.,-60.75,-0.01,-50.01,-60.75,-0.01,-19.99,     387P    478
-60.75,8.01,-50.01,-60.75,8.01,-19.99,-0.001,3.001,-0.001,0.801;     387P    479
128,1,4,1,2,0,0,0,0,0,0.,0.,1.88235294117647,1.88235294117647,       389P    480
0.,0.,0.,1.5707963267949,1.5707963267949,3.14159265358979,           389P    481
3.14159265358979,3.14159265358979,1.,1.,0.707106781186548,           389P    482
0.707106781186548,1.,1.,0.707106781186548,0.707106781186548,1.,      389P    483
1.,-60.75,0.,-50.,-60.75,8.,-50.,-60.75,0.,-54.25,-60.75,8.,         389P    484
-54.25,-65.,0.,-54.25,-65.,8.,-54.25,-69.25,0.,-54.25,-69.25,8.,     389P    485
-54.25,-69.25,0.,-50.,-69.25,8.,-50.,0.,1.88235294117647,0.,         389P    486
3.14159265358979;                                                    389P    487
128,1,1,1,1,0,0,1,0,0,-0.001,-0.001,3.001,3.001,-0.001,-0.001,       391P    488
0.801,0.801,1.,1.,1.,1.,60.75,-0.01,-19.99,60.75,-0.01,-50.01,       391P    489
60.75,8.01,-19.99,60.75,8.01,-50.01,-0.001,3.001,-0.001,0.801;       391P    490
128,1,4,1,2,0,0,0,0,0,0.,0.,1.88235294117647,1.88235294117647,       393P    491
0.,0.,0.,1.5707963267949,1.5707963267949,3.14159265358979,           393P    492
3.14159265358979,3.14159265358979,1.,1.,0.707106781186548,           393P    493
0.707106781186548,1.,1.,0.707106781186548,0.707106781186548,1.,      393P    494
1.,60.75,0.,-20.,60.75,8.,-20.,60.75,0.,-15.75,60.75,8.,-15.75,      393P    495
65.,0.,-15.75,65.,8.,-15.75,69.25,0.,-15.75,69.25,8.,-15.75,         393P    496
69.25,0.,-20.,69.25,8.,-20.,0.,1.88235294117647,0.,                  393P    497
3.14159265358979;                                                    393P    498
128,1,1,1,1,0,0,1,0,0,-0.001,-0.001,3.001,3.001,-0.001,-0.001,       395P    499
0.801,0.801,1.,1.,1.,1.,69.25,-0.01,-50.01,69.25,-0.01,-19.99,       395P    500
69.25,8.01,-50.01,69.25,8.01,-19.99,-0.001,3.001,-0.001,0.801;       395P    501
128,1,4,1,2,0,0,0,0,0,0.,0.,1.88235294117647,1.88235294117647,       397P    502
0.,0.,0.,1.5707963267949,1.5707963267949,3.14159265358979,           397P    503
3.14159265358979,3.14159265358979,1.,1.,0.707106781186548,           397P    504
0.707106781186548,1.,1.,0.707106781186548,0.707106781186548,1.,      397P    505
1.,69.25,0.,-50.,69.25,8.,-50.,69.25,0.,-54.25,69.25,8.,-54.25,      397P    506
65.,0.,-54.25,65.,8.,-54.25,60.75,0.,-54.25,60.75,8.,-54.25,         397P    507
60.75,0.,-50.,60.75,8.,-50.,0.,1.88235294117647,0.,                  397P    508
3.14159265358979;                                                    397P    509
128,1,8,1,2,0,1,0,0,1,0.,0.,1.88235294117647,1.88235294117647,       399P    510
-3.14159265358979,-3.14159265358979,-3.14159265358979,               399P    511
-1.5707963267949,-1.5707963267949,0.,0.,1.5707963267949,             399P    512
1.5707963267949,3.14159265358979,3.14159265358979,                   399P    513
3.14159265358979,1.,1.,0.707106781186548,0.707106781186548,1.,       399P    514
1.,0.707106781186548,0.707106781186548,1.,1.,0.707106781186548,      399P    515
0.707106781186548,1.,1.,0.707106781186548,0.707106781186548,1.,      399P    516
1.,-24.25,0.,45.,-24.25,8.,45.,-24.25,0.,49.25,-24.25,8.,49.25,      399P    517
-20.,0.,49.25,-20.,8.,49.25,-15.75,0.,49.25,-15.75,8.,49.25,         399P    518
-15.75,0.,45.,-15.75,8.,45.,-15.75,0.,40.75,-15.75,8.,40.75,         399P    519
-20.,0.,40.75,-20.,8.,40.75,-24.25,0.,40.75,-24.25,8.,40.75,         399P    520
-24.25,0.,45.,-24.25,8.,45.,0.,1.88235294117647,                     399P    521
-3.14159265358979,3.14159265358979;                                  399P    522
128,1,8,1,2,0,1,0,0,1,0.,0.,1.88235294117647,1.88235294117647,       401P    523
-3.14159265358979,-3.14159265358979,-3.14159265358979,               401P    524
-1.5707963267949,-1.5707963267949,0.,0.,1.5707963267949,             401P    525
1.5707963267949,3.14159265358979,3.14159265358979,                   401P    526
3.14159265358979,1.,1.,0.707106781186548,0.707106781186548,1.,       401P    527
1.,0.707106781186548,0.707106781186548,1.,1.,0.707106781186548,      401P    528
0.707106781186548,1.,1.,0.707106781186548,0.707106781186548,1.,      401P    529
1.,15.75,0.,15.,15.75,8.,15.,15.75,0.,19.25,15.75,8.,19.25,20.,      401P    530
0.,19.25,20.,8.,19.25,24.25,0.,19.25,24.25,8.,19.25,24.25,0.,        401P    531
15.,24.25,8.,15.,24.25,0.,10.75,24.25,8.,10.75,20.,0.,10.75,20.,     401P    532
8.,10.75,15.75,0.,10.75,15.75,8.,10.75,15.75,0.,15.,15.75,8.,        401P    533
15.,0.,1.88235294117647,-3.14159265358979,3.14159265358979;          401P    534
128,1,1,1,1,0,0,1,0,0,-0.001,-0.001,3.001,3.001,-0.001,-0.001,       403P    535
0.801,0.801,1.,1.,1.,1.,60.75,-0.01,50.01,60.75,-0.01,19.99,         403P    536
60.75,8.01,50.01,60.75,8.01,19.99,-0.001,3.001,-0.001,0.801;         403P    537
128,1,4,1,2,0,0,0,0,0,0.,0.,1.88235294117647,1.88235294117647,       405P    538
0.,0.,0.,1.5707963267949,1.5707963267949,3.14159265358979,           405P    539
3.14159265358979,3.14159265358979,1.,1.,0.707106781186548,           405P    540
0.707106781186548,1.,1.,0.707106781186548,0.707106781186548,1.,      405P    541
1.,60.75,0.,50.,60.75,8.,50.,60.75,0.,54.25,60.75,8.,54.25,65.,      405P    542
0.,54.25,65.,8.,54.25,69.25,0.,54.25,69.25,8.,54.25,69.25,0.,        405P    543
50.,69.25,8.,50.,0.,1.88235294117647,0.,3.14159265358979;            405P    544
128,1,1,1,1,0,0,1,0,0,-0.001,-0.001,3.001,3.001,-0.001,-0.001,       407P    545
0.801,0.801,1.,1.,1.,1.,69.25,-0.01,19.99,69.25,-0.01,50.01,         407P    546
69.25,8.01,19.99,69.25,8.01,50.01,-0.001,3.001,-0.001,0.801;         407P    547
128,1,4,1,2,0,0,0,0,0,0.,0.,1.88235294117647,1.88235294117647,       409P    548
0.,0.,0.,1.5707963267949,1.5707963267949,3.14159265358979,           409P    549
3.14159265358979,3.14159265358979,1.,1.,0.707106781186548,           409P    550
0.707106781186548,1.,1.,0.707106781186548,0.707106781186548,1.,      409P    551
1.,69.25,0.,20.,69.25,8.,20.,69.25,0.,15.75,69.25,8.,15.75,65.,      409P    552
0.,15.75,65.,8.,15.75,60.75,0.,15.75,60.75,8.,15.75,60.75,0.,        409P    553
20.,60.75,8.,20.,0.,1.88235294117647,0.,3.14159265358979;            409P    554
128,1,8,1,2,0,1,0,0,1,0.,0.,1.88235294117647,1.88235294117647,       411P    555
-3.14159265358979,-3.14159265358979,-3.14159265358979,               411P    556
-1.5707963267949,-1.5707963267949,0.,0.,1.5707963267949,             411P    557
1.5707963267949,3.14159265358979,3.14159265358979,                   411P    558
3.14159265358979,1.,1.,0.707106781186548,0.707106781186548,1.,       411P    559
1.,0.707106781186548,0.707106781186548,1.,1.,0.707106781186548,      411P    560
0.707106781186548,1.,1.,0.707106781186548,0.707106781186548,1.,      411P    561
1.,15.75,0.,45.,15.75,8.,45.,15.75,0.,49.25,15.75,8.,49.25,20.,      411P    562
0.,49.25,20.,8.,49.25,24.25,0.,49.25,24.25,8.,49.25,24.25,0.,        411P    563
45.,24.25,8.,45.,24.25,0.,40.75,24.25,8.,40.75,20.,0.,40.75,20.,     411P    564
8.,40.75,15.75,0.,40.75,15.75,8.,40.75,15.75,0.,45.,15.75,8.,        411P    565
45.,0.,1.88235294117647,-3.14159265358979,3.14159265358979;          411P    566
128,1,8,1,2,0,1,0,0,1,0.,0.,1.88235294117647,1.88235294117647,       413P    567
-3.14159265358979,-3.14159265358979,-3.14159265358979,               413P    568
-1.5707963267949,-1.5707963267949,0.,0.,1.5707963267949,             413P    569
1.5707963267949,3.14159265358979,3.14159265358979,                   413P    570
3.14159265358979,1.,1.,0.707106781186548,0.707106781186548,1.,       413P    571
1.,0.707106781186548,0.707106781186548,1.,1.,0.707106781186548,      413P    572
0.707106781186548,1.,1.,0.707106781186548,0.707106781186548,1.,      413P    573
1.,-24.25,0.,-15.,-24.25,8.,-15.,-24.25,0.,-10.75,-24.25,8.,         413P    574
-10.75,-20.,0.,-10.75,-20.,8.,-10.75,-15.75,0.,-10.75,-15.75,8.,     413P    575
-10.75,-15.75,0.,-15.,-15.75,8.,-15.,-15.75,0.,-19.25,-15.75,8.,     413P    576
-19.25,-20.,0.,-19.25,-20.,8.,-19.25,-24.25,0.,-19.25,-24.25,8.,     413P    577
-19.25,-24.25,0.,-15.,-24.25,8.,-15.,0.,1.88235294117647,            413P    578
-3.14159265358979,3.14159265358979;                                  413P    579
128,1,8,1,2,0,1,0,0,1,0.,0.,1.88235294117647,1.88235294117647,       415P    580
-3.14159265358979,-3.14159265358979,-3.14159265358979,               415P    581
-1.5707963267949,-1.5707963267949,0.,0.,1.5707963267949,             415P    582
1.5707963267949,3.14159265358979,3.14159265358979,                   415P    583
3.14159265358979,1.,1.,0.707106781186548,0.707106781186548,1.,       415P    584
1.,0.707106781186548,0.707106781186548,1.,1.,0.707106781186548,      415P    585
0.707106781186548,1.,1.,0.707106781186548,0.707106781186548,1.,      415P    586
1.,15.75,0.,-15.,15.75,8.,-15.,15.75,0.,-10.75,15.75,8.,-10.75,      415P    587
20.,0.,-10.75,20.,8.,-10.75,24.25,0.,-10.75,24.25,8.,-10.75,         415P    588
24.25,0.,-15.,24.25,8.,-15.,24.25,0.,-19.25,24.25,8.,-19.25,20.,     415P    589
0.,-19.25,20.,8.,-19.25,15.75,0.,-19.25,15.75,8.,-19.25,15.75,       415P    590
0.,-15.,15.75,8.,-15.,0.,1.88235294117647,-3.14159265358979,         415P    591
3.14159265358979;                                                    415P    592
128,1,8,1,2,0,1,0,0,1,0.,0.,1.88235294117647,1.88235294117647,       417P    593
-3.14159265358979,-3.14159265358979,-3.14159265358979,               417P    594
-1.5707963267949,-1.5707963267949,0.,0.,1.5707963267949,             417P    595
1.5707963267949,3.14159265358979,3.14159265358979,                   417P    596
3.14159265358979,1.,1.,0.707106781186548,0.707106781186548,1.,       417P    597
1.,0.707106781186548,0.707106781186548,1.,1.,0.707106781186548,      417P    598
0.707106781186548,1.,1.,0.707106781186548,0.707106781186548,1.,      417P    599
1.,-24.25,0.,-45.,-24.25,8.,-45.,-24.25,0.,-40.75,-24.25,8.,         417P    600
-40.75,-20.,0.,-40.75,-20.,8.,-40.75,-15.75,0.,-40.75,-15.75,8.,     417P    601
-40.75,-15.75,0.,-45.,-15.75,8.,-45.,-15.75,0.,-49.25,-15.75,8.,     417P    602
-49.25,-20.,0.,-49.25,-20.,8.,-49.25,-24.25,0.,-49.25,-24.25,8.,     417P    603
-49.25,-24.25,0.,-45.,-24.25,8.,-45.,0.,1.88235294117647,            417P    604
-3.14159265358979,3.14159265358979;                                  417P    605
128,1,8,1,2,0,1,0,0,1,0.,0.,1.88235294117647,1.88235294117647,       419P    606
-3.14159265358979,-3.14159265358979,-3.14159265358979,               419P    607
-1.5707963267949,-1.5707963267949,0.,0.,1.5707963267949,             419P    608
1.5707963267949,3.14159265358979,3.14159265358979,                   419P    609
3.14159265358979,1.,1.,0.707106781186548,0.707106781186548,1.,       419P    610
1.,0.707106781186548,0.707106781186548,1.,1.,0.707106781186548,      419P    611
0.707106781186548,1.,1.,0.707106781186548,0.707106781186548,1.,      419P    612
1.,-24.25,0.,15.,-24.25,8.,15.,-24.25,0.,19.25,-24.25,8.,19.25,      419P    613
-20.,0.,19.25,-20.,8.,19.25,-15.75,0.,19.25,-15.75,8.,19.25,         419P    614
-15.75,0.,15.,-15.75,8.,15.,-15.75,0.,10.75,-15.75,8.,10.75,         419P    615
-20.,0.,10.75,-20.,8.,10.75,-24.25,0.,10.75,-24.25,8.,10.75,         419P    616
-24.25,0.,15.,-24.25,8.,15.,0.,1.88235294117647,                     419P    617
-3.14159265358979,3.14159265358979;                                  419P    618
128,1,1,1,1,0,0,1,0,0,-0.001,-0.001,3.001,3.001,-0.001,-0.001,       421P    619
0.801,0.801,1.,1.,1.,1.,-69.25,-0.01,50.01,-69.25,-0.01,19.99,       421P    620
-69.25,8.01,50.01,-69.25,8.01,19.99,-0.001,3.001,-0.001,0.801;       421P    621
128,1,4,1,2,0,0,0,0,0,0.,0.,1.88235294117647,1.88235294117647,       423P    622
0.,0.,0.,1.5707963267949,1.5707963267949,3.14159265358979,           423P    623
3.14159265358979,3.14159265358979,1.,1.,0.707106781186548,           423P    624
0.707106781186548,1.,1.,0.707106781186548,0.707106781186548,1.,      423P    625
1.,-69.25,0.,50.,-69.25,8.,50.,-69.25,0.,54.25,-69.25,8.,54.25,      423P    626
-65.,0.,54.25,-65.,8.,54.25,-60.75,0.,54.25,-60.75,8.,54.25,         423P    627
-60.75,0.,50.,-60.75,8.,50.,0.,1.88235294117647,0.,                  423P    628
3.14159265358979;                                                    423P    629
128,1,1,1,1,0,0,1,0,0,-0.001,-0.001,3.001,3.001,-0.001,-0.001,       425P    630
0.801,0.801,1.,1.,1.,1.,-60.75,-0.01,19.99,-60.75,-0.01,50.01,       425P    631
-60.75,8.01,19.99,-60.75,8.01,50.01,-0.001,3.001,-0.001,0.801;       425P    632
128,1,4,1,2,0,0,0,0,0,0.,0.,1.88235294117647,1.88235294117647,       427P    633
0.,0.,0.,1.5707963267949,1.5707963267949,3.14159265358979,           427P    634
3.14159265358979,3.14159265358979,1.,1.,0.707106781186548,           427P    635
0.707106781186548,1.,1.,0.707106781186548,0.707106781186548,1.,      427P    636
1.,-60.75,0.,20.,-60.75,8.,20.,-60.75,0.,15.75,-60.75,8.,15.75,      427P    637
-65.,0.,15.75,-65.,8.,15.75,-69.25,0.,15.75,-69.25,8.,15.75,         427P    638
-69.25,0.,20.,-69.25,8.,20.,0.,1.88235294117647,0.,                  427P    639
3.14159265358979;                                                    427P    640
128,1,1,1,1,0,0,1,0,0,-0.00100000000000089,-0.00100000000000089,     429P    641
11.001,11.001,-0.001,-0.001,0.801,0.801,1.,1.,1.,1.,80.,-0.01,       429P    642
55.01,80.,-0.01,-55.01,80.,8.01,55.01,80.,8.01,-55.01,               429P    643
-0.00100000000000089,11.001,-0.001,0.801;                            429P    644
128,1,2,1,2,0,0,0,0,0,0.,0.,1.6,1.6,0.,0.,0.,1.5707963267949,        431P    645
1.5707963267949,1.5707963267949,1.,1.,0.707106781186548,             431P    646
0.707106781186548,1.,1.,75.,8.,60.,75.,0.,60.,80.,8.,60.,80.,0.,     431P    647
60.,80.,8.,55.,80.,0.,55.,0.,1.6,0.,1.5707963267949;                 431P    648
128,1,1,1,1,0,0,1,0,0,-0.00100000000000089,-0.00100000000000089,     433P    649
15.001,15.001,-0.001,-0.001,0.801,0.801,1.,1.,1.,1.,-75.01,          433P    650
-0.01,60.,75.01,-0.01,60.,-75.01,8.01,60.,75.01,8.01,60.,            433P    651
-0.00100000000000089,15.001,-0.001,0.801;                            433P    652
128,1,2,1,2,0,0,0,0,0,0.,0.,1.59999999999999,1.59999999999999,       435P    653
0.,0.,0.,1.5707963267949,1.5707963267949,1.5707963267949,1.,1.,      435P    654
0.707106781186548,0.707106781186548,1.,1.,-80.,8.,55.,-80.,0.,       435P    655
55.,-80.,8.,60.,-80.,0.,60.,-75.,8.,60.,-75.,0.,60.,0.,              435P    656
1.59999999999999,0.,1.5707963267949;                                 435P    657
128,1,1,1,1,0,0,1,0,0,-0.001,-0.001,11.001,11.001,-0.001,-0.001,     437P    658
0.801,0.801,1.,1.,1.,1.,-80.,-0.01,-55.01,-80.,-0.01,55.01,-80.,     437P    659
8.01,-55.01,-80.,8.01,55.01,-0.001,11.001,-0.001,0.801;              437P    660
128,1,2,1,2,0,0,0,0,0,0.,0.,1.6,1.6,0.,0.,0.,1.5707963267949,        439P    661
1.5707963267949,1.5707963267949,1.,1.,0.707106781186548,             439P    662
0.707106781186548,1.,1.,-75.,8.,-60.,-75.,0.,-60.,-80.,8.,-60.,      439P    663
-80.,0.,-60.,-80.,8.,-55.,-80.,0.,-55.,0.,1.6,0.,                    439P    664
1.5707963267949;                                                     439P    665
128,1,1,1,1,0,0,1,0,0,-0.001,-0.001,15.001,15.001,-0.001,-0.001,     441P    666
0.801,0.801,1.,1.,1.,1.,75.01,-0.01,-60.,-75.01,-0.01,-60.,          441P    667
75.01,8.01,-60.,-75.01,8.01,-60.,-0.001,15.001,-0.001,0.801;         441P    668
128,1,2,1,2,0,0,0,0,0,0.,0.,1.6,1.6,0.,0.,0.,1.5707963267949,        443P    669
1.5707963267949,1.5707963267949,1.,1.,0.707106781186548,             443P    670
0.707106781186548,1.,1.,80.,8.,-55.,80.,0.,-55.,80.,8.,-60.,80.,     443P    671
0.,-60.,75.,8.,-60.,75.,0.,-60.,0.,1.6,0.,1.5707963267949;           443P    672
128,1,1,1,1,0,0,1,0,0,-8.001,-8.001,8.001,8.001,-6.001,-6.001,       445P    673
6.001,6.001,1.,1.,1.,1.,-80.01,8.,60.01,80.01,8.,60.01,-80.01,       445P    674
8.,-60.01,80.01,8.,-60.01,-8.001,8.001,-6.001,6.001;                 445P    675
128,1,1,1,1,0,0,1,0,0,-8.001,-8.001,8.001,8.001,-6.001,-6.001,       447P    676
6.001,6.001,1.,1.,1.,1.,80.01,0.,60.01,-80.01,0.,60.01,80.01,0.,     447P    677
-60.01,-80.01,0.,-60.01,-8.001,8.001,-6.001,6.001;                   447P    678
502,64,15.75,8.,-45.,15.75,0.,-45.,-69.25,0.,-20.,-69.25,0.,         449P    679
-50.,-69.25,8.,-50.,-69.25,8.,-20.,-60.75,0.,-20.,-60.75,8.,         449P    680
-20.,-60.75,0.,-50.,-60.75,8.,-50.,60.75,0.,-20.,60.75,0.,-50.,      449P    681
60.75,8.,-50.,60.75,8.,-20.,69.25,0.,-20.,69.25,8.,-20.,69.25,       449P    682
0.,-50.,69.25,8.,-50.,-24.25,8.,45.,-24.25,0.,45.,15.75,8.,15.,      449P    683
15.75,0.,15.,60.75,0.,50.,60.75,0.,20.,60.75,8.,20.,60.75,8.,        449P    684
50.,69.25,0.,50.,69.25,8.,50.,69.25,0.,20.,69.25,8.,20.,15.75,       449P    685
8.,45.,15.75,0.,45.,-24.25,8.,-15.,-24.25,0.,-15.,15.75,8.,-15.,     449P    686
15.75,0.,-15.,-24.25,8.,-45.,-24.25,0.,-45.,-24.25,8.,15.,           449P    687
-24.25,0.,15.,-69.25,0.,50.,-69.25,0.,20.,-69.25,8.,20.,-69.25,      449P    688
8.,50.,-60.75,0.,50.,-60.75,8.,50.,-60.75,0.,20.,-60.75,8.,20.,      449P    689
80.,0.,-55.,80.,0.,55.,80.,8.,-55.,80.,8.,55.,75.,0.,60.,75.,8.,     449P    690
60.,-75.,0.,60.,-75.,8.,60.,-80.,0.,55.,-80.,8.,55.,-80.,0.,         449P    691
-55.,-80.,8.,-55.,-75.,0.,-60.,-75.,8.,-60.,75.,0.,-60.,75.,8.,      449P    692
-60.;                                                                449P    693
504,96,189,449,1,449,1,191,449,1,449,2,193,449,2,449,2,195,449,      451P    694
3,449,4,197,449,4,449,5,199,449,6,449,5,201,449,3,449,6,203,449,     451P    695
7,449,3,205,449,8,449,6,207,449,7,449,8,209,449,9,449,7,211,449,     451P    696
10,449,8,213,449,9,449,10,215,449,4,449,9,217,449,5,449,10,219,      451P    697
449,11,449,12,221,449,12,449,13,223,449,14,449,13,225,449,11,        451P    698
449,14,227,449,15,449,11,229,449,16,449,14,231,449,15,449,16,        451P    699
233,449,17,449,15,235,449,18,449,16,237,449,17,449,18,239,449,       451P    700
12,449,17,241,449,13,449,18,243,449,19,449,19,245,449,19,449,20,     451P    701
247,449,20,449,20,249,449,21,449,21,251,449,21,449,22,253,449,       451P    702
22,449,22,255,449,23,449,24,257,449,24,449,25,259,449,26,449,25,     451P    703
261,449,23,449,26,263,449,27,449,23,265,449,28,449,26,267,449,       451P    704
27,449,28,269,449,29,449,27,271,449,30,449,28,273,449,29,449,30,     451P    705
275,449,24,449,29,277,449,25,449,30,279,449,31,449,31,281,449,       451P    706
31,449,32,283,449,32,449,32,285,449,33,449,33,287,449,33,449,34,     451P    707
289,449,34,449,34,291,449,35,449,35,293,449,35,449,36,295,449,       451P    708
36,449,36,297,449,37,449,37,299,449,37,449,38,301,449,38,449,38,     451P    709
303,449,39,449,39,305,449,39,449,40,307,449,40,449,40,309,449,       451P    710
41,449,42,311,449,42,449,43,313,449,44,449,43,315,449,41,449,44,     451P    711
317,449,45,449,41,319,449,46,449,44,321,449,45,449,46,323,449,       451P    712
47,449,45,325,449,48,449,46,327,449,47,449,48,329,449,42,449,47,     451P    713
331,449,43,449,48,333,449,49,449,50,335,449,49,449,51,337,449,       451P    714
52,449,51,339,449,50,449,52,341,449,53,449,50,343,449,54,449,52,     451P    715
345,449,53,449,54,347,449,53,449,55,349,449,56,449,54,351,449,       451P    716
55,449,56,353,449,57,449,55,355,449,58,449,56,357,449,57,449,58,     451P    717
359,449,57,449,59,361,449,60,449,58,363,449,59,449,60,365,449,       451P    718
61,449,59,367,449,62,449,60,369,449,61,449,62,371,449,61,449,63,     451P    719
373,449,64,449,62,375,449,63,449,64,377,449,49,449,63,379,449,       451P    720
51,449,64;                                                           451P    721
406,1,5HBody1;                                                       453P    722
314,96.078431372549,96.078431372549,96.4705882352941,16HAluminum     455P    723
 - Satin;                                                            455P    724
S      1G      3D    456P    724                                        T      1
