                                                                        S      1
,,23HZ EKSEN MOTOR FLANSI v1,23HZ EKSEN MOTOR FLANSI v1,7Hunknown,7HunknG      1
own,32,38,7,99,15,,1.,2,2HMM,1,0.08,15H20181125.005530,0.01,10000.,9HlimG      2
itness,7Hunknown,11,0,15H20180906.080729;                               G      3
     186       1                                                00000000D      1
     186            -303       1       0                               0D      2
     514       2                                                00010000D      3
     514                       2       1                               0D      4
     510       4                                                00010000D      5
     510            -303       1       1                               0D      6
     510       5                                                00010000D      7
     510            -303       1       1                               0D      8
     510       6                                                00010000D      9
     510            -303       1       1                               0D     10
     510       7                                                00010000D     11
     510            -303       1       1                               0D     12
     510       8                                                00010000D     13
     510            -303       1       1                               0D     14
     510       9                                                00010000D     15
     510            -303       1       1                               0D     16
     510      10                                                00010000D     17
     510            -303       1       1                               0D     18
     510      11                                                00010000D     19
     510            -303       1       1                               0D     20
     510      12                                                00010000D     21
     510            -303       1       1                               0D     22
     510      13                                                00010000D     23
     510            -303       1       1                               0D     24
     510      14                                                00010000D     25
     510            -303       1       1                               0D     26
     510      15                                                00010000D     27
     510            -303       1       1                               0D     28
     510      16                                                00010000D     29
     510            -303       1       1                               0D     30
     510      17                                                00010000D     31
     510            -303       1       1                               0D     32
     510      18                                                00010000D     33
     510            -303       1       1                               0D     34
     510      19                                                00010000D     35
     510            -303       1       1                               0D     36
     510      20                                                00010000D     37
     510            -303       1       1                               0D     38
     510      21                                                00010000D     39
     510            -303       1       1                               0D     40
     510      22                                                00010000D     41
     510            -303       1       1                               0D     42
     510      23                                                00010000D     43
     510            -303       1       1                               0D     44
     510      24                                                00010000D     45
     510            -303       1       1                               0D     46
     510      25                                                00010000D     47
     510            -303       1       1                               0D     48
     510      26                                                00010000D     49
     510            -303       1       1                               0D     50
     508      27                                                00010000D     51
     508                       1       1                               0D     52
     508      28                                                00010000D     53
     508                       1       1                               0D     54
     508      29                                                00010000D     55
     508                       1       1                               0D     56
     508      30                                                00010000D     57
     508                       1       1                               0D     58
     508      31                                                00010000D     59
     508                       1       1                               0D     60
     508      32                                                00010000D     61
     508                       1       1                               0D     62
     508      33                                                00010000D     63
     508                       1       1                               0D     64
     508      34                                                00010000D     65
     508                       1       1                               0D     66
     508      35                                                00010000D     67
     508                       1       1                               0D     68
     508      36                                                00010000D     69
     508                       1       1                               0D     70
     508      37                                                00010000D     71
     508                       1       1                               0D     72
     508      38                                                00010000D     73
     508                       1       1                               0D     74
     508      39                                                00010000D     75
     508                       1       1                               0D     76
     508      40                                                00010000D     77
     508                       1       1                               0D     78
     508      41                                                00010000D     79
     508                       1       1                               0D     80
     508      42                                                00010000D     81
     508                       1       1                               0D     82
     508      43                                                00010000D     83
     508                       1       1                               0D     84
     508      44                                                00010000D     85
     508                       1       1                               0D     86
     508      45                                                00010000D     87
     508                       1       1                               0D     88
     508      46                                                00010000D     89
     508                       1       1                               0D     90
     508      47                                                00010000D     91
     508                       1       1                               0D     92
     508      48                                                00010000D     93
     508                       2       1                               0D     94
     508      50                                                00010000D     95
     508                       1       1                               0D     96
     508      51                                                00010000D     97
     508                       1       1                               0D     98
     508      52                                                00010000D     99
     508                       1       1                               0D    100
     508      53                                                00010000D    101
     508                       1       1                               0D    102
     508      54                                                00010000D    103
     508                       1       1                               0D    104
     508      55                                                00010000D    105
     508                       1       1                               0D    106
     508      56                                                00010000D    107
     508                       1       1                               0D    108
     508      57                                                00010000D    109
     508                       2       1                               0D    110
     508      59                                                00010000D    111
     508                       1       1                               0D    112
     508      60                                                00010000D    113
     508                       1       1                               0D    114
     508      61                                                00010000D    115
     508                       1       1                               0D    116
     508      62                                                00010000D    117
     508                       1       1                               0D    118
     508      63                                                00010000D    119
     508                       1       1                               0D    120
     508      64                                                00010000D    121
     508                       1       1                               0D    122
     508      65                                                00010000D    123
     508                       1       1                               0D    124
     126      66                                                00010000D    125
     126       0               2       0                               0D    126
     126      68                                                00010000D    127
     126       0               2       0                               0D    128
     126      70                                                00010000D    129
     126       0               2       0                               0D    130
     126      72                                                00010000D    131
     126       0               2       0                               0D    132
     126      74                                                00010000D    133
     126       0               6       0                               0D    134
     126      80                                                00010000D    135
     126       0               6       0                               0D    136
     126      86                                                00010000D    137
     126       0               2       0                               0D    138
     126      88                                                00010000D    139
     126       0               2       0                               0D    140
     126      90                                                00010000D    141
     126       0               2       0                               0D    142
     126      92                                                00010000D    143
     126       0               2       0                               0D    144
     126      94                                                00010000D    145
     126       0               6       0                               0D    146
     126     100                                                00010000D    147
     126       0               6       0                               0D    148
     126     106                                                00010000D    149
     126       0               2       0                               0D    150
     126     108                                                00010000D    151
     126       0               2       0                               0D    152
     126     110                                                00010000D    153
     126       0               2       0                               0D    154
     126     112                                                00010000D    155
     126       0               2       0                               0D    156
     126     114                                                00010000D    157
     126       0               6       0                               0D    158
     126     120                                                00010000D    159
     126       0               6       0                               0D    160
     126     126                                                00010000D    161
     126       0               2       0                               0D    162
     126     128                                                00010000D    163
     126       0               2       0                               0D    164
     126     130                                                00010000D    165
     126       0               2       0                               0D    166
     126     132                                                00010000D    167
     126       0               2       0                               0D    168
     126     134                                                00010000D    169
     126       0               6       0                               0D    170
     126     140                                                00010000D    171
     126       0               6       0                               0D    172
     126     146                                                00010000D    173
     126       0               8       0                               0D    174
     126     154                                                00010000D    175
     126       0               2       0                               0D    176
     126     156                                                00010000D    177
     126       0               8       0                               0D    178
     126     164                                                00010000D    179
     126       0               8       0                               0D    180
     126     172                                                00010000D    181
     126       0               2       0                               0D    182
     126     174                                                00010000D    183
     126       0               8       0                               0D    184
     126     182                                                00010000D    185
     126       0              10       0                               0D    186
     126     192                                                00010000D    187
     126       0               2       0                               0D    188
     126     194                                                00010000D    189
     126       0              10       0                               0D    190
     126     204                                                00010000D    191
     126       0               9       0                               0D    192
     126     213                                                00010000D    193
     126       0               2       0                               0D    194
     126     215                                                00010000D    195
     126       0               9       0                               0D    196
     126     224                                                00010000D    197
     126       0              10       0                               0D    198
     126     234                                                00010000D    199
     126       0               2       0                               0D    200
     126     236                                                00010000D    201
     126       0              10       0                               0D    202
     126     246                                                00010000D    203
     126       0               2       0                               0D    204
     126     248                                                00010000D    205
     126       0               2       0                               0D    206
     126     250                                                00010000D    207
     126       0               2       0                               0D    208
     126     252                                                00010000D    209
     126       0               2       0                               0D    210
     126     254                                                00010000D    211
     126       0               3       0                               0D    212
     126     257                                                00010000D    213
     126       0               3       0                               0D    214
     126     260                                                00010000D    215
     126       0               2       0                               0D    216
     126     262                                                00010000D    217
     126       0               2       0                               0D    218
     126     264                                                00010000D    219
     126       0               2       0                               0D    220
     126     266                                                00010000D    221
     126       0               2       0                               0D    222
     126     268                                                00010000D    223
     126       0               3       0                               0D    224
     126     271                                                00010000D    225
     126       0               3       0                               0D    226
     126     274                                                00010000D    227
     126       0               2       0                               0D    228
     126     276                                                00010000D    229
     126       0               2       0                               0D    230
     126     278                                                00010000D    231
     126       0               2       0                               0D    232
     126     280                                                00010000D    233
     126       0               2       0                               0D    234
     126     282                                                00010000D    235
     126       0               3       0                               0D    236
     126     285                                                00010000D    237
     126       0               3       0                               0D    238
     126     288                                                00010000D    239
     126       0               2       0                               0D    240
     126     290                                                00010000D    241
     126       0               2       0                               0D    242
     126     292                                                00010000D    243
     126       0               2       0                               0D    244
     126     294                                                00010000D    245
     126       0               2       0                               0D    246
     126     296                                                00010000D    247
     126       0               3       0                               0D    248
     126     299                                                00010000D    249
     126       0               3       0                               0D    250
     128     302                                                00010000D    251
     128       0    -303       4       0                               0D    252
     128     306                                                00010000D    253
     128       0    -303      10       0                               0D    254
     128     316                                                00010000D    255
     128       0    -303       4       0                               0D    256
     128     320                                                00010000D    257
     128       0    -303      10       0                               0D    258
     128     330                                                00010000D    259
     128       0    -303       4       0                               0D    260
     128     334                                                00010000D    261
     128       0    -303      10       0                               0D    262
     128     344                                                00010000D    263
     128       0    -303       4       0                               0D    264
     128     348                                                00010000D    265
     128       0    -303      10       0                               0D    266
     128     358                                                00010000D    267
     128       0    -303      12       0                               0D    268
     128     370                                                00010000D    269
     128       0    -303      12       0                               0D    270
     128     382                                                00010000D    271
     128       0    -303      15       0                               0D    272
     128     397                                                00010000D    273
     128       0    -303      12       0                               0D    274
     128     409                                                00010000D    275
     128       0    -303      15       0                               0D    276
     128     424                                                00010000D    277
     128       0    -303       3       0                               0D    278
     128     427                                                00010000D    279
     128       0    -303       4       0                               0D    280
     128     431                                                00010000D    281
     128       0    -303       3       0                               0D    282
     128     434                                                00010000D    283
     128       0    -303       4       0                               0D    284
     128     438                                                00010000D    285
     128       0    -303       3       0                               0D    286
     128     441                                                00010000D    287
     128       0    -303       4       0                               0D    288
     128     445                                                00010000D    289
     128       0    -303       3       0                               0D    290
     128     448                                                00010000D    291
     128       0    -303       5       0                               0D    292
     128     453                                                00010000D    293
     128       0    -303       3       0                               0D    294
     128     456                                                00010000D    295
     128       0    -303       3       0                               0D    296
     502     459                                                00010000D    297
     502                      14       1                               0D    298
     504     473                                                00010001D    299
     504                      18       1                               0D    300
     406     491                                                00000000D    301
     406                       1      15                               0D    302
     314     492                                                00000200D    303
     314                       2       0                               0D    304
186,3,1,0,0,1,301;                                                     1P      1
514,23,5,1,7,1,9,1,11,1,13,1,15,1,17,1,19,1,21,1,23,1,25,1,27,1,       3P      2
29,1,31,1,33,1,35,1,37,1,39,1,41,1,43,1,45,1,47,1,49,1;                3P      3
510,251,1,1,51;                                                        5P      4
510,253,1,1,53;                                                        7P      5
510,255,1,1,55;                                                        9P      6
510,257,1,1,57;                                                       11P      7
510,259,1,1,59;                                                       13P      8
510,261,1,1,61;                                                       15P      9
510,263,1,1,63;                                                       17P     10
510,265,1,1,65;                                                       19P     11
510,267,1,1,67;                                                       21P     12
510,269,1,1,69;                                                       23P     13
510,271,1,1,71;                                                       25P     14
510,273,1,1,73;                                                       27P     15
510,275,1,1,75;                                                       29P     16
510,277,1,1,77;                                                       31P     17
510,279,1,1,79;                                                       33P     18
510,281,1,1,81;                                                       35P     19
510,283,1,1,83;                                                       37P     20
510,285,1,1,85;                                                       39P     21
510,287,1,1,87;                                                       41P     22
510,289,1,1,89;                                                       43P     23
510,291,1,1,91;                                                       45P     24
510,293,8,1,93,95,97,99,101,103,105,107;                              47P     25
510,295,8,1,109,111,113,115,117,119,121,123;                          49P     26
508,4,0,299,1,1,0,0,299,2,1,0,0,299,3,0,0,0,299,4,0,0;                51P     27
508,4,0,299,5,1,0,0,299,4,1,0,0,299,6,0,0,0,299,7,0,0;                53P     28
508,4,0,299,8,1,0,0,299,7,1,0,0,299,9,0,0,0,299,10,0,0;               55P     29
508,4,0,299,11,1,0,0,299,10,1,0,0,299,12,0,0,0,299,2,0,0;             57P     30
508,4,0,299,13,1,0,0,299,14,1,0,0,299,15,0,0,0,299,16,0,0;            59P     31
508,4,0,299,17,1,0,0,299,16,1,0,0,299,18,0,0,0,299,19,0,0;            61P     32
508,4,0,299,20,1,0,0,299,19,1,0,0,299,21,0,0,0,299,22,0,0;            63P     33
508,4,0,299,23,1,0,0,299,22,1,0,0,299,24,0,0,0,299,14,0,0;            65P     34
508,4,0,299,25,0,0,0,299,26,1,0,0,299,27,1,0,0,299,26,0,0;            67P     35
508,4,0,299,28,0,0,0,299,29,1,0,0,299,30,1,0,0,299,29,0,0;            69P     36
508,4,0,299,31,0,0,0,299,32,1,0,0,299,33,1,0,0,299,32,0,0;            71P     37
508,4,0,299,34,0,0,0,299,35,1,0,0,299,36,1,0,0,299,35,0,0;            73P     38
508,4,0,299,37,0,0,0,299,38,1,0,0,299,39,1,0,0,299,38,0,0;            75P     39
508,4,0,299,40,1,0,0,299,41,1,0,0,299,42,0,0,0,299,43,0,0;            77P     40
508,4,0,299,44,1,0,0,299,43,1,0,0,299,45,0,0,0,299,46,0,0;            79P     41
508,4,0,299,47,1,0,0,299,46,1,0,0,299,48,0,0,0,299,49,0,0;            81P     42
508,4,0,299,50,1,0,0,299,49,1,0,0,299,51,0,0,0,299,52,0,0;            83P     43
508,4,0,299,53,1,0,0,299,52,1,0,0,299,54,0,0,0,299,55,0,0;            85P     44
508,4,0,299,56,1,0,0,299,55,1,0,0,299,57,0,0,0,299,58,0,0;            87P     45
508,4,0,299,59,1,0,0,299,58,1,0,0,299,60,0,0,0,299,61,0,0;            89P     46
508,4,0,299,62,1,0,0,299,61,1,0,0,299,63,0,0,0,299,41,0,0;            91P     47
508,8,0,299,63,1,0,0,299,60,1,0,0,299,57,1,0,0,299,54,1,0,0,299,      93P     48
51,1,0,0,299,48,1,0,0,299,45,1,0,0,299,42,1,0;                        93P     49
508,1,0,299,37,1,0;                                                   95P     50
508,1,0,299,34,1,0;                                                   97P     51
508,1,0,299,31,1,0;                                                   99P     52
508,1,0,299,28,1,0;                                                  101P     53
508,1,0,299,25,1,0;                                                  103P     54
508,4,0,299,24,1,0,0,299,21,1,0,0,299,18,1,0,0,299,15,1,0;           105P     55
508,4,0,299,12,1,0,0,299,9,1,0,0,299,6,1,0,0,299,3,1,0;              107P     56
508,8,0,299,62,0,0,0,299,40,0,0,0,299,44,0,0,0,299,47,0,0,0,299,     109P     57
50,0,0,0,299,53,0,0,0,299,56,0,0,0,299,59,0,0;                       109P     58
508,1,0,299,39,0,0;                                                  111P     59
508,1,0,299,36,0,0;                                                  113P     60
508,1,0,299,33,0,0;                                                  115P     61
508,1,0,299,30,0,0;                                                  117P     62
508,1,0,299,27,0,0;                                                  119P     63
508,4,0,299,23,0,0,0,299,13,0,0,0,299,17,0,0,0,299,20,0,0;           121P     64
508,4,0,299,11,0,0,0,299,1,0,0,0,299,5,0,0,0,299,8,0,0;              123P     65
126,1,1,0,0,1,0,-3.,-3.,0.,0.,1.,1.,39.25,-59.9999999999999,0.,      125P     66
39.25,-29.9999999999999,0.,-3.,0.,0.,0.,0.;                          125P     67
126,1,1,0,0,1,0,0.,0.,0.8,0.8,1.,1.,39.25,-29.9999999999999,0.,      127P     68
39.25,-29.9999999999999,8.,0.,0.8,0.,0.,0.;                          127P     69
126,1,1,0,0,1,0,-3.,-3.,0.,0.,1.,1.,39.25,-59.9999999999999,8.,      129P     70
39.25,-29.9999999999999,8.,-3.,0.,0.,0.,0.;                          129P     71
126,1,1,0,0,1,0,0.,0.,0.8,0.8,1.,1.,39.25,-59.9999999999999,0.,      131P     72
39.25,-59.9999999999999,8.,0.,0.8,0.,0.,0.;                          131P     73
126,4,2,0,0,0,0,-3.14159265358979,-3.14159265358979,                 133P     74
-3.14159265358979,-1.5707963267949,-1.5707963267949,0.,0.,0.,1.,     133P     75
0.707106781186553,1.,0.707106781186553,1.,45.75,                     133P     76
-59.9999999999999,0.,45.75,-63.2499999999999,0.,42.5,                133P     77
-63.2499999999999,0.,39.25,-63.2499999999999,0.,39.25,               133P     78
-59.9999999999999,0.,-3.14159265358979,0.,0.,0.,0.;                  133P     79
126,4,2,0,0,0,0,-3.14159265358979,-3.14159265358979,                 135P     80
-3.14159265358979,-1.5707963267949,-1.5707963267949,0.,0.,0.,1.,     135P     81
0.707106781186553,1.,0.707106781186553,1.,45.75,                     135P     82
-59.9999999999999,8.,45.75,-63.2499999999999,8.,42.5,                135P     83
-63.2499999999999,8.,39.25,-63.2499999999999,8.,39.25,               135P     84
-59.9999999999999,8.,-3.14159265358979,0.,0.,0.,0.;                  135P     85
126,1,1,0,0,1,0,0.,0.,0.8,0.8,1.,1.,45.75,-59.9999999999999,0.,      137P     86
45.75,-59.9999999999999,8.,0.,0.8,0.,0.,0.;                          137P     87
126,1,1,0,0,1,0,-3.,-3.,0.,0.,1.,1.,45.75,-29.9999999999999,0.,      139P     88
45.75,-59.9999999999999,0.,-3.,0.,0.,0.,0.;                          139P     89
126,1,1,0,0,1,0,-3.,-3.,0.,0.,1.,1.,45.75,-29.9999999999999,8.,      141P     90
45.75,-59.9999999999999,8.,-3.,0.,0.,0.,0.;                          141P     91
126,1,1,0,0,1,0,0.,0.,0.8,0.8,1.,1.,45.75,-29.9999999999999,0.,      143P     92
45.75,-29.9999999999999,8.,0.,0.8,0.,0.,0.;                          143P     93
126,4,2,0,0,0,0,-3.14159265358979,-3.14159265358979,                 145P     94
-3.14159265358979,-1.5707963267949,-1.5707963267949,0.,0.,0.,1.,     145P     95
0.707106781186549,1.,0.707106781186549,1.,39.25,                     145P     96
-29.9999999999999,0.,39.25,-26.7499999999999,0.,42.5,                145P     97
-26.7499999999999,0.,45.75,-26.7499999999999,0.,45.75,               145P     98
-29.9999999999999,0.,-3.14159265358979,0.,0.,0.,0.;                  145P     99
126,4,2,0,0,0,0,-3.14159265358979,-3.14159265358979,                 147P    100
-3.14159265358979,-1.5707963267949,-1.5707963267949,0.,0.,0.,1.,     147P    101
0.707106781186549,1.,0.707106781186549,1.,39.25,                     147P    102
-29.9999999999999,8.,39.25,-26.7499999999999,8.,42.5,                147P    103
-26.7499999999999,8.,45.75,-26.7499999999999,8.,45.75,               147P    104
-29.9999999999999,8.,-3.14159265358979,0.,0.,0.,0.;                  147P    105
126,1,1,0,0,1,0,-3.,-3.,0.,0.,1.,1.,-39.25,-29.9999999999999,0.,     149P    106
-39.25,-59.9999999999999,0.,-3.,0.,0.,0.,0.;                         149P    107
126,1,1,0,0,1,0,0.,0.,0.8,0.8,1.,1.,-39.25,-59.9999999999999,0.,     151P    108
-39.25,-59.9999999999999,8.,0.,0.8,0.,0.,0.;                         151P    109
126,1,1,0,0,1,0,-3.,-3.,0.,0.,1.,1.,-39.25,-29.9999999999999,8.,     153P    110
-39.25,-59.9999999999999,8.,-3.,0.,0.,0.,0.;                         153P    111
126,1,1,0,0,1,0,0.,0.,0.8,0.8,1.,1.,-39.25,-29.9999999999999,0.,     155P    112
-39.25,-29.9999999999999,8.,0.,0.8,0.,0.,0.;                         155P    113
126,4,2,0,0,0,0,-3.14159265358979,-3.14159265358979,                 157P    114
-3.14159265358979,-1.5707963267949,-1.5707963267949,0.,0.,0.,1.,     157P    115
0.707106781186549,1.,0.707106781186549,1.,-45.75,                    157P    116
-29.9999999999999,0.,-45.75,-26.7499999999999,0.,-42.5,              157P    117
-26.7499999999999,0.,-39.25,-26.7499999999999,0.,-39.25,             157P    118
-29.9999999999999,0.,-3.14159265358979,0.,0.,0.,0.;                  157P    119
126,4,2,0,0,0,0,-3.14159265358979,-3.14159265358979,                 159P    120
-3.14159265358979,-1.5707963267949,-1.5707963267949,0.,0.,0.,1.,     159P    121
0.707106781186549,1.,0.707106781186549,1.,-45.75,                    159P    122
-29.9999999999999,8.,-45.75,-26.7499999999999,8.,-42.5,              159P    123
-26.7499999999999,8.,-39.25,-26.7499999999999,8.,-39.25,             159P    124
-29.9999999999999,8.,-3.14159265358979,0.,0.,0.,0.;                  159P    125
126,1,1,0,0,1,0,0.,0.,0.8,0.8,1.,1.,-45.75,-29.9999999999999,0.,     161P    126
-45.75,-29.9999999999999,8.,0.,0.8,0.,0.,0.;                         161P    127
126,1,1,0,0,1,0,-3.,-3.,0.,0.,1.,1.,-45.75,-59.9999999999999,0.,     163P    128
-45.75,-29.9999999999999,0.,-3.,0.,0.,0.,0.;                         163P    129
126,1,1,0,0,1,0,-3.,-3.,0.,0.,1.,1.,-45.75,-59.9999999999999,8.,     165P    130
-45.75,-29.9999999999999,8.,-3.,0.,0.,0.,0.;                         165P    131
126,1,1,0,0,1,0,0.,0.,0.8,0.8,1.,1.,-45.75,-59.9999999999999,0.,     167P    132
-45.75,-59.9999999999999,8.,0.,0.8,0.,0.,0.;                         167P    133
126,4,2,0,0,0,0,-3.14159265358979,-3.14159265358979,                 169P    134
-3.14159265358979,-1.5707963267949,-1.5707963267949,0.,0.,0.,1.,     169P    135
0.707106781186553,1.,0.707106781186553,1.,-39.25,                    169P    136
-59.9999999999999,0.,-39.25,-63.2499999999999,0.,-42.5,              169P    137
-63.2499999999999,0.,-45.75,-63.2499999999999,0.,-45.75,             169P    138
-59.9999999999999,0.,-3.14159265358979,0.,0.,0.,0.;                  169P    139
126,4,2,0,0,0,0,-3.14159265358979,-3.14159265358979,                 171P    140
-3.14159265358979,-1.5707963267949,-1.5707963267949,0.,0.,0.,1.,     171P    141
0.707106781186553,1.,0.707106781186553,1.,-39.25,                    171P    142
-59.9999999999999,8.,-39.25,-63.2499999999999,8.,-42.5,              171P    143
-63.2499999999999,8.,-45.75,-63.2499999999999,8.,-45.75,             171P    144
-59.9999999999999,8.,-3.14159265358979,0.,0.,0.,0.;                  171P    145
126,8,2,0,1,0,0,-3.14159265358979,-3.14159265358979,                 173P    146
-3.14159265358979,-1.5707963267949,-1.5707963267949,0.,0.,           173P    147
1.5707963267949,1.5707963267949,3.14159265358979,                    173P    148
3.14159265358979,3.14159265358979,1.,0.707106781186545,1.,           173P    149
0.707106781186545,1.,0.707106781186545,1.,0.707106781186545,1.,      173P    150
32.3,61.8,8.,32.3,64.3,8.,34.8,64.3,8.,37.3,64.3,8.,37.3,61.8,       173P    151
8.,37.3,59.3,8.,34.8,59.3,8.,32.3,59.3,8.,32.3,61.8,8.,              173P    152
-3.14159265358979,3.14159265358979,0.,0.,0.;                         173P    153
126,1,1,0,0,1,0,-3.2,-3.2,0.,0.,1.,1.,32.3,61.8,8.,32.3,61.8,0.,     175P    154
-3.2,0.,0.,0.,0.;                                                    175P    155
126,8,2,0,1,0,0,-3.14159265358979,-3.14159265358979,                 177P    156
-3.14159265358979,-1.5707963267949,-1.5707963267949,0.,0.,           177P    157
1.5707963267949,1.5707963267949,3.14159265358979,                    177P    158
3.14159265358979,3.14159265358979,1.,0.707106781186545,1.,           177P    159
0.707106781186545,1.,0.707106781186545,1.,0.707106781186545,1.,      177P    160
32.3,61.8,0.,32.3,64.3,0.,34.8,64.3,0.,37.3,64.3,0.,37.3,61.8,       177P    161
0.,37.3,59.3,0.,34.8,59.3,0.,32.3,59.3,0.,32.3,61.8,0.,              177P    162
-3.14159265358979,3.14159265358979,0.,0.,0.;                         177P    163
126,8,2,0,1,0,0,-3.14159265358979,-3.14159265358979,                 179P    164
-3.14159265358979,-1.5707963267949,-1.5707963267949,0.,0.,           179P    165
1.5707963267949,1.5707963267949,3.14159265358979,                    179P    166
3.14159265358979,3.14159265358979,1.,0.707106781186545,1.,           179P    167
0.707106781186545,1.,0.707106781186545,1.,0.707106781186545,1.,      179P    168
-37.3,61.8,8.,-37.3,64.3,8.,-34.8,64.3,8.,-32.3,64.3,8.,-32.3,       179P    169
61.8,8.,-32.3,59.3,8.,-34.8,59.3,8.,-37.3,59.3,8.,-37.3,61.8,8.,     179P    170
-3.14159265358979,3.14159265358979,0.,0.,0.;                         179P    171
126,1,1,0,0,1,0,-3.2,-3.2,0.,0.,1.,1.,-37.3,61.8,8.,-37.3,61.8,      181P    172
0.,-3.2,0.,0.,0.,0.;                                                 181P    173
126,8,2,0,1,0,0,-3.14159265358979,-3.14159265358979,                 183P    174
-3.14159265358979,-1.5707963267949,-1.5707963267949,0.,0.,           183P    175
1.5707963267949,1.5707963267949,3.14159265358979,                    183P    176
3.14159265358979,3.14159265358979,1.,0.707106781186545,1.,           183P    177
0.707106781186545,1.,0.707106781186545,1.,0.707106781186545,1.,      183P    178
-37.3,61.8,0.,-37.3,64.3,0.,-34.8,64.3,0.,-32.3,64.3,0.,-32.3,       183P    179
61.8,0.,-32.3,59.3,0.,-34.8,59.3,0.,-37.3,59.3,0.,-37.3,61.8,0.,     183P    180
-3.14159265358979,3.14159265358979,0.,0.,0.;                         183P    181
126,8,2,0,1,0,0,-3.14159265358979,-3.14159265358979,                 185P    182
-3.14159265358979,-1.5707963267949,-1.5707963267949,0.,0.,           185P    183
1.5707963267949,1.5707963267949,3.14159265358979,                    185P    184
3.14159265358979,3.14159265358979,1.,0.707106781186548,1.,           185P    185
0.707106781186548,1.,0.707106781186548,1.,0.707106781186548,1.,      185P    186
32.3,-7.79999999999998,8.,32.3,-5.29999999999998,8.,34.8,            185P    187
-5.29999999999998,8.,37.3,-5.29999999999998,8.,37.3,                 185P    188
-7.79999999999998,8.,37.3,-10.3,8.,34.8,-10.3,8.,32.3,-10.3,8.,      185P    189
32.3,-7.79999999999998,8.,-3.14159265358979,3.14159265358979,0.,     185P    190
0.,0.;                                                               185P    191
126,1,1,0,0,1,0,-3.2,-3.2,0.,0.,1.,1.,32.3,-7.79999999999998,8.,     187P    192
32.3,-7.79999999999998,0.,-3.2,0.,0.,0.,0.;                          187P    193
126,8,2,0,1,0,0,-3.14159265358979,-3.14159265358979,                 189P    194
-3.14159265358979,-1.5707963267949,-1.5707963267949,0.,0.,           189P    195
1.5707963267949,1.5707963267949,3.14159265358979,                    189P    196
3.14159265358979,3.14159265358979,1.,0.707106781186548,1.,           189P    197
0.707106781186548,1.,0.707106781186548,1.,0.707106781186548,1.,      189P    198
32.3,-7.79999999999998,0.,32.3,-5.29999999999998,0.,34.8,            189P    199
-5.29999999999998,0.,37.3,-5.29999999999998,0.,37.3,                 189P    200
-7.79999999999998,0.,37.3,-10.3,0.,34.8,-10.3,0.,32.3,-10.3,0.,      189P    201
32.3,-7.79999999999998,0.,-3.14159265358979,3.14159265358979,0.,     189P    202
0.,0.;                                                               189P    203
126,8,2,0,1,0,0,-3.14159265358979,-3.14159265358979,                 191P    204
-3.14159265358979,-1.5707963267949,-1.5707963267949,0.,0.,           191P    205
1.5707963267949,1.5707963267949,3.14159265358979,                    191P    206
3.14159265358979,3.14159265358979,1.,0.707106781186547,1.,           191P    207
0.707106781186547,1.,0.707106781186548,1.,0.707106781186547,1.,      191P    208
-20.,27.,8.,-20.,47.,8.,1.22464679914735D-15,47.,8.,20.,47.,8.,      191P    209
20.,27.,8.,20.,7.00000000000002,8.,1.22464679914735D-15,             191P    210
7.00000000000002,8.,-20.,7.00000000000002,8.,-20.,27.,8.,            191P    211
-3.14159265358979,3.14159265358979,0.,0.,0.;                         191P    212
126,1,1,0,0,1,0,-0.4,-0.4,0.,0.,1.,1.,-20.,27.,8.,-20.,27.,0.,       193P    213
-0.4,0.,0.,0.,0.;                                                    193P    214
126,8,2,0,1,0,0,-3.14159265358979,-3.14159265358979,                 195P    215
-3.14159265358979,-1.5707963267949,-1.5707963267949,0.,0.,           195P    216
1.5707963267949,1.5707963267949,3.14159265358979,                    195P    217
3.14159265358979,3.14159265358979,1.,0.707106781186547,1.,           195P    218
0.707106781186547,1.,0.707106781186548,1.,0.707106781186547,1.,      195P    219
-20.,27.,0.,-20.,47.,0.,1.22464679914735D-15,47.,0.,20.,47.,0.,      195P    220
20.,27.,0.,20.,7.00000000000002,0.,1.22464679914735D-15,             195P    221
7.00000000000002,0.,-20.,7.00000000000002,0.,-20.,27.,0.,            195P    222
-3.14159265358979,3.14159265358979,0.,0.,0.;                         195P    223
126,8,2,0,1,0,0,-3.14159265358979,-3.14159265358979,                 197P    224
-3.14159265358979,-1.5707963267949,-1.5707963267949,0.,0.,           197P    225
1.5707963267949,1.5707963267949,3.14159265358979,                    197P    226
3.14159265358979,3.14159265358979,1.,0.707106781186548,1.,           197P    227
0.707106781186548,1.,0.707106781186548,1.,0.707106781186548,1.,      197P    228
-37.3,-7.79999999999998,8.,-37.3,-5.29999999999998,8.,-34.8,         197P    229
-5.29999999999998,8.,-32.3,-5.29999999999998,8.,-32.3,               197P    230
-7.79999999999998,8.,-32.3,-10.3,8.,-34.8,-10.3,8.,-37.3,-10.3,      197P    231
8.,-37.3,-7.79999999999998,8.,-3.14159265358979,                     197P    232
3.14159265358979,0.,0.,0.;                                           197P    233
126,1,1,0,0,1,0,-3.2,-3.2,0.,0.,1.,1.,-37.3,-7.79999999999998,       199P    234
8.,-37.3,-7.79999999999998,0.,-3.2,0.,0.,0.,0.;                      199P    235
126,8,2,0,1,0,0,-3.14159265358979,-3.14159265358979,                 201P    236
-3.14159265358979,-1.5707963267949,-1.5707963267949,0.,0.,           201P    237
1.5707963267949,1.5707963267949,3.14159265358979,                    201P    238
3.14159265358979,3.14159265358979,1.,0.707106781186548,1.,           201P    239
0.707106781186548,1.,0.707106781186548,1.,0.707106781186548,1.,      201P    240
-37.3,-7.79999999999998,0.,-37.3,-5.29999999999998,0.,-34.8,         201P    241
-5.29999999999998,0.,-32.3,-5.29999999999998,0.,-32.3,               201P    242
-7.79999999999998,0.,-32.3,-10.3,0.,-34.8,-10.3,0.,-37.3,-10.3,      201P    243
0.,-37.3,-7.79999999999998,0.,-3.14159265358979,                     201P    244
3.14159265358979,0.,0.,0.;                                           201P    245
126,1,1,0,0,1,0,0.,0.,13.,13.,1.,1.,-55.,65.,0.,-55.,-65.,0.,0.,     203P    246
13.,0.,0.,0.;                                                        203P    247
126,1,1,0,0,1,0,0.,0.,0.8,0.8,1.,1.,-55.,-65.,0.,-55.,-65.,8.,       205P    248
0.,0.8,0.,0.,0.;                                                     205P    249
126,1,1,0,0,1,0,0.,0.,13.,13.,1.,1.,-55.,65.,8.,-55.,-65.,8.,0.,     207P    250
13.,0.,0.,0.;                                                        207P    251
126,1,1,0,0,1,0,0.,0.,0.8,0.8,1.,1.,-55.,65.,0.,-55.,65.,8.,0.,      209P    252
0.8,0.,0.,0.;                                                        209P    253
126,2,2,0,0,0,0,0.,0.,0.,1.5707963267949,1.5707963267949,            211P    254
1.5707963267949,1.,0.707106781186548,1.,-50.,70.,0.,-55.,70.,0.,     211P    255
-55.,65.,0.,0.,1.5707963267949,0.,0.,0.;                             211P    256
126,2,2,0,0,0,0,0.,0.,0.,1.5707963267949,1.5707963267949,            213P    257
1.5707963267949,1.,0.707106781186548,1.,-50.,70.,8.,-55.,70.,8.,     213P    258
-55.,65.,8.,0.,1.5707963267949,0.,0.,0.;                             213P    259
126,1,1,0,0,1,0,0.,0.,0.8,0.8,1.,1.,-50.,70.,0.,-50.,70.,8.,0.,      215P    260
0.8,0.,0.,0.;                                                        215P    261
126,1,1,0,0,1,0,0.,0.,10.,10.,1.,1.,50.,70.,0.,-50.,70.,0.,0.,       217P    262
10.,0.,0.,0.;                                                        217P    263
126,1,1,0,0,1,0,0.,0.,10.,10.,1.,1.,50.,70.,8.,-50.,70.,8.,0.,       219P    264
10.,0.,0.,0.;                                                        219P    265
126,1,1,0,0,1,0,0.,0.,0.8,0.8,1.,1.,50.,70.,0.,50.,70.,8.,0.,        221P    266
0.8,0.,0.,0.;                                                        221P    267
126,2,2,0,0,0,0,0.,0.,0.,1.5707963267949,1.5707963267949,            223P    268
1.5707963267949,1.,0.70710678118655,1.,55.,65.,0.,55.,70.,0.,        223P    269
50.,70.,0.,0.,1.5707963267949,0.,0.,0.;                              223P    270
126,2,2,0,0,0,0,0.,0.,0.,1.5707963267949,1.5707963267949,            225P    271
1.5707963267949,1.,0.70710678118655,1.,55.,65.,8.,55.,70.,8.,        225P    272
50.,70.,8.,0.,1.5707963267949,0.,0.,0.;                              225P    273
126,1,1,0,0,1,0,0.,0.,0.8,0.8,1.,1.,55.,65.,0.,55.,65.,8.,0.,        227P    274
0.8,0.,0.,0.;                                                        227P    275
126,1,1,0,0,1,0,0.,0.,13.,13.,1.,1.,55.,-65.,0.,55.,65.,0.,0.,       229P    276
13.,0.,0.,0.;                                                        229P    277
126,1,1,0,0,1,0,0.,0.,13.,13.,1.,1.,55.,-65.,8.,55.,65.,8.,0.,       231P    278
13.,0.,0.,0.;                                                        231P    279
126,1,1,0,0,1,0,0.,0.,0.8,0.8,1.,1.,55.,-65.,0.,55.,-65.,8.,0.,      233P    280
0.8,0.,0.,0.;                                                        233P    281
126,2,2,0,0,0,0,0.,0.,0.,1.5707963267949,1.5707963267949,            235P    282
1.5707963267949,1.,0.707106781186544,1.,50.,-70.,0.,55.,-70.,0.,     235P    283
55.,-65.,0.,0.,1.5707963267949,0.,0.,0.;                             235P    284
126,2,2,0,0,0,0,0.,0.,0.,1.5707963267949,1.5707963267949,            237P    285
1.5707963267949,1.,0.707106781186544,1.,50.,-70.,8.,55.,-70.,8.,     237P    286
55.,-65.,8.,0.,1.5707963267949,0.,0.,0.;                             237P    287
126,1,1,0,0,1,0,0.,0.,0.8,0.8,1.,1.,50.,-70.,0.,50.,-70.,8.,0.,      239P    288
0.8,0.,0.,0.;                                                        239P    289
126,1,1,0,0,1,0,0.,0.,10.,10.,1.,1.,-50.,-70.,0.,50.,-70.,0.,0.,     241P    290
10.,0.,0.,0.;                                                        241P    291
126,1,1,0,0,1,0,0.,0.,10.,10.,1.,1.,-50.,-70.,8.,50.,-70.,8.,0.,     243P    292
10.,0.,0.,0.;                                                        243P    293
126,1,1,0,0,1,0,0.,0.,0.8,0.8,1.,1.,-50.,-70.,0.,-50.,-70.,8.,       245P    294
0.,0.8,0.,0.,0.;                                                     245P    295
126,2,2,0,0,0,0,0.,0.,0.,1.5707963267949,1.5707963267949,            247P    296
1.5707963267949,1.,0.707106781186544,1.,-55.,-65.,0.,-55.,-70.,      247P    297
0.,-50.,-70.,0.,0.,1.5707963267949,0.,0.,0.;                         247P    298
126,2,2,0,0,0,0,0.,0.,0.,1.5707963267949,1.5707963267949,            249P    299
1.5707963267949,1.,0.707106781186544,1.,-55.,-65.,8.,-55.,-70.,      249P    300
8.,-50.,-70.,8.,0.,1.5707963267949,0.,0.,0.;                         249P    301
128,1,1,1,1,0,0,1,0,0,-0.001,-0.001,3.001,3.001,-0.001,-0.001,       251P    302
0.801,0.801,1.,1.,1.,1.,39.25,-60.0099999999999,-0.01,39.25,         251P    303
-29.9899999999999,-0.01,39.25,-60.0099999999999,8.01,39.25,          251P    304
-29.9899999999999,8.01,-0.001,3.001,-0.001,0.801;                    251P    305
128,1,4,1,2,0,0,0,0,0,0.,0.,2.46153846153846,2.46153846153846,       253P    306
0.,0.,0.,1.5707963267949,1.5707963267949,3.14159265358979,           253P    307
3.14159265358979,3.14159265358979,1.,1.,0.707106781186548,           253P    308
0.707106781186548,1.,1.,0.707106781186548,0.707106781186548,1.,      253P    309
1.,39.25,-59.9999999999999,0.,39.25,-59.9999999999999,8.,39.25,      253P    310
-63.2499999999999,0.,39.25,-63.2499999999999,8.,42.5,                253P    311
-63.2499999999999,0.,42.5,-63.2499999999999,8.,45.75,                253P    312
-63.2499999999999,0.,45.75,-63.2499999999999,8.,45.75,               253P    313
-59.9999999999999,0.,45.75,-59.9999999999999,8.,0.,                  253P    314
2.46153846153846,0.,3.14159265358979;                                253P    315
128,1,1,1,1,0,0,1,0,0,-0.001,-0.001,3.001,3.001,-0.001,-0.001,       255P    316
0.801,0.801,1.,1.,1.,1.,45.75,-29.9899999999999,-0.01,45.75,         255P    317
-60.0099999999999,-0.01,45.75,-29.9899999999999,8.01,45.75,          255P    318
-60.0099999999999,8.01,-0.001,3.001,-0.001,0.801;                    255P    319
128,1,4,1,2,0,0,0,0,0,0.,0.,2.46153846153846,2.46153846153846,       257P    320
0.,0.,0.,1.5707963267949,1.5707963267949,3.14159265358979,           257P    321
3.14159265358979,3.14159265358979,1.,1.,0.707106781186548,           257P    322
0.707106781186548,1.,1.,0.707106781186548,0.707106781186548,1.,      257P    323
1.,45.75,-29.9999999999999,0.,45.75,-29.9999999999999,8.,45.75,      257P    324
-26.7499999999999,0.,45.75,-26.7499999999999,8.,42.5,                257P    325
-26.7499999999999,0.,42.5,-26.7499999999999,8.,39.25,                257P    326
-26.7499999999999,0.,39.25,-26.7499999999999,8.,39.25,               257P    327
-29.9999999999999,0.,39.25,-29.9999999999999,8.,0.,                  257P    328
2.46153846153846,0.,3.14159265358979;                                257P    329
128,1,1,1,1,0,0,1,0,0,-0.001,-0.001,3.001,3.001,-0.001,-0.001,       259P    330
0.801,0.801,1.,1.,1.,1.,-39.25,-29.9899999999999,-0.01,-39.25,       259P    331
-60.0099999999999,-0.01,-39.25,-29.9899999999999,8.01,-39.25,        259P    332
-60.0099999999999,8.01,-0.001,3.001,-0.001,0.801;                    259P    333
128,1,4,1,2,0,0,0,0,0,0.,0.,2.46153846153846,2.46153846153846,       261P    334
0.,0.,0.,1.5707963267949,1.5707963267949,3.14159265358979,           261P    335
3.14159265358979,3.14159265358979,1.,1.,0.707106781186548,           261P    336
0.707106781186548,1.,1.,0.707106781186548,0.707106781186548,1.,      261P    337
1.,-39.25,-29.9999999999999,0.,-39.25,-29.9999999999999,8.,          261P    338
-39.25,-26.7499999999999,0.,-39.25,-26.7499999999999,8.,-42.5,       261P    339
-26.7499999999999,0.,-42.5,-26.7499999999999,8.,-45.75,              261P    340
-26.7499999999999,0.,-45.75,-26.7499999999999,8.,-45.75,             261P    341
-29.9999999999999,0.,-45.75,-29.9999999999999,8.,0.,                 261P    342
2.46153846153846,0.,3.14159265358979;                                261P    343
128,1,1,1,1,0,0,1,0,0,-0.001,-0.001,3.001,3.001,-0.001,-0.001,       263P    344
0.801,0.801,1.,1.,1.,1.,-45.75,-60.0099999999999,-0.01,-45.75,       263P    345
-29.9899999999999,-0.01,-45.75,-60.0099999999999,8.01,-45.75,        263P    346
-29.9899999999999,8.01,-0.001,3.001,-0.001,0.801;                    263P    347
128,1,4,1,2,0,0,0,0,0,0.,0.,2.46153846153846,2.46153846153846,       265P    348
0.,0.,0.,1.5707963267949,1.5707963267949,3.14159265358979,           265P    349
3.14159265358979,3.14159265358979,1.,1.,0.707106781186548,           265P    350
0.707106781186548,1.,1.,0.707106781186548,0.707106781186548,1.,      265P    351
1.,-45.75,-59.9999999999999,0.,-45.75,-59.9999999999999,8.,          265P    352
-45.75,-63.2499999999999,0.,-45.75,-63.2499999999999,8.,-42.5,       265P    353
-63.2499999999999,0.,-42.5,-63.2499999999999,8.,-39.25,              265P    354
-63.2499999999999,0.,-39.25,-63.2499999999999,8.,-39.25,             265P    355
-59.9999999999999,0.,-39.25,-59.9999999999999,8.,0.,                 265P    356
2.46153846153846,0.,3.14159265358979;                                265P    357
128,1,8,1,2,0,1,0,0,1,0.,0.,3.2,3.2,-3.14159265358979,               267P    358
-3.14159265358979,-3.14159265358979,-1.5707963267949,                267P    359
-1.5707963267949,0.,0.,1.5707963267949,1.5707963267949,              267P    360
3.14159265358979,3.14159265358979,3.14159265358979,1.,1.,            267P    361
0.707106781186548,0.707106781186548,1.,1.,0.707106781186548,         267P    362
0.707106781186548,1.,1.,0.707106781186548,0.707106781186548,1.,      267P    363
1.,0.707106781186548,0.707106781186548,1.,1.,32.3,61.8,0.,32.3,      267P    364
61.8,8.,32.3,59.3,0.,32.3,59.3,8.,34.8,59.3,0.,34.8,59.3,8.,         267P    365
37.3,59.3,0.,37.3,59.3,8.,37.3,61.8,0.,37.3,61.8,8.,37.3,64.3,       267P    366
0.,37.3,64.3,8.,34.8,64.3,0.,34.8,64.3,8.,32.3,64.3,0.,32.3,         267P    367
64.3,8.,32.3,61.8,0.,32.3,61.8,8.,0.,3.2,-3.14159265358979,          267P    368
3.14159265358979;                                                    267P    369
128,1,8,1,2,0,1,0,0,1,0.,0.,3.2,3.2,-3.14159265358979,               269P    370
-3.14159265358979,-3.14159265358979,-1.5707963267949,                269P    371
-1.5707963267949,0.,0.,1.5707963267949,1.5707963267949,              269P    372
3.14159265358979,3.14159265358979,3.14159265358979,1.,1.,            269P    373
0.707106781186548,0.707106781186548,1.,1.,0.707106781186548,         269P    374
0.707106781186548,1.,1.,0.707106781186548,0.707106781186548,1.,      269P    375
1.,0.707106781186548,0.707106781186548,1.,1.,-37.3,61.8,0.,          269P    376
-37.3,61.8,8.,-37.3,59.3,0.,-37.3,59.3,8.,-34.8,59.3,0.,-34.8,       269P    377
59.3,8.,-32.3,59.3,0.,-32.3,59.3,8.,-32.3,61.8,0.,-32.3,61.8,8.,     269P    378
-32.3,64.3,0.,-32.3,64.3,8.,-34.8,64.3,0.,-34.8,64.3,8.,-37.3,       269P    379
64.3,0.,-37.3,64.3,8.,-37.3,61.8,0.,-37.3,61.8,8.,0.,3.2,            269P    380
-3.14159265358979,3.14159265358979;                                  269P    381
128,1,8,1,2,0,1,0,0,1,0.,0.,3.2,3.2,-3.14159265358979,               271P    382
-3.14159265358979,-3.14159265358979,-1.5707963267949,                271P    383
-1.5707963267949,0.,0.,1.5707963267949,1.5707963267949,              271P    384
3.14159265358979,3.14159265358979,3.14159265358979,1.,1.,            271P    385
0.707106781186548,0.707106781186548,1.,1.,0.707106781186548,         271P    386
0.707106781186548,1.,1.,0.707106781186548,0.707106781186548,1.,      271P    387
1.,0.707106781186548,0.707106781186548,1.,1.,32.3,                   271P    388
-7.79999999999998,0.,32.3,-7.79999999999998,8.,32.3,-10.3,0.,        271P    389
32.3,-10.3,8.,34.8,-10.3,0.,34.8,-10.3,8.,37.3,-10.3,0.,37.3,        271P    390
-10.3,8.,37.3,-7.79999999999998,0.,37.3,-7.79999999999998,8.,        271P    391
37.3,-5.29999999999998,0.,37.3,-5.29999999999998,8.,34.8,            271P    392
-5.29999999999998,0.,34.8,-5.29999999999998,8.,32.3,                 271P    393
-5.29999999999998,0.,32.3,-5.29999999999998,8.,32.3,                 271P    394
-7.79999999999998,0.,32.3,-7.79999999999998,8.,0.,3.2,               271P    395
-3.14159265358979,3.14159265358979;                                  271P    396
128,1,8,1,2,0,1,0,0,1,0.,0.,0.4,0.4,-3.14159265358979,               273P    397
-3.14159265358979,-3.14159265358979,-1.5707963267949,                273P    398
-1.5707963267949,0.,0.,1.5707963267949,1.5707963267949,              273P    399
3.14159265358979,3.14159265358979,3.14159265358979,1.,1.,            273P    400
0.707106781186548,0.707106781186548,1.,1.,0.707106781186548,         273P    401
0.707106781186548,1.,1.,0.707106781186548,0.707106781186548,1.,      273P    402
1.,0.707106781186548,0.707106781186548,1.,1.,-20.,27.,0.,-20.,       273P    403
27.,8.,-20.,7.00000000000002,0.,-20.,7.00000000000002,8.,0.,         273P    404
7.00000000000002,0.,0.,7.00000000000002,8.,20.,7.00000000000002,     273P    405
0.,20.,7.00000000000002,8.,20.,27.,0.,20.,27.,8.,20.,47.,0.,20.,     273P    406
47.,8.,0.,47.,0.,0.,47.,8.,-20.,47.,0.,-20.,47.,8.,-20.,27.,0.,      273P    407
-20.,27.,8.,0.,0.4,-3.14159265358979,3.14159265358979;               273P    408
128,1,8,1,2,0,1,0,0,1,0.,0.,3.2,3.2,-3.14159265358979,               275P    409
-3.14159265358979,-3.14159265358979,-1.5707963267949,                275P    410
-1.5707963267949,0.,0.,1.5707963267949,1.5707963267949,              275P    411
3.14159265358979,3.14159265358979,3.14159265358979,1.,1.,            275P    412
0.707106781186548,0.707106781186548,1.,1.,0.707106781186548,         275P    413
0.707106781186548,1.,1.,0.707106781186548,0.707106781186548,1.,      275P    414
1.,0.707106781186548,0.707106781186548,1.,1.,-37.3,                  275P    415
-7.79999999999998,0.,-37.3,-7.79999999999998,8.,-37.3,-10.3,0.,      275P    416
-37.3,-10.3,8.,-34.8,-10.3,0.,-34.8,-10.3,8.,-32.3,-10.3,0.,         275P    417
-32.3,-10.3,8.,-32.3,-7.79999999999998,0.,-32.3,                     275P    418
-7.79999999999998,8.,-32.3,-5.29999999999998,0.,-32.3,               275P    419
-5.29999999999998,8.,-34.8,-5.29999999999998,0.,-34.8,               275P    420
-5.29999999999998,8.,-37.3,-5.29999999999998,0.,-37.3,               275P    421
-5.29999999999998,8.,-37.3,-7.79999999999998,0.,-37.3,               275P    422
-7.79999999999998,8.,0.,3.2,-3.14159265358979,3.14159265358979;      275P    423
128,1,1,1,1,0,0,1,0,0,-0.001,-0.001,13.001,13.001,-0.001,-0.001,     277P    424
0.801,0.801,1.,1.,1.,1.,-55.,65.01,-0.01,-55.,-65.01,-0.01,-55.,     277P    425
65.01,8.01,-55.,-65.01,8.01,-0.001,13.001,-0.001,0.801;              277P    426
128,1,2,1,2,0,0,0,0,0,0.,0.,1.6,1.6,0.,0.,0.,1.5707963267949,        279P    427
1.5707963267949,1.5707963267949,1.,1.,0.707106781186546,             279P    428
0.707106781186546,1.,1.,-50.,70.,8.,-50.,70.,0.,-55.,70.,8.,         279P    429
-55.,70.,0.,-55.,65.,8.,-55.,65.,0.,0.,1.6,0.,1.5707963267949;       279P    430
128,1,1,1,1,0,0,1,0,0,-0.001,-0.001,10.001,10.001,-0.001,-0.001,     281P    431
0.801,0.801,1.,1.,1.,1.,50.01,70.,-0.01,-50.01,70.,-0.01,50.01,      281P    432
70.,8.01,-50.01,70.,8.01,-0.001,10.001,-0.001,0.801;                 281P    433
128,1,2,1,2,0,0,0,0,0,0.,0.,1.6,1.6,0.,0.,0.,1.5707963267949,        283P    434
1.5707963267949,1.5707963267949,1.,1.,0.707106781186548,             283P    435
0.707106781186548,1.,1.,55.,65.,8.,55.,65.,0.,55.,70.,8.,55.,        283P    436
70.,0.,50.,70.,8.,50.,70.,0.,0.,1.6,0.,1.5707963267949;              283P    437
128,1,1,1,1,0,0,1,0,0,-0.001,-0.001,13.001,13.001,-0.001,-0.001,     285P    438
0.801,0.801,1.,1.,1.,1.,55.,-65.01,-0.01,55.,65.01,-0.01,55.,        285P    439
-65.01,8.01,55.,65.01,8.01,-0.001,13.001,-0.001,0.801;               285P    440
128,1,2,1,2,0,0,0,0,0,0.,0.,1.6,1.6,0.,0.,0.,1.5707963267949,        287P    441
1.5707963267949,1.5707963267949,1.,1.,0.707106781186548,             287P    442
0.707106781186548,1.,1.,50.,-70.,8.,50.,-70.,0.,55.,-70.,8.,55.,     287P    443
-70.,0.,55.,-65.,8.,55.,-65.,0.,0.,1.6,0.,1.5707963267949;           287P    444
128,1,1,1,1,0,0,1,0,0,-0.001,-0.001,10.001,10.001,-0.001,-0.001,     289P    445
0.801,0.801,1.,1.,1.,1.,-50.01,-70.,-0.01,50.01,-70.,-0.01,          289P    446
-50.01,-70.,8.01,50.01,-70.,8.01,-0.001,10.001,-0.001,0.801;         289P    447
128,1,2,1,2,0,0,0,0,0,0.,0.,1.6,1.6,0.,0.,0.,1.5707963267949,        291P    448
1.5707963267949,1.5707963267949,1.,1.,0.707106781186547,             291P    449
0.707106781186547,1.,1.,-55.,-65.,8.,-55.,-65.,0.,-55.,-70.,8.,      291P    450
-55.,-70.,0.,-50.,-70.,8.,-50.,-70.,0.,0.,1.6,0.,                    291P    451
1.5707963267949;                                                     291P    452
128,1,1,1,1,0,0,1,0,0,-5.501,-5.501,5.501,5.501,-7.001,-7.001,       293P    453
7.001,7.001,1.,1.,1.,1.,-55.01,-70.01,8.,55.01,-70.01,8.,-55.01,     293P    454
70.01,8.,55.01,70.01,8.,-5.501,5.501,-7.001,7.001;                   293P    455
128,1,1,1,1,0,0,1,0,0,-5.501,-5.501,5.501,5.501,-7.001,-7.001,       295P    456
7.001,7.001,1.,1.,1.,1.,55.01,-70.01,0.,-55.01,-70.01,0.,55.01,      295P    457
70.01,0.,-55.01,70.01,0.,-5.501,5.501,-7.001,7.001;                  295P    458
502,42,39.25,-59.9999999999999,0.,39.25,-29.9999999999999,0.,        297P    459
39.25,-29.9999999999999,8.,39.25,-59.9999999999999,8.,45.75,         297P    460
-59.9999999999999,0.,45.75,-59.9999999999999,8.,45.75,               297P    461
-29.9999999999999,0.,45.75,-29.9999999999999,8.,-39.25,              297P    462
-29.9999999999999,0.,-39.25,-59.9999999999999,0.,-39.25,             297P    463
-59.9999999999999,8.,-39.25,-29.9999999999999,8.,-45.75,             297P    464
-29.9999999999999,0.,-45.75,-29.9999999999999,8.,-45.75,             297P    465
-59.9999999999999,0.,-45.75,-59.9999999999999,8.,32.3,61.8,8.,       297P    466
32.3,61.8,0.,-37.3,61.8,8.,-37.3,61.8,0.,32.3,-7.79999999999998,     297P    467
8.,32.3,-7.79999999999998,0.,-20.,27.,8.,-20.,27.,0.,-37.3,          297P    468
-7.79999999999998,8.,-37.3,-7.79999999999998,0.,-55.,65.,0.,         297P    469
-55.,-65.,0.,-55.,-65.,8.,-55.,65.,8.,-50.,70.,0.,-50.,70.,8.,       297P    470
50.,70.,0.,50.,70.,8.,55.,65.,0.,55.,65.,8.,55.,-65.,0.,55.,         297P    471
-65.,8.,50.,-70.,0.,50.,-70.,8.,-50.,-70.,0.,-50.,-70.,8.;           297P    472
504,63,125,297,1,297,2,127,297,2,297,3,129,297,4,297,3,131,297,      299P    473
1,297,4,133,297,5,297,1,135,297,6,297,4,137,297,5,297,6,139,297,     299P    474
7,297,5,141,297,8,297,6,143,297,7,297,8,145,297,2,297,7,147,297,     299P    475
3,297,8,149,297,9,297,10,151,297,10,297,11,153,297,12,297,11,        299P    476
155,297,9,297,12,157,297,13,297,9,159,297,14,297,12,161,297,13,      299P    477
297,14,163,297,15,297,13,165,297,16,297,14,167,297,15,297,16,        299P    478
169,297,10,297,15,171,297,11,297,16,173,297,17,297,17,175,297,       299P    479
17,297,18,177,297,18,297,18,179,297,19,297,19,181,297,19,297,20,     299P    480
183,297,20,297,20,185,297,21,297,21,187,297,21,297,22,189,297,       299P    481
22,297,22,191,297,23,297,23,193,297,23,297,24,195,297,24,297,24,     299P    482
197,297,25,297,25,199,297,25,297,26,201,297,26,297,26,203,297,       299P    483
27,297,28,205,297,28,297,29,207,297,30,297,29,209,297,27,297,30,     299P    484
211,297,31,297,27,213,297,32,297,30,215,297,31,297,32,217,297,       299P    485
33,297,31,219,297,34,297,32,221,297,33,297,34,223,297,35,297,33,     299P    486
225,297,36,297,34,227,297,35,297,36,229,297,37,297,35,231,297,       299P    487
38,297,36,233,297,37,297,38,235,297,39,297,37,237,297,40,297,38,     299P    488
239,297,39,297,40,241,297,41,297,39,243,297,42,297,40,245,297,       299P    489
41,297,42,247,297,28,297,41,249,297,29,297,42;                       299P    490
406,1,5HBody1;                                                       301P    491
314,96.078431372549,96.078431372549,96.4705882352941,16HAluminum     303P    492
 - Satin;                                                            303P    493
S      1G      3D    304P    493                                        T      1
